<svg xmlns="http://www.w3.org/2000/svg" width="900" height="420" viewBox="0 0 900 420"><rect width="100%" height="100%" fill="white"/><text x="450.0" y="24" text-anchor="middle" font-family="Arial" font-size="18">G2-SV-0006 market 1D</text><line x1="60" y1="45.00" x2="875" y2="45.00" stroke="#ddd" stroke-width="1"/><text x="5" y="49.00" font-size="11">145.70</text><line x1="60" y1="111.00" x2="875" y2="111.00" stroke="#ddd" stroke-width="1"/><text x="5" y="115.00" font-size="11">133.26</text><line x1="60" y1="177.00" x2="875" y2="177.00" stroke="#ddd" stroke-width="1"/><text x="5" y="181.00" font-size="11">120.83</text><line x1="60" y1="243.00" x2="875" y2="243.00" stroke="#ddd" stroke-width="1"/><text x="5" y="247.00" font-size="11">108.39</text><line x1="60" y1="309.00" x2="875" y2="309.00" stroke="#ddd" stroke-width="1"/><text x="5" y="313.00" font-size="11">95.96</text><line x1="60" y1="375.00" x2="875" y2="375.00" stroke="#ddd" stroke-width="1"/><text x="5" y="379.00" font-size="11">83.52</text><line x1="60.00" y1="297.33" x2="60.00" y2="267.97" stroke="#999" stroke-width="1"/><line x1="66.63" y1="273.91" x2="66.63" y2="253.90" stroke="#999" stroke-width="1"/><line x1="73.25" y1="276.96" x2="73.25" y2="246.66" stroke="#999" stroke-width="1"/><line x1="79.88" y1="265.25" x2="79.88" y2="252.02" stroke="#999" stroke-width="1"/><line x1="86.50" y1="264.21" x2="86.50" y2="237.05" stroke="#999" stroke-width="1"/><line x1="93.13" y1="247.31" x2="93.13" y2="226.49" stroke="#999" stroke-width="1"/><line x1="99.76" y1="342.42" x2="99.76" y2="225.45" stroke="#999" stroke-width="1"/><line x1="106.38" y1="320.81" x2="106.38" y2="287.98" stroke="#999" stroke-width="1"/><line x1="113.01" y1="308.71" x2="113.01" y2="287.38" stroke="#999" stroke-width="1"/><line x1="119.63" y1="324.05" x2="119.63" y2="291.42" stroke="#999" stroke-width="1"/><line x1="126.26" y1="317.23" x2="126.26" y2="303.16" stroke="#999" stroke-width="1"/><line x1="132.89" y1="317.11" x2="132.89" y2="298.01" stroke="#999" stroke-width="1"/><line x1="139.51" y1="332.38" x2="139.51" y2="293.43" stroke="#999" stroke-width="1"/><line x1="146.14" y1="318.16" x2="146.14" y2="289.03" stroke="#999" stroke-width="1"/><line x1="152.76" y1="295.21" x2="152.76" y2="275.60" stroke="#999" stroke-width="1"/><line x1="159.39" y1="291.64" x2="159.39" y2="274.75" stroke="#999" stroke-width="1"/><line x1="166.02" y1="294.57" x2="166.02" y2="279.01" stroke="#999" stroke-width="1"/><line x1="172.64" y1="291.44" x2="172.64" y2="271.61" stroke="#999" stroke-width="1"/><line x1="179.27" y1="293.83" x2="179.27" y2="276.47" stroke="#999" stroke-width="1"/><line x1="185.89" y1="342.52" x2="185.89" y2="287.81" stroke="#999" stroke-width="1"/><line x1="192.52" y1="375.00" x2="192.52" y2="329.33" stroke="#999" stroke-width="1"/><line x1="199.15" y1="363.83" x2="199.15" y2="325.38" stroke="#999" stroke-width="1"/><line x1="205.77" y1="335.87" x2="205.77" y2="314.42" stroke="#999" stroke-width="1"/><line x1="212.40" y1="362.54" x2="212.40" y2="312.57" stroke="#999" stroke-width="1"/><line x1="219.02" y1="351.92" x2="219.02" y2="336.92" stroke="#999" stroke-width="1"/><line x1="225.65" y1="361.78" x2="225.65" y2="326.17" stroke="#999" stroke-width="1"/><line x1="232.28" y1="346.77" x2="232.28" y2="321.38" stroke="#999" stroke-width="1"/><line x1="238.90" y1="360.39" x2="238.90" y2="339.25" stroke="#999" stroke-width="1"/><line x1="245.53" y1="361.77" x2="245.53" y2="341.15" stroke="#999" stroke-width="1"/><line x1="252.15" y1="354.36" x2="252.15" y2="324.00" stroke="#999" stroke-width="1"/><line x1="258.78" y1="333.30" x2="258.78" y2="275.34" stroke="#999" stroke-width="1"/><line x1="265.41" y1="286.89" x2="265.41" y2="276.84" stroke="#999" stroke-width="1"/><line x1="272.03" y1="290.66" x2="272.03" y2="266.91" stroke="#999" stroke-width="1"/><line x1="278.66" y1="292.79" x2="278.66" y2="263.77" stroke="#999" stroke-width="1"/><line x1="285.28" y1="268.98" x2="285.28" y2="237.03" stroke="#999" stroke-width="1"/><line x1="291.91" y1="253.84" x2="291.91" y2="193.52" stroke="#999" stroke-width="1"/><line x1="298.54" y1="220.34" x2="298.54" y2="198.46" stroke="#999" stroke-width="1"/><line x1="305.16" y1="217.69" x2="305.16" y2="189.40" stroke="#999" stroke-width="1"/><line x1="311.79" y1="217.28" x2="311.79" y2="196.55" stroke="#999" stroke-width="1"/><line x1="318.41" y1="212.29" x2="318.41" y2="185.29" stroke="#999" stroke-width="1"/><line x1="325.04" y1="208.71" x2="325.04" y2="170.34" stroke="#999" stroke-width="1"/><line x1="331.67" y1="214.60" x2="331.67" y2="172.24" stroke="#999" stroke-width="1"/><line x1="338.29" y1="210.86" x2="338.29" y2="171.18" stroke="#999" stroke-width="1"/><line x1="344.92" y1="182.04" x2="344.92" y2="162.61" stroke="#999" stroke-width="1"/><line x1="351.54" y1="181.30" x2="351.54" y2="113.12" stroke="#999" stroke-width="1"/><line x1="358.17" y1="144.41" x2="358.17" y2="119.72" stroke="#999" stroke-width="1"/><line x1="364.80" y1="157.60" x2="364.80" y2="127.08" stroke="#999" stroke-width="1"/><line x1="371.42" y1="147.61" x2="371.42" y2="115.96" stroke="#999" stroke-width="1"/><line x1="378.05" y1="131.30" x2="378.05" y2="96.04" stroke="#999" stroke-width="1"/><line x1="384.67" y1="106.93" x2="384.67" y2="67.88" stroke="#999" stroke-width="1"/><line x1="391.30" y1="123.56" x2="391.30" y2="71.49" stroke="#999" stroke-width="1"/><line x1="397.93" y1="146.02" x2="397.93" y2="104.30" stroke="#999" stroke-width="1"/><line x1="404.55" y1="150.50" x2="404.55" y2="126.56" stroke="#999" stroke-width="1"/><line x1="411.18" y1="151.55" x2="411.18" y2="129.47" stroke="#999" stroke-width="1"/><line x1="417.80" y1="138.77" x2="417.80" y2="104.57" stroke="#999" stroke-width="1"/><line x1="424.43" y1="147.82" x2="424.43" y2="109.31" stroke="#999" stroke-width="1"/><line x1="431.06" y1="168.96" x2="431.06" y2="129.47" stroke="#999" stroke-width="1"/><line x1="437.68" y1="170.56" x2="437.68" y2="118.03" stroke="#999" stroke-width="1"/><line x1="444.31" y1="143.98" x2="444.31" y2="112.96" stroke="#999" stroke-width="1"/><line x1="450.93" y1="138.92" x2="450.93" y2="119.61" stroke="#999" stroke-width="1"/><line x1="457.56" y1="146.54" x2="457.56" y2="119.29" stroke="#999" stroke-width="1"/><line x1="464.19" y1="153.07" x2="464.19" y2="118.80" stroke="#999" stroke-width="1"/><line x1="470.81" y1="139.02" x2="470.81" y2="98.18" stroke="#999" stroke-width="1"/><line x1="477.44" y1="141.66" x2="477.44" y2="106.85" stroke="#999" stroke-width="1"/><line x1="484.07" y1="138.30" x2="484.07" y2="111.56" stroke="#999" stroke-width="1"/><line x1="490.69" y1="137.96" x2="490.69" y2="116.97" stroke="#999" stroke-width="1"/><line x1="497.32" y1="145.58" x2="497.32" y2="128.72" stroke="#999" stroke-width="1"/><line x1="503.94" y1="131.28" x2="503.94" y2="109.42" stroke="#999" stroke-width="1"/><line x1="510.57" y1="109.53" x2="510.57" y2="58.81" stroke="#999" stroke-width="1"/><line x1="517.20" y1="77.00" x2="517.20" y2="50.91" stroke="#999" stroke-width="1"/><line x1="523.82" y1="117.68" x2="523.82" y2="45.00" stroke="#999" stroke-width="1"/><line x1="530.45" y1="100.11" x2="530.45" y2="83.52" stroke="#999" stroke-width="1"/><line x1="537.07" y1="120.78" x2="537.07" y2="84.83" stroke="#999" stroke-width="1"/><line x1="543.70" y1="108.39" x2="543.70" y2="90.53" stroke="#999" stroke-width="1"/><line x1="550.33" y1="106.15" x2="550.33" y2="84.40" stroke="#999" stroke-width="1"/><line x1="556.95" y1="108.41" x2="556.95" y2="74.88" stroke="#999" stroke-width="1"/><line x1="563.58" y1="162.30" x2="563.58" y2="105.66" stroke="#999" stroke-width="1"/><line x1="570.20" y1="164.53" x2="570.20" y2="136.92" stroke="#999" stroke-width="1"/><line x1="576.83" y1="185.65" x2="576.83" y2="135.48" stroke="#999" stroke-width="1"/><line x1="583.46" y1="195.43" x2="583.46" y2="164.84" stroke="#999" stroke-width="1"/><line x1="590.08" y1="175.77" x2="590.08" y2="147.82" stroke="#999" stroke-width="1"/><line x1="596.71" y1="162.94" x2="596.71" y2="145.70" stroke="#999" stroke-width="1"/><line x1="603.33" y1="195.09" x2="603.33" y2="151.76" stroke="#999" stroke-width="1"/><line x1="609.96" y1="198.57" x2="609.96" y2="170.12" stroke="#999" stroke-width="1"/><line x1="616.59" y1="192.43" x2="616.59" y2="171.66" stroke="#999" stroke-width="1"/><line x1="623.21" y1="179.75" x2="623.21" y2="152.86" stroke="#999" stroke-width="1"/><line x1="629.84" y1="218.96" x2="629.84" y2="155.61" stroke="#999" stroke-width="1"/><line x1="636.46" y1="217.84" x2="636.46" y2="198.93" stroke="#999" stroke-width="1"/><line x1="643.09" y1="221.92" x2="643.09" y2="174.77" stroke="#999" stroke-width="1"/><line x1="649.72" y1="183.51" x2="649.72" y2="158.66" stroke="#999" stroke-width="1"/><line x1="656.34" y1="192.33" x2="656.34" y2="155.10" stroke="#999" stroke-width="1"/><line x1="662.97" y1="185.91" x2="662.97" y2="156.91" stroke="#999" stroke-width="1"/><line x1="669.59" y1="193.72" x2="669.59" y2="175.57" stroke="#999" stroke-width="1"/><line x1="676.22" y1="242.85" x2="676.22" y2="173.03" stroke="#999" stroke-width="1"/><line x1="682.85" y1="363.60" x2="682.85" y2="214.98" stroke="#999" stroke-width="1"/><line x1="689.47" y1="283.64" x2="689.47" y2="261.63" stroke="#999" stroke-width="1"/><line x1="696.10" y1="290.43" x2="696.10" y2="248.08" stroke="#999" stroke-width="1"/><line x1="702.72" y1="257.87" x2="702.72" y2="236.54" stroke="#999" stroke-width="1"/><line x1="709.35" y1="273.85" x2="709.35" y2="244.68" stroke="#999" stroke-width="1"/><line x1="715.98" y1="288.22" x2="715.98" y2="249.20" stroke="#999" stroke-width="1"/><line x1="722.60" y1="293.42" x2="722.60" y2="257.05" stroke="#999" stroke-width="1"/><line x1="729.23" y1="294.97" x2="729.23" y2="263.94" stroke="#999" stroke-width="1"/><line x1="735.85" y1="273.29" x2="735.85" y2="249.49" stroke="#999" stroke-width="1"/><line x1="742.48" y1="306.18" x2="742.48" y2="255.81" stroke="#999" stroke-width="1"/><line x1="749.11" y1="299.78" x2="749.11" y2="273.12" stroke="#999" stroke-width="1"/><line x1="755.73" y1="296.93" x2="755.73" y2="263.32" stroke="#999" stroke-width="1"/><line x1="762.36" y1="286.04" x2="762.36" y2="264.49" stroke="#999" stroke-width="1"/><line x1="768.98" y1="309.41" x2="768.98" y2="280.56" stroke="#999" stroke-width="1"/><line x1="775.61" y1="308.58" x2="775.61" y2="287.85" stroke="#999" stroke-width="1"/><line x1="782.24" y1="298.38" x2="782.24" y2="277.44" stroke="#999" stroke-width="1"/><line x1="788.86" y1="307.88" x2="788.86" y2="285.89" stroke="#999" stroke-width="1"/><line x1="795.49" y1="295.63" x2="795.49" y2="265.76" stroke="#999" stroke-width="1"/><line x1="802.11" y1="275.85" x2="802.11" y2="263.05" stroke="#999" stroke-width="1"/><line x1="808.74" y1="280.44" x2="808.74" y2="242.83" stroke="#999" stroke-width="1"/><line x1="815.37" y1="253.67" x2="815.37" y2="237.77" stroke="#999" stroke-width="1"/><line x1="821.99" y1="256.15" x2="821.99" y2="245.40" stroke="#999" stroke-width="1"/><line x1="828.62" y1="264.33" x2="828.62" y2="243.83" stroke="#999" stroke-width="1"/><line x1="835.24" y1="253.16" x2="835.24" y2="234.95" stroke="#999" stroke-width="1"/><line x1="841.87" y1="288.53" x2="841.87" y2="250.15" stroke="#999" stroke-width="1"/><line x1="848.50" y1="302.53" x2="848.50" y2="279.01" stroke="#999" stroke-width="1"/><line x1="855.12" y1="303.74" x2="855.12" y2="281.61" stroke="#999" stroke-width="1"/><line x1="861.75" y1="306.69" x2="861.75" y2="274.26" stroke="#999" stroke-width="1"/><line x1="868.37" y1="300.62" x2="868.37" y2="281.28" stroke="#999" stroke-width="1"/><line x1="875.00" y1="295.63" x2="875.00" y2="280.68" stroke="#999" stroke-width="1"/><polyline points="60.00,271.44 66.63,266.58 73.25,258.04 79.88,259.26 86.50,238.36 93.13,228.29 99.76,293.32 106.38,302.44 113.01,298.57 119.63,315.86 126.26,312.27 132.89,302.69 139.51,314.87 146.14,290.56 152.76,279.18 159.39,283.50 166.02,288.41 172.64,277.28 179.27,289.06 185.89,336.38 192.52,362.01 199.15,330.35 205.77,315.68 212.40,338.78 219.02,340.21 225.65,334.67 232.28,346.25 238.90,358.78 245.53,352.98 252.15,327.43 258.78,278.95 265.41,284.70 272.03,278.28 278.66,266.86 285.28,241.78 291.91,198.63 298.54,215.84 305.16,213.92 311.79,202.74 318.41,205.92 325.04,174.46 331.67,190.90 338.29,175.63 344.92,175.88 351.54,127.39 358.17,136.30 364.80,129.04 371.42,123.42 378.05,98.13 384.67,78.84 391.30,121.38 397.93,138.31 404.55,131.62 411.18,136.57 417.80,111.60 424.43,142.45 431.06,163.97 437.68,139.52 444.31,120.90 450.93,125.35 457.56,131.65 464.19,136.08 470.81,110.04 477.44,113.72 484.07,130.43 490.69,135.52 497.32,129.70 503.94,109.56 510.57,62.01 517.20,68.37 523.82,91.33 530.45,92.71 537.07,99.83 543.70,97.18 550.33,84.47 556.95,105.68 563.58,145.46 570.20,142.27 576.83,181.12 583.46,168.00 590.08,149.42 596.71,161.88 603.33,188.20 609.96,173.70 616.59,178.21 623.21,157.87 629.84,216.46 636.46,205.35 643.09,176.66 649.72,171.04 656.34,180.55 662.97,177.65 669.59,185.52 676.22,217.50 682.85,267.50 689.47,264.91 696.10,253.21 702.72,251.64 709.35,252.93 715.98,285.63 722.60,290.25 729.23,264.98 735.85,257.55 742.48,295.18 749.11,276.59 755.73,270.79 762.36,284.78 768.98,301.34 775.61,293.73 782.24,295.38 788.86,292.92 795.49,270.59 802.11,274.05 808.74,248.79 815.37,249.13 821.99,253.62 828.62,249.52 835.24,250.15 841.87,285.68 848.50,297.75 855.12,290.40 861.75,300.55 868.37,283.61 875.00,288.51" fill="none" stroke="#111" stroke-width="2"/><line x1="60" y1="375" x2="875" y2="375" stroke="#222"/><line x1="60" y1="45" x2="60" y2="375" stroke="#222"/><text x="450.0" y="410" text-anchor="middle" font-family="Arial" font-size="12">Bars before checkpoint</text><text transform="translate(14 210.0) rotate(-90)" text-anchor="middle" font-family="Arial" font-size="12">Normalized price (checkpoint close=100)</text></svg>