<svg xmlns="http://www.w3.org/2000/svg" width="900" height="420" viewBox="0 0 900 420"><rect width="100%" height="100%" fill="white"/><text x="450.0" y="24" text-anchor="middle" font-family="Arial" font-size="18">G2-SV-0030 volume</text><line x1="60" y1="45.00" x2="875" y2="45.00" stroke="#ddd" stroke-width="1"/><text x="5" y="49.00" font-size="11">69.94</text><line x1="60" y1="111.00" x2="875" y2="111.00" stroke="#ddd" stroke-width="1"/><text x="5" y="115.00" font-size="11">55.95</text><line x1="60" y1="177.00" x2="875" y2="177.00" stroke="#ddd" stroke-width="1"/><text x="5" y="181.00" font-size="11">41.96</text><line x1="60" y1="243.00" x2="875" y2="243.00" stroke="#ddd" stroke-width="1"/><text x="5" y="247.00" font-size="11">27.98</text><line x1="60" y1="309.00" x2="875" y2="309.00" stroke="#ddd" stroke-width="1"/><text x="5" y="313.00" font-size="11">13.99</text><line x1="60" y1="375.00" x2="875" y2="375.00" stroke="#ddd" stroke-width="1"/><text x="5" y="379.00" font-size="11">0.00</text><polyline points="60.00,362.39 62.73,294.77 65.45,258.45 68.18,340.75 70.90,308.02 73.63,330.41 76.35,343.42 79.08,370.47 81.81,355.96 84.53,370.96 87.26,373.80 89.98,374.21 92.71,372.59 95.43,373.55 98.16,374.30 100.89,360.68 103.61,348.27 106.34,270.84 109.06,346.11 111.79,350.89 114.52,353.87 117.24,343.21 119.97,336.54 122.69,364.73 125.42,327.89 128.14,170.29 130.87,347.97 133.60,365.68 136.32,367.39 139.05,372.03 141.77,372.07 144.50,373.82 147.22,365.18 149.95,351.14 152.68,312.77 155.40,372.75 158.13,371.86 160.85,372.39 163.58,368.25 166.30,368.71 169.03,373.65 171.76,374.75 174.48,366.91 177.21,372.84 179.93,374.26 182.66,372.74 185.38,374.78 188.11,374.45 190.84,373.55 193.56,371.66 196.29,368.52 199.01,81.81 201.74,368.42 204.46,362.66 207.19,368.49 209.92,373.88 212.64,374.49 215.37,374.87 218.09,374.92 220.82,362.99 223.55,374.13 226.27,372.80 229.00,326.19 231.72,363.34 234.45,249.38 237.17,312.09 239.90,310.31 242.63,332.71 245.35,374.34 248.08,147.34 250.80,372.23 253.53,365.07 256.25,373.78 258.98,374.81 261.71,374.04 264.43,374.72 267.16,372.13 269.88,368.82 272.61,374.92 275.33,371.45 278.06,213.72 280.79,361.53 283.51,360.04 286.24,367.35 288.96,353.26 291.69,372.85 294.41,369.01 297.14,373.89 299.87,370.93 302.59,364.07 305.32,374.06 308.04,373.40 310.77,374.59 313.49,374.81 316.22,362.94 318.95,372.74 321.67,374.07 324.40,370.68 327.12,372.42 329.85,371.29 332.58,374.77 335.30,373.40 338.03,322.73 340.75,374.25 343.48,361.15 346.20,332.02 348.93,349.01 351.66,341.55 354.38,374.20 357.11,373.53 359.83,358.70 362.56,372.14 365.28,358.82 368.01,356.02 370.74,305.77 373.46,373.98 376.19,369.18 378.91,371.83 381.64,374.92 384.36,374.94 387.09,374.79 389.82,369.48 392.54,374.88 395.27,309.86 397.99,285.19 400.72,352.71 403.44,374.93 406.17,373.06 408.90,373.67 411.62,367.97 414.35,331.42 417.07,341.59 419.80,371.77 422.53,368.89 425.25,371.12 427.98,369.07 430.70,370.53 433.43,368.43 436.15,374.21 438.88,356.51 441.61,297.22 444.33,178.47 447.06,296.37 449.78,358.70 452.51,371.78 455.23,374.89 457.96,365.34 460.69,369.99 463.41,373.51 466.14,374.56 468.86,373.02 471.59,374.56 474.31,360.90 477.04,371.94 479.77,360.23 482.49,373.68 485.22,373.71 487.94,374.90 490.67,366.19 493.39,333.96 496.12,341.25 498.85,45.00 501.57,367.34 504.30,372.32 507.02,273.86 509.75,356.66 512.47,357.94 515.20,375.00 517.93,316.93 520.65,374.87 523.38,368.69 526.10,373.53 528.83,370.66 531.56,373.79 534.28,372.26 537.01,370.67 539.73,333.16 542.46,324.34 545.18,349.98 547.91,330.95 550.64,373.01 553.36,366.60 556.09,194.93 558.81,365.08 561.54,373.14 564.26,374.77 566.99,374.89 569.72,374.61 572.44,345.67 575.17,371.88 577.89,373.83 580.62,374.86 583.34,373.59 586.07,371.28 588.80,367.47 591.52,373.69 594.25,303.81 596.97,370.38 599.70,367.31 602.42,374.94 605.15,374.96 607.88,375.00 610.60,367.03 613.33,361.02 616.05,374.94 618.78,374.11 621.51,329.99 624.23,374.85 626.96,370.71 629.68,370.98 632.41,374.56 635.13,373.18 637.86,322.46 640.59,369.74 643.31,355.56 646.04,373.58 648.76,374.79 651.49,368.42 654.21,350.13 656.94,365.59 659.67,373.84 662.39,364.24 665.12,363.07 667.84,372.31 670.57,372.58 673.29,368.12 676.02,373.36 678.75,370.28 681.47,373.75 684.20,372.86 686.92,372.44 689.65,142.84 692.37,349.21 695.10,303.06 697.83,372.69 700.55,373.27 703.28,367.19 706.00,367.99 708.73,373.68 711.45,348.57 714.18,371.48 716.91,374.54 719.63,329.96 722.36,348.17 725.08,374.20 727.81,374.84 730.54,354.89 733.26,370.55 735.99,375.00 738.71,374.83 741.44,352.53 744.16,367.18 746.89,374.15 749.62,355.23 752.34,374.87 755.07,349.18 757.79,373.56 760.52,233.85 763.24,352.31 765.97,273.96 768.70,372.52 771.42,358.03 774.15,335.08 776.87,229.52 779.60,321.68 782.32,374.14 785.05,359.53 787.78,371.42 790.50,362.43 793.23,352.71 795.95,359.94 798.68,374.93 801.40,374.34 804.13,371.73 806.86,348.04 809.58,356.94 812.31,374.87 815.03,336.67 817.76,350.20 820.48,374.88 823.21,362.56 825.94,374.89 828.66,371.74 831.39,338.09 834.11,374.88 836.84,373.01 839.57,373.95 842.29,373.30 845.02,359.68 847.74,362.13 850.47,351.75 853.19,374.99 855.92,374.93 858.65,354.80 861.37,374.96 864.10,374.96 866.82,374.98 869.55,372.04 872.27,347.89 875.00,312.68" fill="none" stroke="#111" stroke-width="2"/><line x1="60" y1="375" x2="875" y2="375" stroke="#222"/><line x1="60" y1="45" x2="60" y2="375" stroke="#222"/><text x="450.0" y="410" text-anchor="middle" font-family="Arial" font-size="12">Bars before checkpoint</text><text transform="translate(14 210.0) rotate(-90)" text-anchor="middle" font-family="Arial" font-size="12">Volume / median</text></svg>