<svg xmlns="http://www.w3.org/2000/svg" width="900" height="420" viewBox="0 0 900 420"><rect width="100%" height="100%" fill="white"/><text x="450.0" y="24" text-anchor="middle" font-family="Arial" font-size="18">G2-SV-0016 4H</text><line x1="60" y1="45.00" x2="875" y2="45.00" stroke="#ddd" stroke-width="1"/><text x="5" y="49.00" font-size="11">151.84</text><line x1="60" y1="111.00" x2="875" y2="111.00" stroke="#ddd" stroke-width="1"/><text x="5" y="115.00" font-size="11">134.00</text><line x1="60" y1="177.00" x2="875" y2="177.00" stroke="#ddd" stroke-width="1"/><text x="5" y="181.00" font-size="11">116.16</text><line x1="60" y1="243.00" x2="875" y2="243.00" stroke="#ddd" stroke-width="1"/><text x="5" y="247.00" font-size="11">98.32</text><line x1="60" y1="309.00" x2="875" y2="309.00" stroke="#ddd" stroke-width="1"/><text x="5" y="313.00" font-size="11">80.48</text><line x1="60" y1="375.00" x2="875" y2="375.00" stroke="#ddd" stroke-width="1"/><text x="5" y="379.00" font-size="11">62.64</text><line x1="60.00" y1="185.66" x2="60.00" y2="171.45" stroke="#999" stroke-width="1"/><line x1="62.73" y1="184.36" x2="62.73" y2="170.44" stroke="#999" stroke-width="1"/><line x1="65.45" y1="183.64" x2="65.45" y2="172.94" stroke="#999" stroke-width="1"/><line x1="68.18" y1="183.46" x2="68.18" y2="172.46" stroke="#999" stroke-width="1"/><line x1="70.90" y1="207.67" x2="70.90" y2="177.91" stroke="#999" stroke-width="1"/><line x1="73.63" y1="226.13" x2="73.63" y2="195.22" stroke="#999" stroke-width="1"/><line x1="76.35" y1="238.60" x2="76.35" y2="201.28" stroke="#999" stroke-width="1"/><line x1="79.08" y1="223.56" x2="79.08" y2="197.31" stroke="#999" stroke-width="1"/><line x1="81.81" y1="225.85" x2="81.81" y2="207.40" stroke="#999" stroke-width="1"/><line x1="84.53" y1="245.00" x2="84.53" y2="219.94" stroke="#999" stroke-width="1"/><line x1="87.26" y1="249.06" x2="87.26" y2="221.06" stroke="#999" stroke-width="1"/><line x1="89.98" y1="237.55" x2="89.98" y2="222.46" stroke="#999" stroke-width="1"/><line x1="92.71" y1="237.96" x2="92.71" y2="212.14" stroke="#999" stroke-width="1"/><line x1="95.43" y1="247.84" x2="95.43" y2="232.11" stroke="#999" stroke-width="1"/><line x1="98.16" y1="247.77" x2="98.16" y2="230.58" stroke="#999" stroke-width="1"/><line x1="100.89" y1="246.65" x2="100.89" y2="228.15" stroke="#999" stroke-width="1"/><line x1="103.61" y1="239.38" x2="103.61" y2="228.95" stroke="#999" stroke-width="1"/><line x1="106.34" y1="244.84" x2="106.34" y2="235.28" stroke="#999" stroke-width="1"/><line x1="109.06" y1="242.82" x2="109.06" y2="233.54" stroke="#999" stroke-width="1"/><line x1="111.79" y1="238.88" x2="111.79" y2="230.21" stroke="#999" stroke-width="1"/><line x1="114.52" y1="241.06" x2="114.52" y2="231.79" stroke="#999" stroke-width="1"/><line x1="117.24" y1="258.34" x2="117.24" y2="234.29" stroke="#999" stroke-width="1"/><line x1="119.97" y1="260.52" x2="119.97" y2="251.67" stroke="#999" stroke-width="1"/><line x1="122.69" y1="254.33" x2="122.69" y2="247.75" stroke="#999" stroke-width="1"/><line x1="125.42" y1="252.66" x2="125.42" y2="240.64" stroke="#999" stroke-width="1"/><line x1="128.14" y1="259.05" x2="128.14" y2="246.37" stroke="#999" stroke-width="1"/><line x1="130.87" y1="256.67" x2="130.87" y2="245.21" stroke="#999" stroke-width="1"/><line x1="133.60" y1="253.25" x2="133.60" y2="204.94" stroke="#999" stroke-width="1"/><line x1="136.32" y1="235.78" x2="136.32" y2="220.60" stroke="#999" stroke-width="1"/><line x1="139.05" y1="242.94" x2="139.05" y2="224.50" stroke="#999" stroke-width="1"/><line x1="141.77" y1="262.81" x2="141.77" y2="227.09" stroke="#999" stroke-width="1"/><line x1="144.50" y1="228.56" x2="144.50" y2="194.05" stroke="#999" stroke-width="1"/><line x1="147.22" y1="218.24" x2="147.22" y2="195.98" stroke="#999" stroke-width="1"/><line x1="149.95" y1="209.25" x2="149.95" y2="183.12" stroke="#999" stroke-width="1"/><line x1="152.68" y1="214.53" x2="152.68" y2="191.69" stroke="#999" stroke-width="1"/><line x1="155.40" y1="208.41" x2="155.40" y2="179.68" stroke="#999" stroke-width="1"/><line x1="158.13" y1="222.14" x2="158.13" y2="192.70" stroke="#999" stroke-width="1"/><line x1="160.85" y1="209.55" x2="160.85" y2="189.49" stroke="#999" stroke-width="1"/><line x1="163.58" y1="208.87" x2="163.58" y2="199.44" stroke="#999" stroke-width="1"/><line x1="166.30" y1="216.27" x2="166.30" y2="194.63" stroke="#999" stroke-width="1"/><line x1="169.03" y1="218.79" x2="169.03" y2="207.17" stroke="#999" stroke-width="1"/><line x1="171.76" y1="216.68" x2="171.76" y2="203.84" stroke="#999" stroke-width="1"/><line x1="174.48" y1="225.88" x2="174.48" y2="194.28" stroke="#999" stroke-width="1"/><line x1="177.21" y1="244.47" x2="177.21" y2="223.84" stroke="#999" stroke-width="1"/><line x1="179.93" y1="254.58" x2="179.93" y2="237.18" stroke="#999" stroke-width="1"/><line x1="182.66" y1="250.57" x2="182.66" y2="241.70" stroke="#999" stroke-width="1"/><line x1="185.38" y1="250.98" x2="185.38" y2="237.23" stroke="#999" stroke-width="1"/><line x1="188.11" y1="246.31" x2="188.11" y2="230.76" stroke="#999" stroke-width="1"/><line x1="190.84" y1="250.30" x2="190.84" y2="231.29" stroke="#999" stroke-width="1"/><line x1="193.56" y1="243.07" x2="193.56" y2="234.98" stroke="#999" stroke-width="1"/><line x1="196.29" y1="238.65" x2="196.29" y2="221.54" stroke="#999" stroke-width="1"/><line x1="199.01" y1="239.15" x2="199.01" y2="229.82" stroke="#999" stroke-width="1"/><line x1="201.74" y1="244.36" x2="201.74" y2="231.95" stroke="#999" stroke-width="1"/><line x1="204.46" y1="262.81" x2="204.46" y2="236.01" stroke="#999" stroke-width="1"/><line x1="207.19" y1="261.39" x2="207.19" y2="254.08" stroke="#999" stroke-width="1"/><line x1="209.92" y1="262.49" x2="209.92" y2="253.64" stroke="#999" stroke-width="1"/><line x1="212.64" y1="258.37" x2="212.64" y2="241.31" stroke="#999" stroke-width="1"/><line x1="215.37" y1="266.35" x2="215.37" y2="253.44" stroke="#999" stroke-width="1"/><line x1="218.09" y1="265.63" x2="218.09" y2="248.92" stroke="#999" stroke-width="1"/><line x1="220.82" y1="252.73" x2="220.82" y2="246.24" stroke="#999" stroke-width="1"/><line x1="223.55" y1="257.17" x2="223.55" y2="245.21" stroke="#999" stroke-width="1"/><line x1="226.27" y1="251.03" x2="226.27" y2="240.62" stroke="#999" stroke-width="1"/><line x1="229.00" y1="249.06" x2="229.00" y2="234.18" stroke="#999" stroke-width="1"/><line x1="231.72" y1="252.22" x2="231.72" y2="235.87" stroke="#999" stroke-width="1"/><line x1="234.45" y1="249.93" x2="234.45" y2="243.92" stroke="#999" stroke-width="1"/><line x1="237.17" y1="249.68" x2="237.17" y2="242.82" stroke="#999" stroke-width="1"/><line x1="239.90" y1="248.92" x2="239.90" y2="240.62" stroke="#999" stroke-width="1"/><line x1="242.63" y1="241.72" x2="242.63" y2="221.93" stroke="#999" stroke-width="1"/><line x1="245.35" y1="242.06" x2="245.35" y2="229.29" stroke="#999" stroke-width="1"/><line x1="248.08" y1="240.28" x2="248.08" y2="219.23" stroke="#999" stroke-width="1"/><line x1="250.80" y1="228.35" x2="250.80" y2="215.74" stroke="#999" stroke-width="1"/><line x1="253.53" y1="219.82" x2="253.53" y2="211.25" stroke="#999" stroke-width="1"/><line x1="256.25" y1="228.12" x2="256.25" y2="213.31" stroke="#999" stroke-width="1"/><line x1="258.98" y1="228.26" x2="258.98" y2="218.54" stroke="#999" stroke-width="1"/><line x1="261.71" y1="231.45" x2="261.71" y2="212.79" stroke="#999" stroke-width="1"/><line x1="264.43" y1="255.16" x2="264.43" y2="213.54" stroke="#999" stroke-width="1"/><line x1="267.16" y1="248.28" x2="267.16" y2="239.38" stroke="#999" stroke-width="1"/><line x1="269.88" y1="250.91" x2="269.88" y2="241.33" stroke="#999" stroke-width="1"/><line x1="272.61" y1="252.24" x2="272.61" y2="233.42" stroke="#999" stroke-width="1"/><line x1="275.33" y1="248.76" x2="275.33" y2="221.87" stroke="#999" stroke-width="1"/><line x1="278.06" y1="232.82" x2="278.06" y2="194.63" stroke="#999" stroke-width="1"/><line x1="280.79" y1="227.51" x2="280.79" y2="199.21" stroke="#999" stroke-width="1"/><line x1="283.51" y1="222.69" x2="283.51" y2="198.94" stroke="#999" stroke-width="1"/><line x1="286.24" y1="211.20" x2="286.24" y2="181.10" stroke="#999" stroke-width="1"/><line x1="288.96" y1="218.49" x2="288.96" y2="191.44" stroke="#999" stroke-width="1"/><line x1="291.69" y1="207.60" x2="291.69" y2="187.91" stroke="#999" stroke-width="1"/><line x1="294.41" y1="217.88" x2="294.41" y2="201.90" stroke="#999" stroke-width="1"/><line x1="297.14" y1="228.24" x2="297.14" y2="214.44" stroke="#999" stroke-width="1"/><line x1="299.87" y1="218.56" x2="299.87" y2="202.03" stroke="#999" stroke-width="1"/><line x1="302.59" y1="215.47" x2="302.59" y2="203.00" stroke="#999" stroke-width="1"/><line x1="305.32" y1="221.68" x2="305.32" y2="197.88" stroke="#999" stroke-width="1"/><line x1="308.04" y1="243.67" x2="308.04" y2="216.50" stroke="#999" stroke-width="1"/><line x1="310.77" y1="243.69" x2="310.77" y2="227.99" stroke="#999" stroke-width="1"/><line x1="313.49" y1="249.97" x2="313.49" y2="236.45" stroke="#999" stroke-width="1"/><line x1="316.22" y1="245.39" x2="316.22" y2="237.98" stroke="#999" stroke-width="1"/><line x1="318.95" y1="248.69" x2="318.95" y2="241.03" stroke="#999" stroke-width="1"/><line x1="321.67" y1="259.90" x2="321.67" y2="239.79" stroke="#999" stroke-width="1"/><line x1="324.40" y1="267.88" x2="324.40" y2="254.35" stroke="#999" stroke-width="1"/><line x1="327.12" y1="264.47" x2="327.12" y2="256.67" stroke="#999" stroke-width="1"/><line x1="329.85" y1="265.20" x2="329.85" y2="257.29" stroke="#999" stroke-width="1"/><line x1="332.58" y1="262.52" x2="332.58" y2="257.27" stroke="#999" stroke-width="1"/><line x1="335.30" y1="297.57" x2="335.30" y2="257.04" stroke="#999" stroke-width="1"/><line x1="338.03" y1="313.21" x2="338.03" y2="284.16" stroke="#999" stroke-width="1"/><line x1="340.75" y1="315.85" x2="340.75" y2="299.25" stroke="#999" stroke-width="1"/><line x1="343.48" y1="312.25" x2="343.48" y2="302.41" stroke="#999" stroke-width="1"/><line x1="346.20" y1="335.70" x2="346.20" y2="305.09" stroke="#999" stroke-width="1"/><line x1="348.93" y1="337.40" x2="348.93" y2="319.65" stroke="#999" stroke-width="1"/><line x1="351.66" y1="331.60" x2="351.66" y2="315.55" stroke="#999" stroke-width="1"/><line x1="354.38" y1="336.44" x2="354.38" y2="304.36" stroke="#999" stroke-width="1"/><line x1="357.11" y1="317.75" x2="357.11" y2="305.25" stroke="#999" stroke-width="1"/><line x1="359.83" y1="334.35" x2="359.83" y2="314.75" stroke="#999" stroke-width="1"/><line x1="362.56" y1="360.26" x2="362.56" y2="326.78" stroke="#999" stroke-width="1"/><line x1="365.28" y1="367.18" x2="365.28" y2="340.06" stroke="#999" stroke-width="1"/><line x1="368.01" y1="375.00" x2="368.01" y2="349.62" stroke="#999" stroke-width="1"/><line x1="370.74" y1="360.44" x2="370.74" y2="319.61" stroke="#999" stroke-width="1"/><line x1="373.46" y1="332.08" x2="373.46" y2="286.75" stroke="#999" stroke-width="1"/><line x1="376.19" y1="336.60" x2="376.19" y2="306.79" stroke="#999" stroke-width="1"/><line x1="378.91" y1="336.92" x2="378.91" y2="301.26" stroke="#999" stroke-width="1"/><line x1="381.64" y1="314.86" x2="381.64" y2="288.26" stroke="#999" stroke-width="1"/><line x1="384.36" y1="329.05" x2="384.36" y2="301.72" stroke="#999" stroke-width="1"/><line x1="387.09" y1="328.71" x2="387.09" y2="298.31" stroke="#999" stroke-width="1"/><line x1="389.82" y1="315.41" x2="389.82" y2="298.01" stroke="#999" stroke-width="1"/><line x1="392.54" y1="319.24" x2="392.54" y2="298.70" stroke="#999" stroke-width="1"/><line x1="395.27" y1="310.96" x2="395.27" y2="286.82" stroke="#999" stroke-width="1"/><line x1="397.99" y1="332.08" x2="397.99" y2="308.83" stroke="#999" stroke-width="1"/><line x1="400.72" y1="328.57" x2="400.72" y2="290.33" stroke="#999" stroke-width="1"/><line x1="403.44" y1="300.85" x2="403.44" y2="276.62" stroke="#999" stroke-width="1"/><line x1="406.17" y1="307.66" x2="406.17" y2="255.75" stroke="#999" stroke-width="1"/><line x1="408.90" y1="273.43" x2="408.90" y2="247.98" stroke="#999" stroke-width="1"/><line x1="411.62" y1="266.28" x2="411.62" y2="246.76" stroke="#999" stroke-width="1"/><line x1="414.35" y1="291.38" x2="414.35" y2="260.96" stroke="#999" stroke-width="1"/><line x1="417.07" y1="306.79" x2="417.07" y2="284.87" stroke="#999" stroke-width="1"/><line x1="419.80" y1="308.44" x2="419.80" y2="259.49" stroke="#999" stroke-width="1"/><line x1="422.53" y1="279.35" x2="422.53" y2="234.15" stroke="#999" stroke-width="1"/><line x1="425.25" y1="303.44" x2="425.25" y2="266.67" stroke="#999" stroke-width="1"/><line x1="427.98" y1="302.11" x2="427.98" y2="288.70" stroke="#999" stroke-width="1"/><line x1="430.70" y1="300.74" x2="430.70" y2="271.82" stroke="#999" stroke-width="1"/><line x1="433.43" y1="287.78" x2="433.43" y2="269.39" stroke="#999" stroke-width="1"/><line x1="436.15" y1="295.05" x2="436.15" y2="276.11" stroke="#999" stroke-width="1"/><line x1="438.88" y1="294.73" x2="438.88" y2="285.97" stroke="#999" stroke-width="1"/><line x1="441.61" y1="294.91" x2="441.61" y2="273.59" stroke="#999" stroke-width="1"/><line x1="444.33" y1="299.34" x2="444.33" y2="278.66" stroke="#999" stroke-width="1"/><line x1="447.06" y1="324.58" x2="447.06" y2="287.69" stroke="#999" stroke-width="1"/><line x1="449.78" y1="328.53" x2="449.78" y2="310.00" stroke="#999" stroke-width="1"/><line x1="452.51" y1="316.30" x2="452.51" y2="288.84" stroke="#999" stroke-width="1"/><line x1="455.23" y1="310.96" x2="455.23" y2="285.74" stroke="#999" stroke-width="1"/><line x1="457.96" y1="321.10" x2="457.96" y2="267.01" stroke="#999" stroke-width="1"/><line x1="460.69" y1="273.32" x2="460.69" y2="244.86" stroke="#999" stroke-width="1"/><line x1="463.41" y1="279.83" x2="463.41" y2="249.95" stroke="#999" stroke-width="1"/><line x1="466.14" y1="262.31" x2="466.14" y2="225.46" stroke="#999" stroke-width="1"/><line x1="468.86" y1="250.50" x2="468.86" y2="228.17" stroke="#999" stroke-width="1"/><line x1="471.59" y1="247.96" x2="471.59" y2="213.52" stroke="#999" stroke-width="1"/><line x1="474.31" y1="226.43" x2="474.31" y2="198.16" stroke="#999" stroke-width="1"/><line x1="477.04" y1="239.68" x2="477.04" y2="201.07" stroke="#999" stroke-width="1"/><line x1="479.77" y1="242.45" x2="479.77" y2="215.90" stroke="#999" stroke-width="1"/><line x1="482.49" y1="229.57" x2="482.49" y2="207.90" stroke="#999" stroke-width="1"/><line x1="485.22" y1="230.14" x2="485.22" y2="210.93" stroke="#999" stroke-width="1"/><line x1="487.94" y1="244.15" x2="487.94" y2="220.31" stroke="#999" stroke-width="1"/><line x1="490.67" y1="242.94" x2="490.67" y2="225.19" stroke="#999" stroke-width="1"/><line x1="493.39" y1="242.29" x2="493.39" y2="226.36" stroke="#999" stroke-width="1"/><line x1="496.12" y1="228.63" x2="496.12" y2="158.19" stroke="#999" stroke-width="1"/><line x1="498.85" y1="196.32" x2="498.85" y2="173.58" stroke="#999" stroke-width="1"/><line x1="501.57" y1="192.88" x2="501.57" y2="147.26" stroke="#999" stroke-width="1"/><line x1="504.30" y1="194.03" x2="504.30" y2="147.01" stroke="#999" stroke-width="1"/><line x1="507.02" y1="211.98" x2="507.02" y2="188.30" stroke="#999" stroke-width="1"/><line x1="509.75" y1="213.43" x2="509.75" y2="174.22" stroke="#999" stroke-width="1"/><line x1="512.47" y1="223.33" x2="512.47" y2="195.84" stroke="#999" stroke-width="1"/><line x1="515.20" y1="223.84" x2="515.20" y2="197.93" stroke="#999" stroke-width="1"/><line x1="517.93" y1="215.51" x2="517.93" y2="189.90" stroke="#999" stroke-width="1"/><line x1="520.65" y1="222.69" x2="520.65" y2="169.27" stroke="#999" stroke-width="1"/><line x1="523.38" y1="199.85" x2="523.38" y2="148.40" stroke="#999" stroke-width="1"/><line x1="526.10" y1="189.65" x2="526.10" y2="149.34" stroke="#999" stroke-width="1"/><line x1="528.83" y1="171.40" x2="528.83" y2="131.67" stroke="#999" stroke-width="1"/><line x1="531.56" y1="152.76" x2="531.56" y2="136.62" stroke="#999" stroke-width="1"/><line x1="534.28" y1="170.30" x2="534.28" y2="146.52" stroke="#999" stroke-width="1"/><line x1="537.01" y1="169.20" x2="537.01" y2="136.21" stroke="#999" stroke-width="1"/><line x1="539.73" y1="148.15" x2="539.73" y2="102.55" stroke="#999" stroke-width="1"/><line x1="542.46" y1="124.70" x2="542.46" y2="79.39" stroke="#999" stroke-width="1"/><line x1="545.18" y1="123.80" x2="545.18" y2="85.15" stroke="#999" stroke-width="1"/><line x1="547.91" y1="118.51" x2="547.91" y2="84.00" stroke="#999" stroke-width="1"/><line x1="550.64" y1="99.80" x2="550.64" y2="45.00" stroke="#999" stroke-width="1"/><line x1="553.36" y1="103.47" x2="553.36" y2="67.93" stroke="#999" stroke-width="1"/><line x1="556.09" y1="102.11" x2="556.09" y2="75.40" stroke="#999" stroke-width="1"/><line x1="558.81" y1="112.00" x2="558.81" y2="89.37" stroke="#999" stroke-width="1"/><line x1="561.54" y1="108.19" x2="561.54" y2="90.90" stroke="#999" stroke-width="1"/><line x1="564.26" y1="107.68" x2="564.26" y2="92.07" stroke="#999" stroke-width="1"/><line x1="566.99" y1="133.64" x2="566.99" y2="100.49" stroke="#999" stroke-width="1"/><line x1="569.72" y1="138.25" x2="569.72" y2="119.72" stroke="#999" stroke-width="1"/><line x1="572.44" y1="129.70" x2="572.44" y2="104.43" stroke="#999" stroke-width="1"/><line x1="575.17" y1="132.35" x2="575.17" y2="109.79" stroke="#999" stroke-width="1"/><line x1="577.89" y1="138.00" x2="577.89" y2="120.36" stroke="#999" stroke-width="1"/><line x1="580.62" y1="137.26" x2="580.62" y2="117.80" stroke="#999" stroke-width="1"/><line x1="583.34" y1="123.92" x2="583.34" y2="90.33" stroke="#999" stroke-width="1"/><line x1="586.07" y1="110.28" x2="586.07" y2="77.14" stroke="#999" stroke-width="1"/><line x1="588.80" y1="159.11" x2="588.80" y2="83.95" stroke="#999" stroke-width="1"/><line x1="591.52" y1="155.24" x2="591.52" y2="133.48" stroke="#999" stroke-width="1"/><line x1="594.25" y1="156.18" x2="594.25" y2="131.92" stroke="#999" stroke-width="1"/><line x1="596.97" y1="144.83" x2="596.97" y2="128.98" stroke="#999" stroke-width="1"/><line x1="599.70" y1="167.11" x2="599.70" y2="140.65" stroke="#999" stroke-width="1"/><line x1="602.42" y1="174.40" x2="602.42" y2="157.94" stroke="#999" stroke-width="1"/><line x1="605.15" y1="172.16" x2="605.15" y2="154.53" stroke="#999" stroke-width="1"/><line x1="607.88" y1="190.50" x2="607.88" y2="163.22" stroke="#999" stroke-width="1"/><line x1="610.60" y1="181.05" x2="610.60" y2="150.61" stroke="#999" stroke-width="1"/><line x1="613.33" y1="164.50" x2="613.33" y2="148.95" stroke="#999" stroke-width="1"/><line x1="616.05" y1="173.65" x2="616.05" y2="154.34" stroke="#999" stroke-width="1"/><line x1="618.78" y1="184.17" x2="618.78" y2="162.30" stroke="#999" stroke-width="1"/><line x1="621.51" y1="189.51" x2="621.51" y2="168.60" stroke="#999" stroke-width="1"/><line x1="624.23" y1="184.95" x2="624.23" y2="168.72" stroke="#999" stroke-width="1"/><line x1="626.96" y1="208.09" x2="626.96" y2="175.69" stroke="#999" stroke-width="1"/><line x1="629.68" y1="205.43" x2="629.68" y2="189.03" stroke="#999" stroke-width="1"/><line x1="632.41" y1="205.88" x2="632.41" y2="187.84" stroke="#999" stroke-width="1"/><line x1="635.13" y1="219.25" x2="635.13" y2="193.62" stroke="#999" stroke-width="1"/><line x1="637.86" y1="213.89" x2="637.86" y2="195.02" stroke="#999" stroke-width="1"/><line x1="640.59" y1="229.09" x2="640.59" y2="202.97" stroke="#999" stroke-width="1"/><line x1="643.31" y1="244.47" x2="643.31" y2="215.79" stroke="#999" stroke-width="1"/><line x1="646.04" y1="253.85" x2="646.04" y2="237.27" stroke="#999" stroke-width="1"/><line x1="648.76" y1="250.02" x2="648.76" y2="227.76" stroke="#999" stroke-width="1"/><line x1="651.49" y1="248.30" x2="651.49" y2="225.44" stroke="#999" stroke-width="1"/><line x1="654.21" y1="252.50" x2="654.21" y2="222.58" stroke="#999" stroke-width="1"/><line x1="656.94" y1="232.34" x2="656.94" y2="206.27" stroke="#999" stroke-width="1"/><line x1="659.67" y1="239.98" x2="659.67" y2="226.43" stroke="#999" stroke-width="1"/><line x1="662.39" y1="245.78" x2="662.39" y2="220.31" stroke="#999" stroke-width="1"/><line x1="665.12" y1="248.00" x2="665.12" y2="233.70" stroke="#999" stroke-width="1"/><line x1="667.84" y1="251.76" x2="667.84" y2="233.58" stroke="#999" stroke-width="1"/><line x1="670.57" y1="262.03" x2="670.57" y2="239.70" stroke="#999" stroke-width="1"/><line x1="673.29" y1="269.78" x2="673.29" y2="254.08" stroke="#999" stroke-width="1"/><line x1="676.02" y1="266.48" x2="676.02" y2="257.63" stroke="#999" stroke-width="1"/><line x1="678.75" y1="267.90" x2="678.75" y2="259.93" stroke="#999" stroke-width="1"/><line x1="681.47" y1="264.28" x2="681.47" y2="250.59" stroke="#999" stroke-width="1"/><line x1="684.20" y1="257.75" x2="684.20" y2="240.21" stroke="#999" stroke-width="1"/><line x1="686.92" y1="250.32" x2="686.92" y2="241.19" stroke="#999" stroke-width="1"/><line x1="689.65" y1="256.92" x2="689.65" y2="247.04" stroke="#999" stroke-width="1"/><line x1="692.37" y1="265.11" x2="692.37" y2="249.10" stroke="#999" stroke-width="1"/><line x1="695.10" y1="263.66" x2="695.10" y2="253.53" stroke="#999" stroke-width="1"/><line x1="697.83" y1="259.93" x2="697.83" y2="251.76" stroke="#999" stroke-width="1"/><line x1="700.55" y1="259.83" x2="700.55" y2="241.47" stroke="#999" stroke-width="1"/><line x1="703.28" y1="249.70" x2="703.28" y2="236.81" stroke="#999" stroke-width="1"/><line x1="706.00" y1="253.64" x2="706.00" y2="233.15" stroke="#999" stroke-width="1"/><line x1="708.73" y1="248.69" x2="708.73" y2="239.20" stroke="#999" stroke-width="1"/><line x1="711.45" y1="243.55" x2="711.45" y2="219.71" stroke="#999" stroke-width="1"/><line x1="714.18" y1="230.74" x2="714.18" y2="206.21" stroke="#999" stroke-width="1"/><line x1="716.91" y1="219.60" x2="716.91" y2="209.37" stroke="#999" stroke-width="1"/><line x1="719.63" y1="222.39" x2="719.63" y2="191.83" stroke="#999" stroke-width="1"/><line x1="722.36" y1="204.12" x2="722.36" y2="187.01" stroke="#999" stroke-width="1"/><line x1="725.08" y1="207.31" x2="725.08" y2="192.79" stroke="#999" stroke-width="1"/><line x1="727.81" y1="226.13" x2="727.81" y2="204.44" stroke="#999" stroke-width="1"/><line x1="730.54" y1="234.11" x2="730.54" y2="218.33" stroke="#999" stroke-width="1"/><line x1="733.26" y1="226.82" x2="733.26" y2="199.65" stroke="#999" stroke-width="1"/><line x1="735.99" y1="207.21" x2="735.99" y2="176.22" stroke="#999" stroke-width="1"/><line x1="738.71" y1="201.30" x2="738.71" y2="179.72" stroke="#999" stroke-width="1"/><line x1="741.44" y1="196.23" x2="741.44" y2="177.27" stroke="#999" stroke-width="1"/><line x1="744.16" y1="188.46" x2="744.16" y2="177.71" stroke="#999" stroke-width="1"/><line x1="746.89" y1="198.02" x2="746.89" y2="182.75" stroke="#999" stroke-width="1"/><line x1="749.62" y1="195.29" x2="749.62" y2="185.50" stroke="#999" stroke-width="1"/><line x1="752.34" y1="189.65" x2="752.34" y2="169.52" stroke="#999" stroke-width="1"/><line x1="755.07" y1="184.86" x2="755.07" y2="169.96" stroke="#999" stroke-width="1"/><line x1="757.79" y1="189.45" x2="757.79" y2="170.92" stroke="#999" stroke-width="1"/><line x1="760.52" y1="188.94" x2="760.52" y2="178.00" stroke="#999" stroke-width="1"/><line x1="763.24" y1="192.20" x2="763.24" y2="166.52" stroke="#999" stroke-width="1"/><line x1="765.97" y1="183.99" x2="765.97" y2="158.17" stroke="#999" stroke-width="1"/><line x1="768.70" y1="175.07" x2="768.70" y2="161.27" stroke="#999" stroke-width="1"/><line x1="771.42" y1="175.41" x2="771.42" y2="154.59" stroke="#999" stroke-width="1"/><line x1="774.15" y1="174.11" x2="774.15" y2="162.80" stroke="#999" stroke-width="1"/><line x1="776.87" y1="189.63" x2="776.87" y2="162.39" stroke="#999" stroke-width="1"/><line x1="779.60" y1="194.65" x2="779.60" y2="177.13" stroke="#999" stroke-width="1"/><line x1="782.32" y1="188.73" x2="782.32" y2="179.56" stroke="#999" stroke-width="1"/><line x1="785.05" y1="193.37" x2="785.05" y2="174.66" stroke="#999" stroke-width="1"/><line x1="787.78" y1="202.58" x2="787.78" y2="185.30" stroke="#999" stroke-width="1"/><line x1="790.50" y1="195.59" x2="790.50" y2="187.43" stroke="#999" stroke-width="1"/><line x1="793.23" y1="190.59" x2="793.23" y2="178.21" stroke="#999" stroke-width="1"/><line x1="795.95" y1="189.65" x2="795.95" y2="182.11" stroke="#999" stroke-width="1"/><line x1="798.68" y1="188.92" x2="798.68" y2="171.45" stroke="#999" stroke-width="1"/><line x1="801.40" y1="183.78" x2="801.40" y2="155.76" stroke="#999" stroke-width="1"/><line x1="804.13" y1="174.06" x2="804.13" y2="153.22" stroke="#999" stroke-width="1"/><line x1="806.86" y1="176.47" x2="806.86" y2="165.37" stroke="#999" stroke-width="1"/><line x1="809.58" y1="190.02" x2="809.58" y2="170.94" stroke="#999" stroke-width="1"/><line x1="812.31" y1="209.07" x2="812.31" y2="182.89" stroke="#999" stroke-width="1"/><line x1="815.03" y1="208.59" x2="815.03" y2="195.70" stroke="#999" stroke-width="1"/><line x1="817.76" y1="201.39" x2="817.76" y2="191.76" stroke="#999" stroke-width="1"/><line x1="820.48" y1="219.55" x2="820.48" y2="197.58" stroke="#999" stroke-width="1"/><line x1="823.21" y1="219.37" x2="823.21" y2="208.31" stroke="#999" stroke-width="1"/><line x1="825.94" y1="217.26" x2="825.94" y2="207.40" stroke="#999" stroke-width="1"/><line x1="828.66" y1="214.94" x2="828.66" y2="199.17" stroke="#999" stroke-width="1"/><line x1="831.39" y1="214.71" x2="831.39" y2="201.55" stroke="#999" stroke-width="1"/><line x1="834.11" y1="249.06" x2="834.11" y2="208.15" stroke="#999" stroke-width="1"/><line x1="836.84" y1="249.06" x2="836.84" y2="239.29" stroke="#999" stroke-width="1"/><line x1="839.57" y1="250.96" x2="839.57" y2="242.41" stroke="#999" stroke-width="1"/><line x1="842.29" y1="253.09" x2="842.29" y2="240.62" stroke="#999" stroke-width="1"/><line x1="845.02" y1="243.83" x2="845.02" y2="224.18" stroke="#999" stroke-width="1"/><line x1="847.74" y1="244.70" x2="847.74" y2="228.33" stroke="#999" stroke-width="1"/><line x1="850.47" y1="251.21" x2="850.47" y2="235.14" stroke="#999" stroke-width="1"/><line x1="853.19" y1="251.24" x2="853.19" y2="243.62" stroke="#999" stroke-width="1"/><line x1="855.92" y1="247.54" x2="855.92" y2="236.56" stroke="#999" stroke-width="1"/><line x1="858.65" y1="238.40" x2="858.65" y2="231.43" stroke="#999" stroke-width="1"/><line x1="861.37" y1="263.87" x2="861.37" y2="228.42" stroke="#999" stroke-width="1"/><line x1="864.10" y1="250.94" x2="864.10" y2="235.67" stroke="#999" stroke-width="1"/><line x1="866.82" y1="245.50" x2="866.82" y2="222.35" stroke="#999" stroke-width="1"/><line x1="869.55" y1="227.02" x2="869.55" y2="219.23" stroke="#999" stroke-width="1"/><line x1="872.27" y1="237.82" x2="872.27" y2="224.98" stroke="#999" stroke-width="1"/><line x1="875.00" y1="242.18" x2="875.00" y2="231.68" stroke="#999" stroke-width="1"/><polyline points="60.00,176.81 62.73,178.30 65.45,182.13 68.18,179.31 70.90,195.34 73.63,222.39 76.35,206.50 79.08,223.17 81.81,224.75 84.53,222.46 87.26,233.05 89.98,227.37 92.71,233.51 95.43,237.34 98.16,243.42 100.89,235.64 103.61,237.69 106.34,239.89 109.06,236.63 111.79,233.47 114.52,235.37 117.24,252.54 119.97,253.44 122.69,249.45 125.42,250.71 128.14,253.85 130.87,246.67 133.60,232.76 136.32,226.66 139.05,234.36 141.77,228.72 144.50,214.05 147.22,196.71 149.95,191.72 152.68,203.78 155.40,196.37 158.13,197.49 160.85,205.10 163.58,203.82 166.30,210.75 169.03,215.47 171.76,207.99 174.48,223.63 177.21,237.71 179.93,242.39 182.66,248.94 185.38,240.00 188.11,233.03 190.84,238.26 193.56,239.70 196.29,231.15 199.01,235.25 201.74,241.56 204.46,257.52 207.19,258.50 209.92,256.26 212.64,255.61 215.37,265.43 218.09,252.77 220.82,249.17 223.55,248.64 226.27,241.90 229.00,238.10 231.72,245.96 234.45,246.60 237.17,244.91 239.90,241.35 242.63,232.55 245.35,237.71 248.08,222.90 250.80,216.59 253.53,218.82 256.25,219.82 258.98,222.12 261.71,213.27 264.43,241.01 267.16,241.33 269.88,248.46 272.61,239.47 275.33,224.98 278.06,217.58 280.79,221.38 283.51,200.63 286.24,207.79 288.96,192.86 291.69,203.20 294.41,215.70 297.14,215.42 299.87,204.92 302.59,215.01 305.32,217.30 308.04,241.97 310.77,237.07 313.49,238.56 316.22,243.37 318.95,243.78 321.67,253.92 324.40,261.94 327.12,263.52 329.85,262.65 332.58,258.02 335.30,295.39 338.03,310.48 340.75,306.01 343.48,308.28 346.20,328.46 348.93,320.87 351.66,327.29 354.38,306.19 357.11,316.12 359.83,333.68 362.56,349.76 365.28,363.97 368.01,357.28 370.74,323.73 373.46,331.35 376.19,306.79 378.91,305.87 381.64,302.39 384.36,326.92 387.09,301.97 389.82,300.74 392.54,300.07 395.27,310.96 397.99,324.24 400.72,290.74 403.44,292.23 406.17,270.56 408.90,248.90 411.62,263.80 414.35,289.00 417.07,293.47 419.80,271.89 422.53,274.26 425.25,294.91 427.98,300.62 430.70,272.35 433.43,283.47 436.15,289.82 438.88,291.89 441.61,289.71 444.33,293.93 447.06,318.74 449.78,313.55 452.51,295.00 455.23,310.96 457.96,269.85 460.69,264.81 463.41,252.34 466.14,235.58 468.86,229.57 471.59,219.27 474.31,204.16 477.04,237.16 479.77,227.28 482.49,211.78 485.22,220.95 487.94,232.60 490.67,235.35 493.39,226.91 496.12,188.92 498.85,190.50 501.57,161.06 504.30,193.78 507.02,202.06 509.75,208.25 512.47,221.75 515.20,206.69 517.93,210.97 520.65,177.91 523.38,184.72 526.10,171.08 528.83,148.18 531.56,149.30 534.28,162.39 537.01,138.41 539.73,109.79 542.46,92.76 545.18,108.72 547.91,90.40 550.64,80.65 553.36,95.58 556.09,95.40 558.81,99.09 561.54,100.71 564.26,104.04 566.99,128.66 569.72,124.31 572.44,116.70 575.17,127.88 577.89,124.19 580.62,119.26 583.34,94.13 586.07,96.31 588.80,153.70 591.52,137.88 594.25,137.86 596.97,143.22 599.70,160.03 602.42,164.20 605.15,169.43 607.88,180.11 610.60,156.13 613.33,161.08 616.05,170.90 618.78,178.03 621.51,181.95 624.23,179.54 626.96,198.69 629.68,200.13 632.41,193.96 635.13,203.43 637.86,210.03 640.59,220.05 643.31,241.03 646.04,241.90 648.76,234.89 651.49,240.07 654.21,225.69 656.94,230.60 659.67,228.38 662.39,242.73 665.12,241.40 667.84,248.09 670.57,256.17 673.29,265.75 676.02,265.52 678.75,263.98 681.47,253.51 684.20,245.85 686.92,249.31 689.65,253.83 692.37,258.62 695.10,256.00 697.83,258.89 700.55,243.60 703.28,240.69 706.00,244.91 708.73,243.05 711.45,222.23 714.18,209.12 716.91,215.51 719.63,195.27 722.36,198.62 725.08,204.42 727.81,225.49 730.54,224.04 733.26,207.24 735.99,189.93 738.71,186.42 741.44,181.19 744.16,187.31 746.89,195.66 749.62,191.55 752.34,176.79 755.07,178.51 757.79,186.05 760.52,181.60 763.24,173.95 765.97,163.93 768.70,171.13 771.42,164.27 774.15,167.85 776.87,186.24 779.60,180.11 782.32,183.90 785.05,192.04 787.78,194.28 790.50,188.73 793.23,187.89 795.95,185.75 798.68,182.11 801.40,170.19 804.13,169.29 806.86,174.31 809.58,185.30 812.31,204.99 815.03,197.19 817.76,197.42 820.48,208.20 823.21,216.36 825.94,212.07 828.66,208.50 831.39,209.44 834.11,239.06 836.84,248.37 839.57,244.91 842.29,242.34 845.02,235.16 847.74,244.52 850.47,251.21 853.19,248.26 855.92,236.56 858.65,233.01 861.37,245.92 864.10,244.11 866.82,224.32 869.55,226.15 872.27,236.03 875.00,236.79" fill="none" stroke="#111" stroke-width="2"/><line x1="60" y1="375" x2="875" y2="375" stroke="#222"/><line x1="60" y1="45" x2="60" y2="375" stroke="#222"/><text x="450.0" y="410" text-anchor="middle" font-family="Arial" font-size="12">Bars before checkpoint</text><text transform="translate(14 210.0) rotate(-90)" text-anchor="middle" font-family="Arial" font-size="12">Normalized price (checkpoint close=100)</text></svg>