<svg xmlns="http://www.w3.org/2000/svg" width="900" height="420" viewBox="0 0 900 420"><rect width="100%" height="100%" fill="white"/><text x="450.0" y="24" text-anchor="middle" font-family="Arial" font-size="18">G2-SV-0018 market 4H</text><line x1="60" y1="45.00" x2="875" y2="45.00" stroke="#ddd" stroke-width="1"/><text x="5" y="49.00" font-size="11">116.36</text><line x1="60" y1="111.00" x2="875" y2="111.00" stroke="#ddd" stroke-width="1"/><text x="5" y="115.00" font-size="11">111.89</text><line x1="60" y1="177.00" x2="875" y2="177.00" stroke="#ddd" stroke-width="1"/><text x="5" y="181.00" font-size="11">107.42</text><line x1="60" y1="243.00" x2="875" y2="243.00" stroke="#ddd" stroke-width="1"/><text x="5" y="247.00" font-size="11">102.95</text><line x1="60" y1="309.00" x2="875" y2="309.00" stroke="#ddd" stroke-width="1"/><text x="5" y="313.00" font-size="11">98.49</text><line x1="60" y1="375.00" x2="875" y2="375.00" stroke="#ddd" stroke-width="1"/><text x="5" y="379.00" font-size="11">94.02</text><line x1="60.00" y1="327.02" x2="60.00" y2="309.19" stroke="#999" stroke-width="1"/><line x1="62.73" y1="318.51" x2="62.73" y2="312.93" stroke="#999" stroke-width="1"/><line x1="65.45" y1="323.27" x2="65.45" y2="313.14" stroke="#999" stroke-width="1"/><line x1="68.18" y1="345.40" x2="68.18" y2="290.94" stroke="#999" stroke-width="1"/><line x1="70.90" y1="375.00" x2="70.90" y2="325.60" stroke="#999" stroke-width="1"/><line x1="73.63" y1="360.44" x2="73.63" y2="338.88" stroke="#999" stroke-width="1"/><line x1="76.35" y1="357.61" x2="76.35" y2="347.14" stroke="#999" stroke-width="1"/><line x1="79.08" y1="351.73" x2="79.08" y2="343.29" stroke="#999" stroke-width="1"/><line x1="81.81" y1="354.18" x2="81.81" y2="345.01" stroke="#999" stroke-width="1"/><line x1="84.53" y1="357.50" x2="84.53" y2="337.28" stroke="#999" stroke-width="1"/><line x1="87.26" y1="348.53" x2="87.26" y2="325.07" stroke="#999" stroke-width="1"/><line x1="89.98" y1="339.62" x2="89.98" y2="320.88" stroke="#999" stroke-width="1"/><line x1="92.71" y1="333.19" x2="92.71" y2="319.40" stroke="#999" stroke-width="1"/><line x1="95.43" y1="343.56" x2="95.43" y2="326.05" stroke="#999" stroke-width="1"/><line x1="98.16" y1="341.12" x2="98.16" y2="335.12" stroke="#999" stroke-width="1"/><line x1="100.89" y1="337.52" x2="100.89" y2="318.22" stroke="#999" stroke-width="1"/><line x1="103.61" y1="324.70" x2="103.61" y2="298.78" stroke="#999" stroke-width="1"/><line x1="106.34" y1="300.72" x2="106.34" y2="215.46" stroke="#999" stroke-width="1"/><line x1="109.06" y1="238.00" x2="109.06" y2="212.69" stroke="#999" stroke-width="1"/><line x1="111.79" y1="231.32" x2="111.79" y2="221.14" stroke="#999" stroke-width="1"/><line x1="114.52" y1="225.85" x2="114.52" y2="175.83" stroke="#999" stroke-width="1"/><line x1="117.24" y1="208.12" x2="117.24" y2="179.52" stroke="#999" stroke-width="1"/><line x1="119.97" y1="199.54" x2="119.97" y2="173.15" stroke="#999" stroke-width="1"/><line x1="122.69" y1="220.11" x2="122.69" y2="177.93" stroke="#999" stroke-width="1"/><line x1="125.42" y1="224.88" x2="125.42" y2="200.37" stroke="#999" stroke-width="1"/><line x1="128.14" y1="217.30" x2="128.14" y2="200.89" stroke="#999" stroke-width="1"/><line x1="130.87" y1="216.36" x2="130.87" y2="202.92" stroke="#999" stroke-width="1"/><line x1="133.60" y1="222.69" x2="133.60" y2="193.44" stroke="#999" stroke-width="1"/><line x1="136.32" y1="219.38" x2="136.32" y2="201.41" stroke="#999" stroke-width="1"/><line x1="139.05" y1="246.31" x2="139.05" y2="213.98" stroke="#999" stroke-width="1"/><line x1="141.77" y1="222.03" x2="141.77" y2="210.37" stroke="#999" stroke-width="1"/><line x1="144.50" y1="224.63" x2="144.50" y2="212.65" stroke="#999" stroke-width="1"/><line x1="147.22" y1="221.15" x2="147.22" y2="201.20" stroke="#999" stroke-width="1"/><line x1="149.95" y1="232.08" x2="149.95" y2="189.73" stroke="#999" stroke-width="1"/><line x1="152.68" y1="221.54" x2="152.68" y2="186.42" stroke="#999" stroke-width="1"/><line x1="155.40" y1="214.55" x2="155.40" y2="195.76" stroke="#999" stroke-width="1"/><line x1="158.13" y1="207.33" x2="158.13" y2="189.02" stroke="#999" stroke-width="1"/><line x1="160.85" y1="196.96" x2="160.85" y2="187.92" stroke="#999" stroke-width="1"/><line x1="163.58" y1="213.57" x2="163.58" y2="192.64" stroke="#999" stroke-width="1"/><line x1="166.30" y1="218.75" x2="166.30" y2="196.76" stroke="#999" stroke-width="1"/><line x1="169.03" y1="212.93" x2="169.03" y2="193.77" stroke="#999" stroke-width="1"/><line x1="171.76" y1="236.83" x2="171.76" y2="193.09" stroke="#999" stroke-width="1"/><line x1="174.48" y1="244.27" x2="174.48" y2="218.18" stroke="#999" stroke-width="1"/><line x1="177.21" y1="225.01" x2="177.21" y2="213.94" stroke="#999" stroke-width="1"/><line x1="179.93" y1="233.62" x2="179.93" y2="216.36" stroke="#999" stroke-width="1"/><line x1="182.66" y1="243.05" x2="182.66" y2="216.00" stroke="#999" stroke-width="1"/><line x1="185.38" y1="231.10" x2="185.38" y2="215.00" stroke="#999" stroke-width="1"/><line x1="188.11" y1="215.45" x2="188.11" y2="142.54" stroke="#999" stroke-width="1"/><line x1="190.84" y1="195.27" x2="190.84" y2="179.07" stroke="#999" stroke-width="1"/><line x1="193.56" y1="204.58" x2="193.56" y2="185.24" stroke="#999" stroke-width="1"/><line x1="196.29" y1="208.20" x2="196.29" y2="195.47" stroke="#999" stroke-width="1"/><line x1="199.01" y1="206.29" x2="199.01" y2="181.59" stroke="#999" stroke-width="1"/><line x1="201.74" y1="208.01" x2="201.74" y2="191.37" stroke="#999" stroke-width="1"/><line x1="204.46" y1="200.53" x2="204.46" y2="187.60" stroke="#999" stroke-width="1"/><line x1="207.19" y1="230.19" x2="207.19" y2="193.37" stroke="#999" stroke-width="1"/><line x1="209.92" y1="214.51" x2="209.92" y2="191.52" stroke="#999" stroke-width="1"/><line x1="212.64" y1="204.99" x2="212.64" y2="192.68" stroke="#999" stroke-width="1"/><line x1="215.37" y1="209.14" x2="215.37" y2="188.66" stroke="#999" stroke-width="1"/><line x1="218.09" y1="203.33" x2="218.09" y2="179.06" stroke="#999" stroke-width="1"/><line x1="220.82" y1="201.61" x2="220.82" y2="164.30" stroke="#999" stroke-width="1"/><line x1="223.55" y1="195.34" x2="223.55" y2="185.90" stroke="#999" stroke-width="1"/><line x1="226.27" y1="201.32" x2="226.27" y2="189.48" stroke="#999" stroke-width="1"/><line x1="229.00" y1="205.13" x2="229.00" y2="197.49" stroke="#999" stroke-width="1"/><line x1="231.72" y1="206.50" x2="231.72" y2="195.65" stroke="#999" stroke-width="1"/><line x1="234.45" y1="199.81" x2="234.45" y2="194.93" stroke="#999" stroke-width="1"/><line x1="237.17" y1="202.27" x2="237.17" y2="195.74" stroke="#999" stroke-width="1"/><line x1="239.90" y1="200.27" x2="239.90" y2="164.98" stroke="#999" stroke-width="1"/><line x1="242.63" y1="188.17" x2="242.63" y2="180.54" stroke="#999" stroke-width="1"/><line x1="245.35" y1="187.83" x2="245.35" y2="156.30" stroke="#999" stroke-width="1"/><line x1="248.08" y1="174.37" x2="248.08" y2="154.09" stroke="#999" stroke-width="1"/><line x1="250.80" y1="166.04" x2="250.80" y2="133.34" stroke="#999" stroke-width="1"/><line x1="253.53" y1="156.44" x2="253.53" y2="136.74" stroke="#999" stroke-width="1"/><line x1="256.25" y1="159.20" x2="256.25" y2="144.13" stroke="#999" stroke-width="1"/><line x1="258.98" y1="157.36" x2="258.98" y2="146.61" stroke="#999" stroke-width="1"/><line x1="261.71" y1="198.33" x2="261.71" y2="152.73" stroke="#999" stroke-width="1"/><line x1="264.43" y1="202.09" x2="264.43" y2="178.05" stroke="#999" stroke-width="1"/><line x1="267.16" y1="224.66" x2="267.16" y2="181.79" stroke="#999" stroke-width="1"/><line x1="269.88" y1="232.36" x2="269.88" y2="209.22" stroke="#999" stroke-width="1"/><line x1="272.61" y1="217.43" x2="272.61" y2="203.98" stroke="#999" stroke-width="1"/><line x1="275.33" y1="215.61" x2="275.33" y2="199.17" stroke="#999" stroke-width="1"/><line x1="278.06" y1="211.05" x2="278.06" y2="198.67" stroke="#999" stroke-width="1"/><line x1="280.79" y1="208.54" x2="280.79" y2="184.31" stroke="#999" stroke-width="1"/><line x1="283.51" y1="192.69" x2="283.51" y2="183.64" stroke="#999" stroke-width="1"/><line x1="286.24" y1="211.25" x2="286.24" y2="176.08" stroke="#999" stroke-width="1"/><line x1="288.96" y1="198.59" x2="288.96" y2="186.15" stroke="#999" stroke-width="1"/><line x1="291.69" y1="196.89" x2="291.69" y2="187.39" stroke="#999" stroke-width="1"/><line x1="294.41" y1="203.68" x2="294.41" y2="191.77" stroke="#999" stroke-width="1"/><line x1="297.14" y1="202.05" x2="297.14" y2="188.80" stroke="#999" stroke-width="1"/><line x1="299.87" y1="216.70" x2="299.87" y2="164.98" stroke="#999" stroke-width="1"/><line x1="302.59" y1="176.48" x2="302.59" y2="142.66" stroke="#999" stroke-width="1"/><line x1="305.32" y1="151.36" x2="305.32" y2="112.31" stroke="#999" stroke-width="1"/><line x1="308.04" y1="153.11" x2="308.04" y2="135.84" stroke="#999" stroke-width="1"/><line x1="310.77" y1="147.04" x2="310.77" y2="140.75" stroke="#999" stroke-width="1"/><line x1="313.49" y1="162.06" x2="313.49" y2="134.49" stroke="#999" stroke-width="1"/><line x1="316.22" y1="148.78" x2="316.22" y2="120.08" stroke="#999" stroke-width="1"/><line x1="318.95" y1="173.41" x2="318.95" y2="136.00" stroke="#999" stroke-width="1"/><line x1="321.67" y1="170.88" x2="321.67" y2="158.25" stroke="#999" stroke-width="1"/><line x1="324.40" y1="167.59" x2="324.40" y2="160.03" stroke="#999" stroke-width="1"/><line x1="327.12" y1="176.01" x2="327.12" y2="161.58" stroke="#999" stroke-width="1"/><line x1="329.85" y1="183.10" x2="329.85" y2="150.39" stroke="#999" stroke-width="1"/><line x1="332.58" y1="177.80" x2="332.58" y2="149.72" stroke="#999" stroke-width="1"/><line x1="335.30" y1="184.02" x2="335.30" y2="166.59" stroke="#999" stroke-width="1"/><line x1="338.03" y1="175.43" x2="338.03" y2="166.96" stroke="#999" stroke-width="1"/><line x1="340.75" y1="181.10" x2="340.75" y2="173.93" stroke="#999" stroke-width="1"/><line x1="343.48" y1="178.27" x2="343.48" y2="172.84" stroke="#999" stroke-width="1"/><line x1="346.20" y1="175.02" x2="346.20" y2="158.45" stroke="#999" stroke-width="1"/><line x1="348.93" y1="173.83" x2="348.93" y2="166.50" stroke="#999" stroke-width="1"/><line x1="351.66" y1="181.59" x2="351.66" y2="167.73" stroke="#999" stroke-width="1"/><line x1="354.38" y1="183.19" x2="354.38" y2="173.15" stroke="#999" stroke-width="1"/><line x1="357.11" y1="175.92" x2="357.11" y2="168.83" stroke="#999" stroke-width="1"/><line x1="359.83" y1="174.73" x2="359.83" y2="169.89" stroke="#999" stroke-width="1"/><line x1="362.56" y1="198.26" x2="362.56" y2="173.04" stroke="#999" stroke-width="1"/><line x1="365.28" y1="215.27" x2="365.28" y2="187.78" stroke="#999" stroke-width="1"/><line x1="368.01" y1="211.88" x2="368.01" y2="196.42" stroke="#999" stroke-width="1"/><line x1="370.74" y1="210.22" x2="370.74" y2="192.29" stroke="#999" stroke-width="1"/><line x1="373.46" y1="223.62" x2="373.46" y2="203.58" stroke="#999" stroke-width="1"/><line x1="376.19" y1="216.38" x2="376.19" y2="202.68" stroke="#999" stroke-width="1"/><line x1="378.91" y1="215.34" x2="378.91" y2="195.02" stroke="#999" stroke-width="1"/><line x1="381.64" y1="203.51" x2="381.64" y2="187.55" stroke="#999" stroke-width="1"/><line x1="384.36" y1="222.80" x2="384.36" y2="196.39" stroke="#999" stroke-width="1"/><line x1="387.09" y1="215.34" x2="387.09" y2="205.35" stroke="#999" stroke-width="1"/><line x1="389.82" y1="207.67" x2="389.82" y2="199.66" stroke="#999" stroke-width="1"/><line x1="392.54" y1="207.43" x2="392.54" y2="194.29" stroke="#999" stroke-width="1"/><line x1="395.27" y1="206.35" x2="395.27" y2="195.79" stroke="#999" stroke-width="1"/><line x1="397.99" y1="213.50" x2="397.99" y2="174.80" stroke="#999" stroke-width="1"/><line x1="400.72" y1="196.15" x2="400.72" y2="177.83" stroke="#999" stroke-width="1"/><line x1="403.44" y1="182.69" x2="403.44" y2="167.38" stroke="#999" stroke-width="1"/><line x1="406.17" y1="185.73" x2="406.17" y2="178.78" stroke="#999" stroke-width="1"/><line x1="408.90" y1="189.07" x2="408.90" y2="182.40" stroke="#999" stroke-width="1"/><line x1="411.62" y1="207.78" x2="411.62" y2="185.13" stroke="#999" stroke-width="1"/><line x1="414.35" y1="220.65" x2="414.35" y2="195.92" stroke="#999" stroke-width="1"/><line x1="417.07" y1="213.17" x2="417.07" y2="199.91" stroke="#999" stroke-width="1"/><line x1="419.80" y1="235.76" x2="419.80" y2="197.69" stroke="#999" stroke-width="1"/><line x1="422.53" y1="242.44" x2="422.53" y2="216.48" stroke="#999" stroke-width="1"/><line x1="425.25" y1="221.31" x2="425.25" y2="214.39" stroke="#999" stroke-width="1"/><line x1="427.98" y1="228.65" x2="427.98" y2="210.10" stroke="#999" stroke-width="1"/><line x1="430.70" y1="273.19" x2="430.70" y2="224.20" stroke="#999" stroke-width="1"/><line x1="433.43" y1="287.96" x2="433.43" y2="260.76" stroke="#999" stroke-width="1"/><line x1="436.15" y1="282.70" x2="436.15" y2="270.81" stroke="#999" stroke-width="1"/><line x1="438.88" y1="291.90" x2="438.88" y2="271.84" stroke="#999" stroke-width="1"/><line x1="441.61" y1="285.71" x2="441.61" y2="271.15" stroke="#999" stroke-width="1"/><line x1="444.33" y1="299.19" x2="444.33" y2="273.28" stroke="#999" stroke-width="1"/><line x1="447.06" y1="296.30" x2="447.06" y2="280.16" stroke="#999" stroke-width="1"/><line x1="449.78" y1="304.41" x2="449.78" y2="280.59" stroke="#999" stroke-width="1"/><line x1="452.51" y1="293.51" x2="452.51" y2="285.39" stroke="#999" stroke-width="1"/><line x1="455.23" y1="290.70" x2="455.23" y2="286.08" stroke="#999" stroke-width="1"/><line x1="457.96" y1="289.73" x2="457.96" y2="286.58" stroke="#999" stroke-width="1"/><line x1="460.69" y1="289.11" x2="460.69" y2="280.82" stroke="#999" stroke-width="1"/><line x1="463.41" y1="292.31" x2="463.41" y2="284.47" stroke="#999" stroke-width="1"/><line x1="466.14" y1="290.49" x2="466.14" y2="273.23" stroke="#999" stroke-width="1"/><line x1="468.86" y1="282.18" x2="468.86" y2="274.33" stroke="#999" stroke-width="1"/><line x1="471.59" y1="282.42" x2="471.59" y2="278.99" stroke="#999" stroke-width="1"/><line x1="474.31" y1="280.10" x2="474.31" y2="269.08" stroke="#999" stroke-width="1"/><line x1="477.04" y1="282.67" x2="477.04" y2="266.96" stroke="#999" stroke-width="1"/><line x1="479.77" y1="271.90" x2="479.77" y2="260.60" stroke="#999" stroke-width="1"/><line x1="482.49" y1="291.83" x2="482.49" y2="264.44" stroke="#999" stroke-width="1"/><line x1="485.22" y1="292.44" x2="485.22" y2="275.23" stroke="#999" stroke-width="1"/><line x1="487.94" y1="280.48" x2="487.94" y2="273.60" stroke="#999" stroke-width="1"/><line x1="490.67" y1="305.52" x2="490.67" y2="274.90" stroke="#999" stroke-width="1"/><line x1="493.39" y1="296.58" x2="493.39" y2="287.07" stroke="#999" stroke-width="1"/><line x1="496.12" y1="310.46" x2="496.12" y2="288.54" stroke="#999" stroke-width="1"/><line x1="498.85" y1="296.37" x2="498.85" y2="277.27" stroke="#999" stroke-width="1"/><line x1="501.57" y1="288.03" x2="501.57" y2="279.09" stroke="#999" stroke-width="1"/><line x1="504.30" y1="287.61" x2="504.30" y2="280.95" stroke="#999" stroke-width="1"/><line x1="507.02" y1="288.66" x2="507.02" y2="275.14" stroke="#999" stroke-width="1"/><line x1="509.75" y1="299.02" x2="509.75" y2="244.95" stroke="#999" stroke-width="1"/><line x1="512.47" y1="271.55" x2="512.47" y2="250.19" stroke="#999" stroke-width="1"/><line x1="515.20" y1="258.27" x2="515.20" y2="247.61" stroke="#999" stroke-width="1"/><line x1="517.93" y1="262.97" x2="517.93" y2="252.83" stroke="#999" stroke-width="1"/><line x1="520.65" y1="261.28" x2="520.65" y2="254.79" stroke="#999" stroke-width="1"/><line x1="523.38" y1="260.26" x2="523.38" y2="233.17" stroke="#999" stroke-width="1"/><line x1="526.10" y1="236.47" x2="526.10" y2="205.13" stroke="#999" stroke-width="1"/><line x1="528.83" y1="215.61" x2="528.83" y2="174.86" stroke="#999" stroke-width="1"/><line x1="531.56" y1="178.05" x2="531.56" y2="104.59" stroke="#999" stroke-width="1"/><line x1="534.28" y1="111.05" x2="534.28" y2="69.02" stroke="#999" stroke-width="1"/><line x1="537.01" y1="102.51" x2="537.01" y2="79.23" stroke="#999" stroke-width="1"/><line x1="539.73" y1="95.67" x2="539.73" y2="85.70" stroke="#999" stroke-width="1"/><line x1="542.46" y1="110.41" x2="542.46" y2="56.56" stroke="#999" stroke-width="1"/><line x1="545.18" y1="89.88" x2="545.18" y2="45.00" stroke="#999" stroke-width="1"/><line x1="547.91" y1="163.87" x2="547.91" y2="70.97" stroke="#999" stroke-width="1"/><line x1="550.64" y1="174.94" x2="550.64" y2="136.35" stroke="#999" stroke-width="1"/><line x1="553.36" y1="156.49" x2="553.36" y2="138.42" stroke="#999" stroke-width="1"/><line x1="556.09" y1="161.67" x2="556.09" y2="139.81" stroke="#999" stroke-width="1"/><line x1="558.81" y1="150.61" x2="558.81" y2="111.22" stroke="#999" stroke-width="1"/><line x1="561.54" y1="135.71" x2="561.54" y2="92.10" stroke="#999" stroke-width="1"/><line x1="564.26" y1="126.28" x2="564.26" y2="61.10" stroke="#999" stroke-width="1"/><line x1="566.99" y1="96.18" x2="566.99" y2="77.14" stroke="#999" stroke-width="1"/><line x1="569.72" y1="100.55" x2="569.72" y2="84.54" stroke="#999" stroke-width="1"/><line x1="572.44" y1="102.30" x2="572.44" y2="89.49" stroke="#999" stroke-width="1"/><line x1="575.17" y1="97.08" x2="575.17" y2="80.94" stroke="#999" stroke-width="1"/><line x1="577.89" y1="91.52" x2="577.89" y2="70.70" stroke="#999" stroke-width="1"/><line x1="580.62" y1="94.93" x2="580.62" y2="84.83" stroke="#999" stroke-width="1"/><line x1="583.34" y1="87.64" x2="583.34" y2="77.84" stroke="#999" stroke-width="1"/><line x1="586.07" y1="92.11" x2="586.07" y2="72.52" stroke="#999" stroke-width="1"/><line x1="588.80" y1="92.05" x2="588.80" y2="82.29" stroke="#999" stroke-width="1"/><line x1="591.52" y1="85.57" x2="591.52" y2="60.04" stroke="#999" stroke-width="1"/><line x1="594.25" y1="111.81" x2="594.25" y2="49.78" stroke="#999" stroke-width="1"/><line x1="596.97" y1="116.66" x2="596.97" y2="90.77" stroke="#999" stroke-width="1"/><line x1="599.70" y1="142.03" x2="599.70" y2="98.15" stroke="#999" stroke-width="1"/><line x1="602.42" y1="102.48" x2="602.42" y2="92.85" stroke="#999" stroke-width="1"/><line x1="605.15" y1="104.45" x2="605.15" y2="63.79" stroke="#999" stroke-width="1"/><line x1="607.88" y1="81.61" x2="607.88" y2="54.66" stroke="#999" stroke-width="1"/><line x1="610.60" y1="88.43" x2="610.60" y2="65.29" stroke="#999" stroke-width="1"/><line x1="613.33" y1="86.17" x2="613.33" y2="70.04" stroke="#999" stroke-width="1"/><line x1="616.05" y1="76.78" x2="616.05" y2="55.78" stroke="#999" stroke-width="1"/><line x1="618.78" y1="71.92" x2="618.78" y2="58.96" stroke="#999" stroke-width="1"/><line x1="621.51" y1="92.50" x2="621.51" y2="45.34" stroke="#999" stroke-width="1"/><line x1="624.23" y1="103.05" x2="624.23" y2="77.11" stroke="#999" stroke-width="1"/><line x1="626.96" y1="111.42" x2="626.96" y2="79.57" stroke="#999" stroke-width="1"/><line x1="629.68" y1="119.89" x2="629.68" y2="86.83" stroke="#999" stroke-width="1"/><line x1="632.41" y1="139.46" x2="632.41" y2="97.95" stroke="#999" stroke-width="1"/><line x1="635.13" y1="134.85" x2="635.13" y2="115.35" stroke="#999" stroke-width="1"/><line x1="637.86" y1="139.46" x2="637.86" y2="115.65" stroke="#999" stroke-width="1"/><line x1="640.59" y1="155.31" x2="640.59" y2="114.06" stroke="#999" stroke-width="1"/><line x1="643.31" y1="158.86" x2="643.31" y2="132.53" stroke="#999" stroke-width="1"/><line x1="646.04" y1="148.08" x2="646.04" y2="115.57" stroke="#999" stroke-width="1"/><line x1="648.76" y1="121.81" x2="648.76" y2="89.85" stroke="#999" stroke-width="1"/><line x1="651.49" y1="108.98" x2="651.49" y2="94.71" stroke="#999" stroke-width="1"/><line x1="654.21" y1="154.09" x2="654.21" y2="97.07" stroke="#999" stroke-width="1"/><line x1="656.94" y1="156.83" x2="656.94" y2="115.06" stroke="#999" stroke-width="1"/><line x1="659.67" y1="148.64" x2="659.67" y2="126.87" stroke="#999" stroke-width="1"/><line x1="662.39" y1="146.61" x2="662.39" y2="125.82" stroke="#999" stroke-width="1"/><line x1="665.12" y1="137.70" x2="665.12" y2="121.21" stroke="#999" stroke-width="1"/><line x1="667.84" y1="145.54" x2="667.84" y2="131.68" stroke="#999" stroke-width="1"/><line x1="670.57" y1="146.94" x2="670.57" y2="132.40" stroke="#999" stroke-width="1"/><line x1="673.29" y1="176.03" x2="673.29" y2="128.60" stroke="#999" stroke-width="1"/><line x1="676.02" y1="208.95" x2="676.02" y2="174.73" stroke="#999" stroke-width="1"/><line x1="678.75" y1="199.96" x2="678.75" y2="176.15" stroke="#999" stroke-width="1"/><line x1="681.47" y1="195.05" x2="681.47" y2="183.70" stroke="#999" stroke-width="1"/><line x1="684.20" y1="196.88" x2="684.20" y2="189.76" stroke="#999" stroke-width="1"/><line x1="686.92" y1="204.41" x2="686.92" y2="188.05" stroke="#999" stroke-width="1"/><line x1="689.65" y1="208.47" x2="689.65" y2="192.48" stroke="#999" stroke-width="1"/><line x1="692.37" y1="204.16" x2="692.37" y2="192.68" stroke="#999" stroke-width="1"/><line x1="695.10" y1="215.27" x2="695.10" y2="185.75" stroke="#999" stroke-width="1"/><line x1="697.83" y1="194.07" x2="697.83" y2="181.12" stroke="#999" stroke-width="1"/><line x1="700.55" y1="192.20" x2="700.55" y2="183.00" stroke="#999" stroke-width="1"/><line x1="703.28" y1="190.56" x2="703.28" y2="178.64" stroke="#999" stroke-width="1"/><line x1="706.00" y1="189.50" x2="706.00" y2="176.14" stroke="#999" stroke-width="1"/><line x1="708.73" y1="188.94" x2="708.73" y2="161.48" stroke="#999" stroke-width="1"/><line x1="711.45" y1="176.09" x2="711.45" y2="151.76" stroke="#999" stroke-width="1"/><line x1="714.18" y1="168.58" x2="714.18" y2="154.84" stroke="#999" stroke-width="1"/><line x1="716.91" y1="174.54" x2="716.91" y2="160.46" stroke="#999" stroke-width="1"/><line x1="719.63" y1="175.65" x2="719.63" y2="167.66" stroke="#999" stroke-width="1"/><line x1="722.36" y1="172.39" x2="722.36" y2="137.23" stroke="#999" stroke-width="1"/><line x1="725.08" y1="187.24" x2="725.08" y2="156.63" stroke="#999" stroke-width="1"/><line x1="727.81" y1="191.48" x2="727.81" y2="158.94" stroke="#999" stroke-width="1"/><line x1="730.54" y1="174.73" x2="730.54" y2="161.33" stroke="#999" stroke-width="1"/><line x1="733.26" y1="183.68" x2="733.26" y2="166.76" stroke="#999" stroke-width="1"/><line x1="735.99" y1="184.38" x2="735.99" y2="169.83" stroke="#999" stroke-width="1"/><line x1="738.71" y1="176.34" x2="738.71" y2="159.35" stroke="#999" stroke-width="1"/><line x1="741.44" y1="184.13" x2="741.44" y2="157.84" stroke="#999" stroke-width="1"/><line x1="744.16" y1="196.91" x2="744.16" y2="175.26" stroke="#999" stroke-width="1"/><line x1="746.89" y1="196.70" x2="746.89" y2="164.74" stroke="#999" stroke-width="1"/><line x1="749.62" y1="169.23" x2="749.62" y2="140.49" stroke="#999" stroke-width="1"/><line x1="752.34" y1="152.32" x2="752.34" y2="130.27" stroke="#999" stroke-width="1"/><line x1="755.07" y1="159.46" x2="755.07" y2="138.23" stroke="#999" stroke-width="1"/><line x1="757.79" y1="175.67" x2="757.79" y2="147.78" stroke="#999" stroke-width="1"/><line x1="760.52" y1="177.63" x2="760.52" y2="152.47" stroke="#999" stroke-width="1"/><line x1="763.24" y1="169.32" x2="763.24" y2="144.11" stroke="#999" stroke-width="1"/><line x1="765.97" y1="175.11" x2="765.97" y2="161.32" stroke="#999" stroke-width="1"/><line x1="768.70" y1="175.17" x2="768.70" y2="166.50" stroke="#999" stroke-width="1"/><line x1="771.42" y1="184.72" x2="771.42" y2="169.20" stroke="#999" stroke-width="1"/><line x1="774.15" y1="182.20" x2="774.15" y2="164.32" stroke="#999" stroke-width="1"/><line x1="776.87" y1="172.17" x2="776.87" y2="160.20" stroke="#999" stroke-width="1"/><line x1="779.60" y1="268.94" x2="779.60" y2="166.23" stroke="#999" stroke-width="1"/><line x1="782.32" y1="248.89" x2="782.32" y2="238.21" stroke="#999" stroke-width="1"/><line x1="785.05" y1="245.76" x2="785.05" y2="233.64" stroke="#999" stroke-width="1"/><line x1="787.78" y1="254.13" x2="787.78" y2="232.61" stroke="#999" stroke-width="1"/><line x1="790.50" y1="250.67" x2="790.50" y2="236.14" stroke="#999" stroke-width="1"/><line x1="793.23" y1="256.20" x2="793.23" y2="240.87" stroke="#999" stroke-width="1"/><line x1="795.95" y1="244.46" x2="795.95" y2="239.91" stroke="#999" stroke-width="1"/><line x1="798.68" y1="247.91" x2="798.68" y2="238.73" stroke="#999" stroke-width="1"/><line x1="801.40" y1="244.53" x2="801.40" y2="241.05" stroke="#999" stroke-width="1"/><line x1="804.13" y1="245.29" x2="804.13" y2="239.48" stroke="#999" stroke-width="1"/><line x1="806.86" y1="250.73" x2="806.86" y2="243.09" stroke="#999" stroke-width="1"/><line x1="809.58" y1="255.61" x2="809.58" y2="241.83" stroke="#999" stroke-width="1"/><line x1="812.31" y1="253.86" x2="812.31" y2="221.60" stroke="#999" stroke-width="1"/><line x1="815.03" y1="241.43" x2="815.03" y2="234.65" stroke="#999" stroke-width="1"/><line x1="817.76" y1="244.81" x2="817.76" y2="236.01" stroke="#999" stroke-width="1"/><line x1="820.48" y1="239.73" x2="820.48" y2="232.97" stroke="#999" stroke-width="1"/><line x1="823.21" y1="241.07" x2="823.21" y2="235.47" stroke="#999" stroke-width="1"/><line x1="825.94" y1="243.67" x2="825.94" y2="228.96" stroke="#999" stroke-width="1"/><line x1="828.66" y1="248.61" x2="828.66" y2="231.91" stroke="#999" stroke-width="1"/><line x1="831.39" y1="245.11" x2="831.39" y2="236.92" stroke="#999" stroke-width="1"/><line x1="834.11" y1="242.07" x2="834.11" y2="235.83" stroke="#999" stroke-width="1"/><line x1="836.84" y1="241.99" x2="836.84" y2="225.56" stroke="#999" stroke-width="1"/><line x1="839.57" y1="241.84" x2="839.57" y2="226.43" stroke="#999" stroke-width="1"/><line x1="842.29" y1="244.53" x2="842.29" y2="235.99" stroke="#999" stroke-width="1"/><line x1="845.02" y1="241.18" x2="845.02" y2="228.18" stroke="#999" stroke-width="1"/><line x1="847.74" y1="238.43" x2="847.74" y2="233.88" stroke="#999" stroke-width="1"/><line x1="850.47" y1="244.20" x2="850.47" y2="237.36" stroke="#999" stroke-width="1"/><line x1="853.19" y1="271.03" x2="853.19" y2="233.38" stroke="#999" stroke-width="1"/><line x1="855.92" y1="261.76" x2="855.92" y2="239.86" stroke="#999" stroke-width="1"/><line x1="858.65" y1="270.05" x2="858.65" y2="250.44" stroke="#999" stroke-width="1"/><line x1="861.37" y1="260.39" x2="861.37" y2="247.19" stroke="#999" stroke-width="1"/><line x1="864.10" y1="276.59" x2="864.10" y2="255.20" stroke="#999" stroke-width="1"/><line x1="866.82" y1="270.58" x2="866.82" y2="256.87" stroke="#999" stroke-width="1"/><line x1="869.55" y1="274.48" x2="869.55" y2="251.15" stroke="#999" stroke-width="1"/><line x1="872.27" y1="269.98" x2="872.27" y2="251.96" stroke="#999" stroke-width="1"/><line x1="875.00" y1="295.17" x2="875.00" y2="257.81" stroke="#999" stroke-width="1"/><polyline points="60.00,316.66 62.73,313.62 65.45,320.49 68.18,331.71 70.90,341.48 73.63,356.44 76.35,351.64 79.08,346.85 81.81,352.12 84.53,343.10 87.26,328.23 89.98,329.44 92.71,328.29 95.43,337.19 98.16,337.02 100.89,324.69 103.61,300.72 106.34,220.88 109.06,229.49 111.79,223.03 114.52,204.86 117.24,198.69 119.97,179.69 122.69,213.24 125.42,214.78 128.14,205.28 130.87,213.33 133.60,212.29 136.32,217.40 139.05,218.21 141.77,221.29 144.50,218.83 147.22,204.86 149.95,208.31 152.68,212.29 155.40,204.22 158.13,193.31 160.85,194.91 163.58,204.13 166.30,203.11 169.03,197.08 171.76,223.58 174.48,222.62 177.21,218.00 179.93,225.68 182.66,227.05 185.38,215.45 188.11,194.36 190.84,189.06 193.56,200.76 196.29,199.15 199.01,201.32 201.74,193.33 204.46,197.90 207.19,214.12 209.92,193.15 212.64,200.63 215.37,202.44 218.09,181.29 220.82,193.44 223.55,190.58 226.27,198.95 229.00,199.68 231.72,197.53 234.45,195.80 237.17,196.53 239.90,185.49 242.63,184.29 245.35,169.06 248.08,162.85 250.80,137.36 253.53,147.85 256.25,150.96 258.98,154.43 261.71,192.99 264.43,186.32 267.16,212.84 269.88,210.07 272.61,209.69 275.33,199.95 278.06,207.65 280.79,190.09 283.51,187.08 286.24,189.47 288.96,189.42 291.69,193.16 294.41,193.39 297.14,199.54 299.87,172.40 302.59,148.96 305.32,140.50 308.04,145.33 310.77,142.45 313.49,141.16 316.22,143.69 318.95,164.90 321.67,162.11 324.40,167.54 327.12,161.88 329.85,157.35 332.58,177.02 335.30,168.79 338.03,175.07 340.75,176.01 343.48,173.85 346.20,169.49 348.93,169.33 351.66,176.24 354.38,175.05 357.11,172.69 359.83,173.91 362.56,191.61 365.28,205.81 368.01,203.21 370.74,205.69 373.46,206.77 376.19,206.39 378.91,195.52 381.64,196.42 384.36,214.67 387.09,207.01 389.82,204.28 392.54,199.65 395.27,204.56 397.99,191.88 400.72,181.67 403.44,180.61 406.17,182.61 408.90,187.53 411.62,207.07 414.35,206.69 417.07,201.06 419.80,231.06 422.53,220.26 425.25,219.80 427.98,224.76 430.70,264.19 433.43,280.19 436.15,278.52 438.88,272.52 441.61,284.64 444.33,290.22 447.06,281.93 449.78,291.90 452.51,288.30 455.23,287.45 457.96,287.09 460.69,284.49 463.41,289.52 466.14,275.79 468.86,281.15 471.59,280.10 474.31,273.98 477.04,270.12 479.77,266.83 482.49,281.38 485.22,279.35 487.94,275.42 490.67,293.59 493.39,296.33 496.12,293.35 498.85,281.83 501.57,286.99 504.30,282.29 507.02,279.50 509.75,263.95 512.47,252.25 515.20,252.83 517.93,259.52 520.65,258.90 523.38,237.51 526.10,211.39 528.83,176.67 531.56,107.97 534.28,80.56 537.01,88.82 539.73,91.76 542.46,57.03 545.18,71.02 547.91,163.25 550.64,141.37 553.36,154.83 556.09,144.87 558.81,121.34 561.54,94.79 564.26,91.28 566.99,88.90 569.72,95.22 572.44,95.05 575.17,84.96 577.89,88.99 580.62,87.17 583.34,84.02 586.07,90.94 588.80,84.89 591.52,67.59 594.25,95.03 596.97,111.90 599.70,101.82 602.42,96.02 605.15,70.21 607.88,66.23 610.60,70.83 613.33,73.11 616.05,67.46 618.78,62.32 621.51,91.22 624.23,91.99 626.96,89.24 629.68,99.73 632.41,116.67 635.13,125.99 637.86,119.38 640.59,149.72 643.31,144.71 646.04,117.83 648.76,99.72 651.49,104.77 654.21,145.44 656.94,133.47 659.67,132.18 662.39,134.61 665.12,133.71 667.84,141.62 670.57,138.07 673.29,174.73 676.02,185.79 678.75,185.60 681.47,193.07 684.20,190.24 686.92,199.57 689.65,197.80 692.37,199.63 695.10,187.42 697.83,183.69 700.55,188.17 703.28,181.37 706.00,181.57 708.73,164.04 711.45,160.33 714.18,160.65 716.91,169.72 719.63,169.06 722.36,160.56 725.08,179.43 727.81,164.91 730.54,166.94 733.26,182.59 735.99,171.62 738.71,163.11 741.44,180.64 744.16,188.93 746.89,168.38 749.62,150.19 752.34,148.29 755.07,150.02 757.79,174.18 760.52,155.42 763.24,164.33 765.97,171.87 768.70,170.26 771.42,173.67 774.15,166.33 776.87,166.98 779.60,244.29 782.32,241.49 785.05,242.82 787.78,243.75 790.50,241.96 793.23,242.40 795.95,242.62 798.68,241.88 801.40,242.78 804.13,244.95 806.86,249.79 809.58,242.80 812.31,240.24 815.03,240.62 817.76,239.71 820.48,236.67 823.21,238.99 825.94,237.29 828.66,239.99 831.39,239.52 834.11,240.68 836.84,228.61 839.57,239.59 842.29,238.75 845.02,235.15 847.74,238.06 850.47,242.88 853.19,244.61 855.92,257.90 858.65,252.82 861.37,256.27 864.10,268.31 866.82,261.64 869.55,256.87 872.27,266.40 875.00,286.64" fill="none" stroke="#111" stroke-width="2"/><line x1="60" y1="375" x2="875" y2="375" stroke="#222"/><line x1="60" y1="45" x2="60" y2="375" stroke="#222"/><text x="450.0" y="410" text-anchor="middle" font-family="Arial" font-size="12">Bars before checkpoint</text><text transform="translate(14 210.0) rotate(-90)" text-anchor="middle" font-family="Arial" font-size="12">Normalized price (checkpoint close=100)</text></svg>