<svg xmlns="http://www.w3.org/2000/svg" width="900" height="420" viewBox="0 0 900 420"><rect width="100%" height="100%" fill="white"/><text x="450.0" y="24" text-anchor="middle" font-family="Arial" font-size="18">G2-SV-0012 market 1H</text><line x1="60" y1="45.00" x2="875" y2="45.00" stroke="#ddd" stroke-width="1"/><text x="5" y="49.00" font-size="11">131.90</text><line x1="60" y1="111.00" x2="875" y2="111.00" stroke="#ddd" stroke-width="1"/><text x="5" y="115.00" font-size="11">123.14</text><line x1="60" y1="177.00" x2="875" y2="177.00" stroke="#ddd" stroke-width="1"/><text x="5" y="181.00" font-size="11">114.37</text><line x1="60" y1="243.00" x2="875" y2="243.00" stroke="#ddd" stroke-width="1"/><text x="5" y="247.00" font-size="11">105.61</text><line x1="60" y1="309.00" x2="875" y2="309.00" stroke="#ddd" stroke-width="1"/><text x="5" y="313.00" font-size="11">96.84</text><line x1="60" y1="375.00" x2="875" y2="375.00" stroke="#ddd" stroke-width="1"/><text x="5" y="379.00" font-size="11">88.08</text><line x1="60.00" y1="90.47" x2="60.00" y2="80.04" stroke="#999" stroke-width="1"/><line x1="61.70" y1="91.86" x2="61.70" y2="82.38" stroke="#999" stroke-width="1"/><line x1="63.40" y1="85.51" x2="63.40" y2="80.69" stroke="#999" stroke-width="1"/><line x1="65.10" y1="90.52" x2="65.10" y2="84.55" stroke="#999" stroke-width="1"/><line x1="66.81" y1="90.77" x2="66.81" y2="86.89" stroke="#999" stroke-width="1"/><line x1="68.51" y1="87.96" x2="68.51" y2="83.19" stroke="#999" stroke-width="1"/><line x1="70.21" y1="88.73" x2="70.21" y2="84.00" stroke="#999" stroke-width="1"/><line x1="71.91" y1="89.17" x2="71.91" y2="86.40" stroke="#999" stroke-width="1"/><line x1="73.61" y1="91.50" x2="73.61" y2="86.61" stroke="#999" stroke-width="1"/><line x1="75.31" y1="106.44" x2="75.31" y2="88.75" stroke="#999" stroke-width="1"/><line x1="77.01" y1="107.98" x2="77.01" y2="100.13" stroke="#999" stroke-width="1"/><line x1="78.72" y1="110.71" x2="78.72" y2="93.57" stroke="#999" stroke-width="1"/><line x1="80.42" y1="101.14" x2="80.42" y2="94.42" stroke="#999" stroke-width="1"/><line x1="82.12" y1="100.54" x2="82.12" y2="94.17" stroke="#999" stroke-width="1"/><line x1="83.82" y1="98.47" x2="83.82" y2="94.18" stroke="#999" stroke-width="1"/><line x1="85.52" y1="97.91" x2="85.52" y2="91.42" stroke="#999" stroke-width="1"/><line x1="87.22" y1="96.92" x2="87.22" y2="92.18" stroke="#999" stroke-width="1"/><line x1="88.92" y1="98.21" x2="88.92" y2="95.73" stroke="#999" stroke-width="1"/><line x1="90.63" y1="97.09" x2="90.63" y2="94.12" stroke="#999" stroke-width="1"/><line x1="92.33" y1="98.90" x2="92.33" y2="94.19" stroke="#999" stroke-width="1"/><line x1="94.03" y1="96.80" x2="94.03" y2="93.29" stroke="#999" stroke-width="1"/><line x1="95.73" y1="98.03" x2="95.73" y2="94.30" stroke="#999" stroke-width="1"/><line x1="97.43" y1="99.55" x2="97.43" y2="94.84" stroke="#999" stroke-width="1"/><line x1="99.13" y1="97.86" x2="99.13" y2="94.99" stroke="#999" stroke-width="1"/><line x1="100.84" y1="98.28" x2="100.84" y2="94.99" stroke="#999" stroke-width="1"/><line x1="102.54" y1="96.30" x2="102.54" y2="79.63" stroke="#999" stroke-width="1"/><line x1="104.24" y1="85.78" x2="104.24" y2="78.90" stroke="#999" stroke-width="1"/><line x1="105.94" y1="86.28" x2="105.94" y2="80.97" stroke="#999" stroke-width="1"/><line x1="107.64" y1="97.85" x2="107.64" y2="85.30" stroke="#999" stroke-width="1"/><line x1="109.34" y1="102.23" x2="109.34" y2="94.87" stroke="#999" stroke-width="1"/><line x1="111.04" y1="103.75" x2="111.04" y2="87.05" stroke="#999" stroke-width="1"/><line x1="112.75" y1="93.43" x2="112.75" y2="84.73" stroke="#999" stroke-width="1"/><line x1="114.45" y1="93.40" x2="114.45" y2="81.49" stroke="#999" stroke-width="1"/><line x1="116.15" y1="89.44" x2="116.15" y2="79.98" stroke="#999" stroke-width="1"/><line x1="117.85" y1="84.40" x2="117.85" y2="74.87" stroke="#999" stroke-width="1"/><line x1="119.55" y1="83.60" x2="119.55" y2="77.25" stroke="#999" stroke-width="1"/><line x1="121.25" y1="86.47" x2="121.25" y2="79.46" stroke="#999" stroke-width="1"/><line x1="122.95" y1="80.17" x2="122.95" y2="77.85" stroke="#999" stroke-width="1"/><line x1="124.66" y1="80.64" x2="124.66" y2="68.02" stroke="#999" stroke-width="1"/><line x1="126.36" y1="73.68" x2="126.36" y2="69.84" stroke="#999" stroke-width="1"/><line x1="128.06" y1="72.49" x2="128.06" y2="66.86" stroke="#999" stroke-width="1"/><line x1="129.76" y1="74.87" x2="129.76" y2="69.66" stroke="#999" stroke-width="1"/><line x1="131.46" y1="76.43" x2="131.46" y2="70.93" stroke="#999" stroke-width="1"/><line x1="133.16" y1="76.52" x2="133.16" y2="69.07" stroke="#999" stroke-width="1"/><line x1="134.86" y1="79.44" x2="134.86" y2="74.10" stroke="#999" stroke-width="1"/><line x1="136.57" y1="83.50" x2="136.57" y2="76.79" stroke="#999" stroke-width="1"/><line x1="138.27" y1="85.15" x2="138.27" y2="78.17" stroke="#999" stroke-width="1"/><line x1="139.97" y1="89.53" x2="139.97" y2="66.11" stroke="#999" stroke-width="1"/><line x1="141.67" y1="80.62" x2="141.67" y2="67.80" stroke="#999" stroke-width="1"/><line x1="143.37" y1="80.43" x2="143.37" y2="73.33" stroke="#999" stroke-width="1"/><line x1="145.07" y1="82.79" x2="145.07" y2="73.99" stroke="#999" stroke-width="1"/><line x1="146.77" y1="90.79" x2="146.77" y2="80.63" stroke="#999" stroke-width="1"/><line x1="148.48" y1="94.20" x2="148.48" y2="84.40" stroke="#999" stroke-width="1"/><line x1="150.18" y1="91.90" x2="150.18" y2="80.70" stroke="#999" stroke-width="1"/><line x1="151.88" y1="87.95" x2="151.88" y2="80.47" stroke="#999" stroke-width="1"/><line x1="153.58" y1="88.54" x2="153.58" y2="77.07" stroke="#999" stroke-width="1"/><line x1="155.28" y1="81.54" x2="155.28" y2="73.27" stroke="#999" stroke-width="1"/><line x1="156.98" y1="84.16" x2="156.98" y2="77.36" stroke="#999" stroke-width="1"/><line x1="158.68" y1="86.11" x2="158.68" y2="81.40" stroke="#999" stroke-width="1"/><line x1="160.39" y1="86.72" x2="160.39" y2="82.70" stroke="#999" stroke-width="1"/><line x1="162.09" y1="87.72" x2="162.09" y2="80.45" stroke="#999" stroke-width="1"/><line x1="163.79" y1="85.73" x2="163.79" y2="80.30" stroke="#999" stroke-width="1"/><line x1="165.49" y1="84.34" x2="165.49" y2="81.68" stroke="#999" stroke-width="1"/><line x1="167.19" y1="86.05" x2="167.19" y2="82.26" stroke="#999" stroke-width="1"/><line x1="168.89" y1="84.59" x2="168.89" y2="81.44" stroke="#999" stroke-width="1"/><line x1="170.59" y1="85.26" x2="170.59" y2="81.59" stroke="#999" stroke-width="1"/><line x1="172.30" y1="82.38" x2="172.30" y2="79.43" stroke="#999" stroke-width="1"/><line x1="174.00" y1="84.73" x2="174.00" y2="81.56" stroke="#999" stroke-width="1"/><line x1="175.70" y1="86.55" x2="175.70" y2="83.92" stroke="#999" stroke-width="1"/><line x1="177.40" y1="88.98" x2="177.40" y2="81.54" stroke="#999" stroke-width="1"/><line x1="179.10" y1="85.41" x2="179.10" y2="80.67" stroke="#999" stroke-width="1"/><line x1="180.80" y1="91.57" x2="180.80" y2="83.90" stroke="#999" stroke-width="1"/><line x1="182.51" y1="91.53" x2="182.51" y2="83.65" stroke="#999" stroke-width="1"/><line x1="184.21" y1="90.32" x2="184.21" y2="85.09" stroke="#999" stroke-width="1"/><line x1="185.91" y1="93.72" x2="185.91" y2="85.80" stroke="#999" stroke-width="1"/><line x1="187.61" y1="94.61" x2="187.61" y2="87.59" stroke="#999" stroke-width="1"/><line x1="189.31" y1="106.55" x2="189.31" y2="94.55" stroke="#999" stroke-width="1"/><line x1="191.01" y1="107.43" x2="191.01" y2="100.84" stroke="#999" stroke-width="1"/><line x1="192.71" y1="107.21" x2="192.71" y2="98.81" stroke="#999" stroke-width="1"/><line x1="194.42" y1="105.03" x2="194.42" y2="94.62" stroke="#999" stroke-width="1"/><line x1="196.12" y1="102.20" x2="196.12" y2="98.51" stroke="#999" stroke-width="1"/><line x1="197.82" y1="104.61" x2="197.82" y2="101.52" stroke="#999" stroke-width="1"/><line x1="199.52" y1="103.88" x2="199.52" y2="97.34" stroke="#999" stroke-width="1"/><line x1="201.22" y1="98.76" x2="201.22" y2="95.79" stroke="#999" stroke-width="1"/><line x1="202.92" y1="98.57" x2="202.92" y2="94.39" stroke="#999" stroke-width="1"/><line x1="204.62" y1="96.36" x2="204.62" y2="93.05" stroke="#999" stroke-width="1"/><line x1="206.33" y1="96.87" x2="206.33" y2="93.23" stroke="#999" stroke-width="1"/><line x1="208.03" y1="96.49" x2="208.03" y2="92.40" stroke="#999" stroke-width="1"/><line x1="209.73" y1="93.73" x2="209.73" y2="84.91" stroke="#999" stroke-width="1"/><line x1="211.43" y1="87.67" x2="211.43" y2="76.98" stroke="#999" stroke-width="1"/><line x1="213.13" y1="79.06" x2="213.13" y2="69.80" stroke="#999" stroke-width="1"/><line x1="214.83" y1="75.74" x2="214.83" y2="68.69" stroke="#999" stroke-width="1"/><line x1="216.53" y1="74.79" x2="216.53" y2="69.10" stroke="#999" stroke-width="1"/><line x1="218.24" y1="74.21" x2="218.24" y2="69.66" stroke="#999" stroke-width="1"/><line x1="219.94" y1="74.25" x2="219.94" y2="66.56" stroke="#999" stroke-width="1"/><line x1="221.64" y1="78.29" x2="221.64" y2="68.51" stroke="#999" stroke-width="1"/><line x1="223.34" y1="79.36" x2="223.34" y2="73.95" stroke="#999" stroke-width="1"/><line x1="225.04" y1="78.00" x2="225.04" y2="68.96" stroke="#999" stroke-width="1"/><line x1="226.74" y1="74.20" x2="226.74" y2="58.65" stroke="#999" stroke-width="1"/><line x1="228.44" y1="75.41" x2="228.44" y2="64.56" stroke="#999" stroke-width="1"/><line x1="230.15" y1="81.24" x2="230.15" y2="51.03" stroke="#999" stroke-width="1"/><line x1="231.85" y1="57.55" x2="231.85" y2="45.00" stroke="#999" stroke-width="1"/><line x1="233.55" y1="52.17" x2="233.55" y2="47.75" stroke="#999" stroke-width="1"/><line x1="235.25" y1="53.13" x2="235.25" y2="48.85" stroke="#999" stroke-width="1"/><line x1="236.95" y1="54.03" x2="236.95" y2="51.58" stroke="#999" stroke-width="1"/><line x1="238.65" y1="55.47" x2="238.65" y2="52.64" stroke="#999" stroke-width="1"/><line x1="240.35" y1="57.13" x2="240.35" y2="52.14" stroke="#999" stroke-width="1"/><line x1="242.06" y1="55.89" x2="242.06" y2="53.32" stroke="#999" stroke-width="1"/><line x1="243.76" y1="55.91" x2="243.76" y2="50.95" stroke="#999" stroke-width="1"/><line x1="245.46" y1="53.91" x2="245.46" y2="51.44" stroke="#999" stroke-width="1"/><line x1="247.16" y1="53.68" x2="247.16" y2="51.72" stroke="#999" stroke-width="1"/><line x1="248.86" y1="56.48" x2="248.86" y2="49.70" stroke="#999" stroke-width="1"/><line x1="250.56" y1="57.48" x2="250.56" y2="53.63" stroke="#999" stroke-width="1"/><line x1="252.27" y1="57.82" x2="252.27" y2="55.29" stroke="#999" stroke-width="1"/><line x1="253.97" y1="59.87" x2="253.97" y2="55.16" stroke="#999" stroke-width="1"/><line x1="255.67" y1="60.46" x2="255.67" y2="56.81" stroke="#999" stroke-width="1"/><line x1="257.37" y1="59.35" x2="257.37" y2="55.35" stroke="#999" stroke-width="1"/><line x1="259.07" y1="59.59" x2="259.07" y2="56.42" stroke="#999" stroke-width="1"/><line x1="260.77" y1="59.52" x2="260.77" y2="57.22" stroke="#999" stroke-width="1"/><line x1="262.47" y1="72.06" x2="262.47" y2="58.28" stroke="#999" stroke-width="1"/><line x1="264.18" y1="92.80" x2="264.18" y2="69.67" stroke="#999" stroke-width="1"/><line x1="265.88" y1="132.12" x2="265.88" y2="89.72" stroke="#999" stroke-width="1"/><line x1="267.58" y1="125.71" x2="267.58" y2="112.23" stroke="#999" stroke-width="1"/><line x1="269.28" y1="126.08" x2="269.28" y2="116.33" stroke="#999" stroke-width="1"/><line x1="270.98" y1="145.19" x2="270.98" y2="123.90" stroke="#999" stroke-width="1"/><line x1="272.68" y1="156.23" x2="272.68" y2="135.47" stroke="#999" stroke-width="1"/><line x1="274.38" y1="141.72" x2="274.38" y2="133.24" stroke="#999" stroke-width="1"/><line x1="276.09" y1="136.80" x2="276.09" y2="130.24" stroke="#999" stroke-width="1"/><line x1="277.79" y1="139.82" x2="277.79" y2="132.94" stroke="#999" stroke-width="1"/><line x1="279.49" y1="139.29" x2="279.49" y2="130.31" stroke="#999" stroke-width="1"/><line x1="281.19" y1="137.80" x2="281.19" y2="128.40" stroke="#999" stroke-width="1"/><line x1="282.89" y1="141.60" x2="282.89" y2="135.00" stroke="#999" stroke-width="1"/><line x1="284.59" y1="137.57" x2="284.59" y2="131.40" stroke="#999" stroke-width="1"/><line x1="286.29" y1="136.12" x2="286.29" y2="133.46" stroke="#999" stroke-width="1"/><line x1="288.00" y1="137.91" x2="288.00" y2="133.39" stroke="#999" stroke-width="1"/><line x1="289.70" y1="135.57" x2="289.70" y2="132.57" stroke="#999" stroke-width="1"/><line x1="291.40" y1="135.37" x2="291.40" y2="131.58" stroke="#999" stroke-width="1"/><line x1="293.10" y1="149.78" x2="293.10" y2="133.93" stroke="#999" stroke-width="1"/><line x1="294.80" y1="141.15" x2="294.80" y2="132.45" stroke="#999" stroke-width="1"/><line x1="296.50" y1="140.76" x2="296.50" y2="134.44" stroke="#999" stroke-width="1"/><line x1="298.20" y1="150.16" x2="298.20" y2="134.50" stroke="#999" stroke-width="1"/><line x1="299.91" y1="155.47" x2="299.91" y2="142.32" stroke="#999" stroke-width="1"/><line x1="301.61" y1="152.98" x2="301.61" y2="136.71" stroke="#999" stroke-width="1"/><line x1="303.31" y1="166.28" x2="303.31" y2="143.81" stroke="#999" stroke-width="1"/><line x1="305.01" y1="154.41" x2="305.01" y2="138.99" stroke="#999" stroke-width="1"/><line x1="306.71" y1="146.43" x2="306.71" y2="134.50" stroke="#999" stroke-width="1"/><line x1="308.41" y1="146.94" x2="308.41" y2="139.36" stroke="#999" stroke-width="1"/><line x1="310.11" y1="148.82" x2="310.11" y2="139.27" stroke="#999" stroke-width="1"/><line x1="311.82" y1="149.56" x2="311.82" y2="142.89" stroke="#999" stroke-width="1"/><line x1="313.52" y1="149.13" x2="313.52" y2="141.50" stroke="#999" stroke-width="1"/><line x1="315.22" y1="148.48" x2="315.22" y2="142.26" stroke="#999" stroke-width="1"/><line x1="316.92" y1="147.75" x2="316.92" y2="142.64" stroke="#999" stroke-width="1"/><line x1="318.62" y1="148.04" x2="318.62" y2="143.48" stroke="#999" stroke-width="1"/><line x1="320.32" y1="145.20" x2="320.32" y2="142.42" stroke="#999" stroke-width="1"/><line x1="322.03" y1="146.54" x2="322.03" y2="143.64" stroke="#999" stroke-width="1"/><line x1="323.73" y1="147.20" x2="323.73" y2="144.13" stroke="#999" stroke-width="1"/><line x1="325.43" y1="146.75" x2="325.43" y2="144.57" stroke="#999" stroke-width="1"/><line x1="327.13" y1="151.20" x2="327.13" y2="146.25" stroke="#999" stroke-width="1"/><line x1="328.83" y1="152.04" x2="328.83" y2="148.20" stroke="#999" stroke-width="1"/><line x1="330.53" y1="152.08" x2="330.53" y2="147.75" stroke="#999" stroke-width="1"/><line x1="332.23" y1="150.33" x2="332.23" y2="147.63" stroke="#999" stroke-width="1"/><line x1="333.94" y1="150.48" x2="333.94" y2="146.26" stroke="#999" stroke-width="1"/><line x1="335.64" y1="148.10" x2="335.64" y2="143.33" stroke="#999" stroke-width="1"/><line x1="337.34" y1="146.04" x2="337.34" y2="143.69" stroke="#999" stroke-width="1"/><line x1="339.04" y1="146.22" x2="339.04" y2="141.66" stroke="#999" stroke-width="1"/><line x1="340.74" y1="145.07" x2="340.74" y2="141.72" stroke="#999" stroke-width="1"/><line x1="342.44" y1="145.85" x2="342.44" y2="143.64" stroke="#999" stroke-width="1"/><line x1="344.14" y1="148.47" x2="344.14" y2="143.95" stroke="#999" stroke-width="1"/><line x1="345.85" y1="148.07" x2="345.85" y2="145.32" stroke="#999" stroke-width="1"/><line x1="347.55" y1="146.50" x2="347.55" y2="142.90" stroke="#999" stroke-width="1"/><line x1="349.25" y1="148.02" x2="349.25" y2="145.69" stroke="#999" stroke-width="1"/><line x1="350.95" y1="148.42" x2="350.95" y2="145.84" stroke="#999" stroke-width="1"/><line x1="352.65" y1="148.47" x2="352.65" y2="145.19" stroke="#999" stroke-width="1"/><line x1="354.35" y1="148.94" x2="354.35" y2="147.16" stroke="#999" stroke-width="1"/><line x1="356.05" y1="151.37" x2="356.05" y2="148.37" stroke="#999" stroke-width="1"/><line x1="357.76" y1="170.52" x2="357.76" y2="149.74" stroke="#999" stroke-width="1"/><line x1="359.46" y1="176.20" x2="359.46" y2="161.80" stroke="#999" stroke-width="1"/><line x1="361.16" y1="169.73" x2="361.16" y2="151.15" stroke="#999" stroke-width="1"/><line x1="362.86" y1="168.42" x2="362.86" y2="157.44" stroke="#999" stroke-width="1"/><line x1="364.56" y1="177.79" x2="364.56" y2="164.21" stroke="#999" stroke-width="1"/><line x1="366.26" y1="186.62" x2="366.26" y2="171.79" stroke="#999" stroke-width="1"/><line x1="367.96" y1="189.85" x2="367.96" y2="178.95" stroke="#999" stroke-width="1"/><line x1="369.67" y1="184.59" x2="369.67" y2="177.86" stroke="#999" stroke-width="1"/><line x1="371.37" y1="186.77" x2="371.37" y2="182.68" stroke="#999" stroke-width="1"/><line x1="373.07" y1="183.62" x2="373.07" y2="171.23" stroke="#999" stroke-width="1"/><line x1="374.77" y1="180.14" x2="374.77" y2="172.39" stroke="#999" stroke-width="1"/><line x1="376.47" y1="182.25" x2="376.47" y2="176.59" stroke="#999" stroke-width="1"/><line x1="378.17" y1="181.83" x2="378.17" y2="177.21" stroke="#999" stroke-width="1"/><line x1="379.87" y1="181.83" x2="379.87" y2="174.79" stroke="#999" stroke-width="1"/><line x1="381.58" y1="176.91" x2="381.58" y2="173.03" stroke="#999" stroke-width="1"/><line x1="383.28" y1="180.30" x2="383.28" y2="174.03" stroke="#999" stroke-width="1"/><line x1="384.98" y1="186.04" x2="384.98" y2="170.00" stroke="#999" stroke-width="1"/><line x1="386.68" y1="187.37" x2="386.68" y2="180.22" stroke="#999" stroke-width="1"/><line x1="388.38" y1="186.07" x2="388.38" y2="180.09" stroke="#999" stroke-width="1"/><line x1="390.08" y1="186.98" x2="390.08" y2="179.63" stroke="#999" stroke-width="1"/><line x1="391.78" y1="202.25" x2="391.78" y2="185.16" stroke="#999" stroke-width="1"/><line x1="393.49" y1="198.19" x2="393.49" y2="178.89" stroke="#999" stroke-width="1"/><line x1="395.19" y1="182.83" x2="395.19" y2="176.35" stroke="#999" stroke-width="1"/><line x1="396.89" y1="189.75" x2="396.89" y2="179.00" stroke="#999" stroke-width="1"/><line x1="398.59" y1="189.14" x2="398.59" y2="182.92" stroke="#999" stroke-width="1"/><line x1="400.29" y1="193.77" x2="400.29" y2="182.84" stroke="#999" stroke-width="1"/><line x1="401.99" y1="196.55" x2="401.99" y2="187.60" stroke="#999" stroke-width="1"/><line x1="403.70" y1="195.20" x2="403.70" y2="188.74" stroke="#999" stroke-width="1"/><line x1="405.40" y1="193.98" x2="405.40" y2="188.55" stroke="#999" stroke-width="1"/><line x1="407.10" y1="213.24" x2="407.10" y2="193.10" stroke="#999" stroke-width="1"/><line x1="408.80" y1="209.55" x2="408.80" y2="199.17" stroke="#999" stroke-width="1"/><line x1="410.50" y1="206.73" x2="410.50" y2="198.75" stroke="#999" stroke-width="1"/><line x1="412.20" y1="208.22" x2="412.20" y2="201.46" stroke="#999" stroke-width="1"/><line x1="413.90" y1="211.20" x2="413.90" y2="204.93" stroke="#999" stroke-width="1"/><line x1="415.61" y1="207.13" x2="415.61" y2="201.01" stroke="#999" stroke-width="1"/><line x1="417.31" y1="215.77" x2="417.31" y2="200.88" stroke="#999" stroke-width="1"/><line x1="419.01" y1="209.07" x2="419.01" y2="200.29" stroke="#999" stroke-width="1"/><line x1="420.71" y1="228.27" x2="420.71" y2="191.71" stroke="#999" stroke-width="1"/><line x1="422.41" y1="227.47" x2="422.41" y2="215.35" stroke="#999" stroke-width="1"/><line x1="424.11" y1="224.23" x2="424.11" y2="215.97" stroke="#999" stroke-width="1"/><line x1="425.81" y1="226.28" x2="425.81" y2="208.68" stroke="#999" stroke-width="1"/><line x1="427.52" y1="233.56" x2="427.52" y2="217.89" stroke="#999" stroke-width="1"/><line x1="429.22" y1="242.81" x2="429.22" y2="227.68" stroke="#999" stroke-width="1"/><line x1="430.92" y1="254.15" x2="430.92" y2="229.72" stroke="#999" stroke-width="1"/><line x1="432.62" y1="269.23" x2="432.62" y2="246.31" stroke="#999" stroke-width="1"/><line x1="434.32" y1="285.75" x2="434.32" y2="258.06" stroke="#999" stroke-width="1"/><line x1="436.02" y1="284.18" x2="436.02" y2="266.27" stroke="#999" stroke-width="1"/><line x1="437.72" y1="277.79" x2="437.72" y2="244.17" stroke="#999" stroke-width="1"/><line x1="439.43" y1="274.63" x2="439.43" y2="256.07" stroke="#999" stroke-width="1"/><line x1="441.13" y1="277.31" x2="441.13" y2="260.70" stroke="#999" stroke-width="1"/><line x1="442.83" y1="293.18" x2="442.83" y2="263.62" stroke="#999" stroke-width="1"/><line x1="444.53" y1="300.73" x2="444.53" y2="268.83" stroke="#999" stroke-width="1"/><line x1="446.23" y1="277.58" x2="446.23" y2="257.88" stroke="#999" stroke-width="1"/><line x1="447.93" y1="274.70" x2="447.93" y2="259.22" stroke="#999" stroke-width="1"/><line x1="449.63" y1="278.51" x2="449.63" y2="264.57" stroke="#999" stroke-width="1"/><line x1="451.34" y1="279.11" x2="451.34" y2="260.54" stroke="#999" stroke-width="1"/><line x1="453.04" y1="263.98" x2="453.04" y2="244.42" stroke="#999" stroke-width="1"/><line x1="454.74" y1="249.04" x2="454.74" y2="228.05" stroke="#999" stroke-width="1"/><line x1="456.44" y1="254.10" x2="456.44" y2="239.22" stroke="#999" stroke-width="1"/><line x1="458.14" y1="255.47" x2="458.14" y2="243.55" stroke="#999" stroke-width="1"/><line x1="459.84" y1="261.49" x2="459.84" y2="246.08" stroke="#999" stroke-width="1"/><line x1="461.54" y1="262.92" x2="461.54" y2="255.06" stroke="#999" stroke-width="1"/><line x1="463.25" y1="262.66" x2="463.25" y2="248.42" stroke="#999" stroke-width="1"/><line x1="464.95" y1="256.20" x2="464.95" y2="234.50" stroke="#999" stroke-width="1"/><line x1="466.65" y1="255.73" x2="466.65" y2="234.50" stroke="#999" stroke-width="1"/><line x1="468.35" y1="273.22" x2="468.35" y2="239.80" stroke="#999" stroke-width="1"/><line x1="470.05" y1="272.82" x2="470.05" y2="256.08" stroke="#999" stroke-width="1"/><line x1="471.75" y1="270.14" x2="471.75" y2="258.00" stroke="#999" stroke-width="1"/><line x1="473.46" y1="264.07" x2="473.46" y2="248.94" stroke="#999" stroke-width="1"/><line x1="475.16" y1="258.74" x2="475.16" y2="249.64" stroke="#999" stroke-width="1"/><line x1="476.86" y1="263.91" x2="476.86" y2="251.76" stroke="#999" stroke-width="1"/><line x1="478.56" y1="271.04" x2="478.56" y2="260.54" stroke="#999" stroke-width="1"/><line x1="480.26" y1="288.24" x2="480.26" y2="265.38" stroke="#999" stroke-width="1"/><line x1="481.96" y1="290.26" x2="481.96" y2="270.53" stroke="#999" stroke-width="1"/><line x1="483.66" y1="276.96" x2="483.66" y2="262.74" stroke="#999" stroke-width="1"/><line x1="485.37" y1="274.09" x2="485.37" y2="260.69" stroke="#999" stroke-width="1"/><line x1="487.07" y1="276.96" x2="487.07" y2="266.95" stroke="#999" stroke-width="1"/><line x1="488.77" y1="278.49" x2="488.77" y2="255.53" stroke="#999" stroke-width="1"/><line x1="490.47" y1="265.28" x2="490.47" y2="252.02" stroke="#999" stroke-width="1"/><line x1="492.17" y1="267.42" x2="492.17" y2="259.29" stroke="#999" stroke-width="1"/><line x1="493.87" y1="267.15" x2="493.87" y2="245.46" stroke="#999" stroke-width="1"/><line x1="495.57" y1="285.20" x2="495.57" y2="256.12" stroke="#999" stroke-width="1"/><line x1="497.28" y1="289.07" x2="497.28" y2="273.83" stroke="#999" stroke-width="1"/><line x1="498.98" y1="284.68" x2="498.98" y2="258.90" stroke="#999" stroke-width="1"/><line x1="500.68" y1="267.02" x2="500.68" y2="249.68" stroke="#999" stroke-width="1"/><line x1="502.38" y1="254.94" x2="502.38" y2="238.07" stroke="#999" stroke-width="1"/><line x1="504.08" y1="257.60" x2="504.08" y2="246.84" stroke="#999" stroke-width="1"/><line x1="505.78" y1="317.70" x2="505.78" y2="249.83" stroke="#999" stroke-width="1"/><line x1="507.48" y1="315.62" x2="507.48" y2="247.67" stroke="#999" stroke-width="1"/><line x1="509.19" y1="276.07" x2="509.19" y2="243.86" stroke="#999" stroke-width="1"/><line x1="510.89" y1="274.54" x2="510.89" y2="248.24" stroke="#999" stroke-width="1"/><line x1="512.59" y1="288.78" x2="512.59" y2="266.03" stroke="#999" stroke-width="1"/><line x1="514.29" y1="308.79" x2="514.29" y2="284.47" stroke="#999" stroke-width="1"/><line x1="515.99" y1="300.21" x2="515.99" y2="287.56" stroke="#999" stroke-width="1"/><line x1="517.69" y1="314.44" x2="517.69" y2="293.02" stroke="#999" stroke-width="1"/><line x1="519.39" y1="338.66" x2="519.39" y2="302.59" stroke="#999" stroke-width="1"/><line x1="521.10" y1="349.42" x2="521.10" y2="311.05" stroke="#999" stroke-width="1"/><line x1="522.80" y1="330.33" x2="522.80" y2="309.29" stroke="#999" stroke-width="1"/><line x1="524.50" y1="328.34" x2="524.50" y2="315.84" stroke="#999" stroke-width="1"/><line x1="526.20" y1="319.46" x2="526.20" y2="288.31" stroke="#999" stroke-width="1"/><line x1="527.90" y1="316.00" x2="527.90" y2="293.66" stroke="#999" stroke-width="1"/><line x1="529.60" y1="326.43" x2="529.60" y2="307.23" stroke="#999" stroke-width="1"/><line x1="531.30" y1="334.72" x2="531.30" y2="319.07" stroke="#999" stroke-width="1"/><line x1="533.01" y1="365.97" x2="533.01" y2="331.74" stroke="#999" stroke-width="1"/><line x1="534.71" y1="374.66" x2="534.71" y2="346.73" stroke="#999" stroke-width="1"/><line x1="536.41" y1="368.97" x2="536.41" y2="344.19" stroke="#999" stroke-width="1"/><line x1="538.11" y1="375.00" x2="538.11" y2="319.76" stroke="#999" stroke-width="1"/><line x1="539.81" y1="356.05" x2="539.81" y2="333.97" stroke="#999" stroke-width="1"/><line x1="541.51" y1="346.02" x2="541.51" y2="321.32" stroke="#999" stroke-width="1"/><line x1="543.22" y1="348.61" x2="543.22" y2="320.01" stroke="#999" stroke-width="1"/><line x1="544.92" y1="333.12" x2="544.92" y2="309.71" stroke="#999" stroke-width="1"/><line x1="546.62" y1="343.47" x2="546.62" y2="323.80" stroke="#999" stroke-width="1"/><line x1="548.32" y1="345.54" x2="548.32" y2="319.29" stroke="#999" stroke-width="1"/><line x1="550.02" y1="344.56" x2="550.02" y2="302.72" stroke="#999" stroke-width="1"/><line x1="551.72" y1="318.26" x2="551.72" y2="298.57" stroke="#999" stroke-width="1"/><line x1="553.42" y1="320.50" x2="553.42" y2="294.89" stroke="#999" stroke-width="1"/><line x1="555.13" y1="329.68" x2="555.13" y2="299.78" stroke="#999" stroke-width="1"/><line x1="556.83" y1="339.26" x2="556.83" y2="323.68" stroke="#999" stroke-width="1"/><line x1="558.53" y1="336.45" x2="558.53" y2="321.71" stroke="#999" stroke-width="1"/><line x1="560.23" y1="330.99" x2="560.23" y2="319.54" stroke="#999" stroke-width="1"/><line x1="561.93" y1="343.40" x2="561.93" y2="328.36" stroke="#999" stroke-width="1"/><line x1="563.63" y1="335.18" x2="563.63" y2="322.84" stroke="#999" stroke-width="1"/><line x1="565.33" y1="323.17" x2="565.33" y2="311.40" stroke="#999" stroke-width="1"/><line x1="567.04" y1="324.94" x2="567.04" y2="303.96" stroke="#999" stroke-width="1"/><line x1="568.74" y1="312.36" x2="568.74" y2="300.36" stroke="#999" stroke-width="1"/><line x1="570.44" y1="308.25" x2="570.44" y2="288.48" stroke="#999" stroke-width="1"/><line x1="572.14" y1="293.39" x2="572.14" y2="274.22" stroke="#999" stroke-width="1"/><line x1="573.84" y1="287.57" x2="573.84" y2="278.63" stroke="#999" stroke-width="1"/><line x1="575.54" y1="283.32" x2="575.54" y2="267.24" stroke="#999" stroke-width="1"/><line x1="577.24" y1="285.95" x2="577.24" y2="276.77" stroke="#999" stroke-width="1"/><line x1="578.95" y1="289.98" x2="578.95" y2="281.63" stroke="#999" stroke-width="1"/><line x1="580.65" y1="289.75" x2="580.65" y2="282.45" stroke="#999" stroke-width="1"/><line x1="582.35" y1="285.77" x2="582.35" y2="275.07" stroke="#999" stroke-width="1"/><line x1="584.05" y1="289.70" x2="584.05" y2="280.27" stroke="#999" stroke-width="1"/><line x1="585.75" y1="287.43" x2="585.75" y2="275.03" stroke="#999" stroke-width="1"/><line x1="587.45" y1="282.93" x2="587.45" y2="272.97" stroke="#999" stroke-width="1"/><line x1="589.15" y1="285.50" x2="589.15" y2="272.49" stroke="#999" stroke-width="1"/><line x1="590.86" y1="278.78" x2="590.86" y2="268.44" stroke="#999" stroke-width="1"/><line x1="592.56" y1="288.38" x2="592.56" y2="275.99" stroke="#999" stroke-width="1"/><line x1="594.26" y1="300.90" x2="594.26" y2="281.13" stroke="#999" stroke-width="1"/><line x1="595.96" y1="304.84" x2="595.96" y2="286.76" stroke="#999" stroke-width="1"/><line x1="597.66" y1="309.36" x2="597.66" y2="287.81" stroke="#999" stroke-width="1"/><line x1="599.36" y1="295.27" x2="599.36" y2="287.63" stroke="#999" stroke-width="1"/><line x1="601.06" y1="299.39" x2="601.06" y2="291.01" stroke="#999" stroke-width="1"/><line x1="602.77" y1="301.20" x2="602.77" y2="291.73" stroke="#999" stroke-width="1"/><line x1="604.47" y1="298.99" x2="604.47" y2="290.75" stroke="#999" stroke-width="1"/><line x1="606.17" y1="313.75" x2="606.17" y2="297.88" stroke="#999" stroke-width="1"/><line x1="607.87" y1="313.40" x2="607.87" y2="302.97" stroke="#999" stroke-width="1"/><line x1="609.57" y1="309.84" x2="609.57" y2="298.47" stroke="#999" stroke-width="1"/><line x1="611.27" y1="306.11" x2="611.27" y2="299.81" stroke="#999" stroke-width="1"/><line x1="612.97" y1="307.23" x2="612.97" y2="301.96" stroke="#999" stroke-width="1"/><line x1="614.68" y1="313.31" x2="614.68" y2="304.20" stroke="#999" stroke-width="1"/><line x1="616.38" y1="312.07" x2="616.38" y2="305.70" stroke="#999" stroke-width="1"/><line x1="618.08" y1="309.17" x2="618.08" y2="303.86" stroke="#999" stroke-width="1"/><line x1="619.78" y1="308.77" x2="619.78" y2="304.51" stroke="#999" stroke-width="1"/><line x1="621.48" y1="309.83" x2="621.48" y2="304.26" stroke="#999" stroke-width="1"/><line x1="623.18" y1="309.72" x2="623.18" y2="304.20" stroke="#999" stroke-width="1"/><line x1="624.89" y1="312.49" x2="624.89" y2="306.51" stroke="#999" stroke-width="1"/><line x1="626.59" y1="323.80" x2="626.59" y2="309.57" stroke="#999" stroke-width="1"/><line x1="628.29" y1="320.08" x2="628.29" y2="312.38" stroke="#999" stroke-width="1"/><line x1="629.99" y1="324.57" x2="629.99" y2="314.56" stroke="#999" stroke-width="1"/><line x1="631.69" y1="327.52" x2="631.69" y2="319.16" stroke="#999" stroke-width="1"/><line x1="633.39" y1="324.74" x2="633.39" y2="316.46" stroke="#999" stroke-width="1"/><line x1="635.09" y1="327.94" x2="635.09" y2="302.10" stroke="#999" stroke-width="1"/><line x1="636.80" y1="312.63" x2="636.80" y2="303.31" stroke="#999" stroke-width="1"/><line x1="638.50" y1="307.18" x2="638.50" y2="295.65" stroke="#999" stroke-width="1"/><line x1="640.20" y1="311.83" x2="640.20" y2="302.76" stroke="#999" stroke-width="1"/><line x1="641.90" y1="311.50" x2="641.90" y2="302.47" stroke="#999" stroke-width="1"/><line x1="643.60" y1="309.74" x2="643.60" y2="297.06" stroke="#999" stroke-width="1"/><line x1="645.30" y1="304.35" x2="645.30" y2="285.52" stroke="#999" stroke-width="1"/><line x1="647.00" y1="296.51" x2="647.00" y2="286.51" stroke="#999" stroke-width="1"/><line x1="648.71" y1="295.69" x2="648.71" y2="287.29" stroke="#999" stroke-width="1"/><line x1="650.41" y1="298.52" x2="650.41" y2="294.04" stroke="#999" stroke-width="1"/><line x1="652.11" y1="300.38" x2="652.11" y2="292.18" stroke="#999" stroke-width="1"/><line x1="653.81" y1="305.40" x2="653.81" y2="296.71" stroke="#999" stroke-width="1"/><line x1="655.51" y1="307.22" x2="655.51" y2="298.99" stroke="#999" stroke-width="1"/><line x1="657.21" y1="306.59" x2="657.21" y2="297.93" stroke="#999" stroke-width="1"/><line x1="658.91" y1="301.00" x2="658.91" y2="293.68" stroke="#999" stroke-width="1"/><line x1="660.62" y1="299.43" x2="660.62" y2="292.40" stroke="#999" stroke-width="1"/><line x1="662.32" y1="307.73" x2="662.32" y2="297.51" stroke="#999" stroke-width="1"/><line x1="664.02" y1="305.15" x2="664.02" y2="299.44" stroke="#999" stroke-width="1"/><line x1="665.72" y1="304.85" x2="665.72" y2="295.05" stroke="#999" stroke-width="1"/><line x1="667.42" y1="299.39" x2="667.42" y2="285.35" stroke="#999" stroke-width="1"/><line x1="669.12" y1="289.52" x2="669.12" y2="280.17" stroke="#999" stroke-width="1"/><line x1="670.82" y1="291.58" x2="670.82" y2="284.11" stroke="#999" stroke-width="1"/><line x1="672.53" y1="299.65" x2="672.53" y2="288.50" stroke="#999" stroke-width="1"/><line x1="674.23" y1="297.87" x2="674.23" y2="289.35" stroke="#999" stroke-width="1"/><line x1="675.93" y1="295.15" x2="675.93" y2="286.55" stroke="#999" stroke-width="1"/><line x1="677.63" y1="294.90" x2="677.63" y2="286.79" stroke="#999" stroke-width="1"/><line x1="679.33" y1="295.52" x2="679.33" y2="282.87" stroke="#999" stroke-width="1"/><line x1="681.03" y1="289.34" x2="681.03" y2="281.61" stroke="#999" stroke-width="1"/><line x1="682.73" y1="285.02" x2="682.73" y2="261.79" stroke="#999" stroke-width="1"/><line x1="684.44" y1="272.45" x2="684.44" y2="264.07" stroke="#999" stroke-width="1"/><line x1="686.14" y1="267.36" x2="686.14" y2="257.47" stroke="#999" stroke-width="1"/><line x1="687.84" y1="267.91" x2="687.84" y2="256.95" stroke="#999" stroke-width="1"/><line x1="689.54" y1="268.18" x2="689.54" y2="260.92" stroke="#999" stroke-width="1"/><line x1="691.24" y1="277.02" x2="691.24" y2="265.21" stroke="#999" stroke-width="1"/><line x1="692.94" y1="284.56" x2="692.94" y2="274.76" stroke="#999" stroke-width="1"/><line x1="694.65" y1="288.87" x2="694.65" y2="281.16" stroke="#999" stroke-width="1"/><line x1="696.35" y1="291.06" x2="696.35" y2="283.07" stroke="#999" stroke-width="1"/><line x1="698.05" y1="287.83" x2="698.05" y2="282.28" stroke="#999" stroke-width="1"/><line x1="699.75" y1="309.63" x2="699.75" y2="286.90" stroke="#999" stroke-width="1"/><line x1="701.45" y1="311.00" x2="701.45" y2="300.57" stroke="#999" stroke-width="1"/><line x1="703.15" y1="304.65" x2="703.15" y2="296.89" stroke="#999" stroke-width="1"/><line x1="704.85" y1="306.93" x2="704.85" y2="298.95" stroke="#999" stroke-width="1"/><line x1="706.56" y1="308.17" x2="706.56" y2="289.08" stroke="#999" stroke-width="1"/><line x1="708.26" y1="295.89" x2="708.26" y2="289.20" stroke="#999" stroke-width="1"/><line x1="709.96" y1="304.35" x2="709.96" y2="287.60" stroke="#999" stroke-width="1"/><line x1="711.66" y1="307.70" x2="711.66" y2="291.95" stroke="#999" stroke-width="1"/><line x1="713.36" y1="307.52" x2="713.36" y2="297.78" stroke="#999" stroke-width="1"/><line x1="715.06" y1="310.77" x2="715.06" y2="300.69" stroke="#999" stroke-width="1"/><line x1="716.76" y1="316.96" x2="716.76" y2="300.36" stroke="#999" stroke-width="1"/><line x1="718.47" y1="312.60" x2="718.47" y2="298.49" stroke="#999" stroke-width="1"/><line x1="720.17" y1="302.67" x2="720.17" y2="294.14" stroke="#999" stroke-width="1"/><line x1="721.87" y1="305.49" x2="721.87" y2="294.65" stroke="#999" stroke-width="1"/><line x1="723.57" y1="305.46" x2="723.57" y2="295.30" stroke="#999" stroke-width="1"/><line x1="725.27" y1="296.24" x2="725.27" y2="287.29" stroke="#999" stroke-width="1"/><line x1="726.97" y1="294.52" x2="726.97" y2="288.33" stroke="#999" stroke-width="1"/><line x1="728.67" y1="298.40" x2="728.67" y2="291.21" stroke="#999" stroke-width="1"/><line x1="730.38" y1="298.94" x2="730.38" y2="288.53" stroke="#999" stroke-width="1"/><line x1="732.08" y1="299.68" x2="732.08" y2="289.31" stroke="#999" stroke-width="1"/><line x1="733.78" y1="296.71" x2="733.78" y2="290.36" stroke="#999" stroke-width="1"/><line x1="735.48" y1="293.63" x2="735.48" y2="281.13" stroke="#999" stroke-width="1"/><line x1="737.18" y1="287.98" x2="737.18" y2="283.10" stroke="#999" stroke-width="1"/><line x1="738.88" y1="287.10" x2="738.88" y2="280.86" stroke="#999" stroke-width="1"/><line x1="740.58" y1="285.33" x2="740.58" y2="280.55" stroke="#999" stroke-width="1"/><line x1="742.29" y1="285.45" x2="742.29" y2="279.67" stroke="#999" stroke-width="1"/><line x1="743.99" y1="284.24" x2="743.99" y2="274.78" stroke="#999" stroke-width="1"/><line x1="745.69" y1="280.01" x2="745.69" y2="275.41" stroke="#999" stroke-width="1"/><line x1="747.39" y1="282.86" x2="747.39" y2="277.97" stroke="#999" stroke-width="1"/><line x1="749.09" y1="287.29" x2="749.09" y2="280.74" stroke="#999" stroke-width="1"/><line x1="750.79" y1="286.93" x2="750.79" y2="277.93" stroke="#999" stroke-width="1"/><line x1="752.49" y1="284.80" x2="752.49" y2="275.35" stroke="#999" stroke-width="1"/><line x1="754.20" y1="295.47" x2="754.20" y2="280.14" stroke="#999" stroke-width="1"/><line x1="755.90" y1="294.58" x2="755.90" y2="288.14" stroke="#999" stroke-width="1"/><line x1="757.60" y1="297.06" x2="757.60" y2="288.31" stroke="#999" stroke-width="1"/><line x1="759.30" y1="291.79" x2="759.30" y2="287.36" stroke="#999" stroke-width="1"/><line x1="761.00" y1="307.99" x2="761.00" y2="288.01" stroke="#999" stroke-width="1"/><line x1="762.70" y1="298.65" x2="762.70" y2="286.25" stroke="#999" stroke-width="1"/><line x1="764.41" y1="292.72" x2="764.41" y2="288.48" stroke="#999" stroke-width="1"/><line x1="766.11" y1="292.00" x2="766.11" y2="277.56" stroke="#999" stroke-width="1"/><line x1="767.81" y1="287.93" x2="767.81" y2="278.85" stroke="#999" stroke-width="1"/><line x1="769.51" y1="285.21" x2="769.51" y2="279.82" stroke="#999" stroke-width="1"/><line x1="771.21" y1="283.62" x2="771.21" y2="276.39" stroke="#999" stroke-width="1"/><line x1="772.91" y1="292.29" x2="772.91" y2="281.29" stroke="#999" stroke-width="1"/><line x1="774.61" y1="291.88" x2="774.61" y2="288.26" stroke="#999" stroke-width="1"/><line x1="776.32" y1="300.58" x2="776.32" y2="288.50" stroke="#999" stroke-width="1"/><line x1="778.02" y1="300.06" x2="778.02" y2="295.80" stroke="#999" stroke-width="1"/><line x1="779.72" y1="299.10" x2="779.72" y2="293.00" stroke="#999" stroke-width="1"/><line x1="781.42" y1="300.50" x2="781.42" y2="291.78" stroke="#999" stroke-width="1"/><line x1="783.12" y1="301.97" x2="783.12" y2="295.89" stroke="#999" stroke-width="1"/><line x1="784.82" y1="300.45" x2="784.82" y2="295.02" stroke="#999" stroke-width="1"/><line x1="786.52" y1="299.92" x2="786.52" y2="293.54" stroke="#999" stroke-width="1"/><line x1="788.23" y1="296.48" x2="788.23" y2="292.79" stroke="#999" stroke-width="1"/><line x1="789.93" y1="300.06" x2="789.93" y2="294.71" stroke="#999" stroke-width="1"/><line x1="791.63" y1="305.92" x2="791.63" y2="296.42" stroke="#999" stroke-width="1"/><line x1="793.33" y1="311.79" x2="793.33" y2="302.02" stroke="#999" stroke-width="1"/><line x1="795.03" y1="317.20" x2="795.03" y2="306.54" stroke="#999" stroke-width="1"/><line x1="796.73" y1="321.94" x2="796.73" y2="312.79" stroke="#999" stroke-width="1"/><line x1="798.43" y1="325.16" x2="798.43" y2="312.09" stroke="#999" stroke-width="1"/><line x1="800.14" y1="320.46" x2="800.14" y2="313.13" stroke="#999" stroke-width="1"/><line x1="801.84" y1="321.79" x2="801.84" y2="312.35" stroke="#999" stroke-width="1"/><line x1="803.54" y1="314.32" x2="803.54" y2="305.40" stroke="#999" stroke-width="1"/><line x1="805.24" y1="319.85" x2="805.24" y2="311.61" stroke="#999" stroke-width="1"/><line x1="806.94" y1="316.36" x2="806.94" y2="310.31" stroke="#999" stroke-width="1"/><line x1="808.64" y1="321.02" x2="808.64" y2="308.35" stroke="#999" stroke-width="1"/><line x1="810.34" y1="327.49" x2="810.34" y2="316.29" stroke="#999" stroke-width="1"/><line x1="812.05" y1="326.34" x2="812.05" y2="317.38" stroke="#999" stroke-width="1"/><line x1="813.75" y1="325.81" x2="813.75" y2="317.77" stroke="#999" stroke-width="1"/><line x1="815.45" y1="326.57" x2="815.45" y2="309.89" stroke="#999" stroke-width="1"/><line x1="817.15" y1="316.76" x2="817.15" y2="310.58" stroke="#999" stroke-width="1"/><line x1="818.85" y1="316.72" x2="818.85" y2="311.55" stroke="#999" stroke-width="1"/><line x1="820.55" y1="318.55" x2="820.55" y2="313.89" stroke="#999" stroke-width="1"/><line x1="822.25" y1="317.35" x2="822.25" y2="307.91" stroke="#999" stroke-width="1"/><line x1="823.96" y1="316.81" x2="823.96" y2="310.09" stroke="#999" stroke-width="1"/><line x1="825.66" y1="319.83" x2="825.66" y2="312.44" stroke="#999" stroke-width="1"/><line x1="827.36" y1="322.48" x2="827.36" y2="317.41" stroke="#999" stroke-width="1"/><line x1="829.06" y1="320.44" x2="829.06" y2="312.14" stroke="#999" stroke-width="1"/><line x1="830.76" y1="315.86" x2="830.76" y2="305.44" stroke="#999" stroke-width="1"/><line x1="832.46" y1="309.52" x2="832.46" y2="302.63" stroke="#999" stroke-width="1"/><line x1="834.16" y1="310.09" x2="834.16" y2="299.38" stroke="#999" stroke-width="1"/><line x1="835.87" y1="306.44" x2="835.87" y2="296.51" stroke="#999" stroke-width="1"/><line x1="837.57" y1="299.06" x2="837.57" y2="280.48" stroke="#999" stroke-width="1"/><line x1="839.27" y1="291.84" x2="839.27" y2="282.92" stroke="#999" stroke-width="1"/><line x1="840.97" y1="295.01" x2="840.97" y2="287.51" stroke="#999" stroke-width="1"/><line x1="842.67" y1="290.68" x2="842.67" y2="285.09" stroke="#999" stroke-width="1"/><line x1="844.37" y1="295.02" x2="844.37" y2="286.46" stroke="#999" stroke-width="1"/><line x1="846.08" y1="295.42" x2="846.08" y2="287.36" stroke="#999" stroke-width="1"/><line x1="847.78" y1="289.06" x2="847.78" y2="282.08" stroke="#999" stroke-width="1"/><line x1="849.48" y1="291.24" x2="849.48" y2="287.12" stroke="#999" stroke-width="1"/><line x1="851.18" y1="290.02" x2="851.18" y2="284.11" stroke="#999" stroke-width="1"/><line x1="852.88" y1="290.63" x2="852.88" y2="285.23" stroke="#999" stroke-width="1"/><line x1="854.58" y1="290.77" x2="854.58" y2="274.39" stroke="#999" stroke-width="1"/><line x1="856.28" y1="288.46" x2="856.28" y2="281.42" stroke="#999" stroke-width="1"/><line x1="857.99" y1="290.62" x2="857.99" y2="285.45" stroke="#999" stroke-width="1"/><line x1="859.69" y1="293.81" x2="859.69" y2="288.08" stroke="#999" stroke-width="1"/><line x1="861.39" y1="293.54" x2="861.39" y2="289.17" stroke="#999" stroke-width="1"/><line x1="863.09" y1="297.75" x2="863.09" y2="289.42" stroke="#999" stroke-width="1"/><line x1="864.79" y1="294.79" x2="864.79" y2="285.17" stroke="#999" stroke-width="1"/><line x1="866.49" y1="290.40" x2="866.49" y2="284.26" stroke="#999" stroke-width="1"/><line x1="868.19" y1="291.30" x2="868.19" y2="284.34" stroke="#999" stroke-width="1"/><line x1="869.90" y1="287.51" x2="869.90" y2="283.40" stroke="#999" stroke-width="1"/><line x1="871.60" y1="287.83" x2="871.60" y2="280.77" stroke="#999" stroke-width="1"/><line x1="873.30" y1="292.34" x2="873.30" y2="282.96" stroke="#999" stroke-width="1"/><line x1="875.00" y1="291.74" x2="875.00" y2="283.28" stroke="#999" stroke-width="1"/><polyline points="60.00,89.35 61.70,83.88 63.40,85.05 65.10,88.62 66.81,87.27 68.51,84.00 70.21,87.55 71.91,88.14 73.61,89.38 75.31,104.76 77.01,103.50 78.72,97.07 80.42,100.16 82.12,94.71 83.82,96.86 85.52,94.33 87.22,96.79 88.92,96.42 90.63,94.84 92.33,96.26 94.03,94.94 95.73,97.13 97.43,96.27 99.13,97.57 100.84,95.92 102.54,83.43 104.24,83.11 105.94,86.07 107.64,97.00 109.34,100.47 111.04,87.84 112.75,87.08 114.45,87.98 116.15,83.94 117.85,79.02 119.55,83.39 121.25,80.17 122.95,78.81 124.66,71.29 126.36,70.51 128.06,72.46 129.76,73.60 131.46,72.76 133.16,76.31 134.86,78.04 136.57,82.27 138.27,83.37 139.97,72.73 141.67,74.67 143.37,78.23 145.07,82.00 146.77,86.38 148.48,90.34 150.18,81.85 151.88,87.83 153.58,79.63 155.28,81.11 156.98,82.72 158.68,85.50 160.39,82.78 162.09,85.57 163.79,82.87 165.49,83.26 167.19,82.68 168.89,84.09 170.59,81.83 172.30,82.38 174.00,84.29 175.70,85.24 177.40,81.54 179.10,84.62 180.80,86.39 182.51,88.71 184.21,87.52 185.91,92.06 187.61,94.55 189.31,101.48 191.01,102.75 192.71,101.00 194.42,100.65 196.12,102.03 197.82,102.36 199.52,97.97 201.22,98.46 202.92,96.36 204.62,95.23 206.33,95.77 208.03,93.52 209.73,85.55 211.43,78.37 213.13,71.68 214.83,73.86 216.53,71.10 218.24,70.78 219.94,71.88 221.64,78.09 223.34,76.11 225.04,71.52 226.74,65.98 228.44,71.12 230.15,55.40 231.85,49.61 233.55,50.66 235.25,52.30 236.95,53.75 238.65,53.54 240.35,54.51 242.06,55.20 243.76,51.46 245.46,52.70 247.16,52.13 248.86,55.81 250.56,57.10 252.27,55.93 253.97,58.74 255.67,58.75 257.37,58.06 259.07,58.56 260.77,58.35 262.47,71.17 264.18,90.13 265.88,122.70 267.58,119.45 269.28,125.01 270.98,135.56 272.68,137.11 274.38,133.32 276.09,134.01 277.79,139.20 279.49,131.44 281.19,135.89 282.89,137.57 284.59,134.28 286.29,133.65 288.00,134.45 289.70,132.79 291.40,134.90 293.10,136.00 294.80,139.61 296.50,135.05 298.20,146.65 299.91,150.50 301.61,149.24 303.31,151.58 305.01,141.38 306.71,145.07 308.41,139.80 310.11,147.68 311.82,146.47 313.52,145.20 315.22,143.18 316.92,146.17 318.62,145.19 320.32,144.83 322.03,145.31 323.73,144.85 325.43,146.34 327.13,149.93 328.83,151.53 330.53,147.77 332.23,149.83 333.94,147.12 335.64,144.81 337.34,145.58 339.04,143.11 340.74,143.71 342.44,144.34 344.14,147.60 345.85,146.14 347.55,146.11 349.25,145.97 350.95,147.91 352.65,147.83 354.35,148.37 356.05,150.61 357.76,169.28 359.46,169.06 361.16,158.42 362.86,167.47 364.56,174.28 366.26,180.35 367.96,182.67 369.67,184.58 371.37,183.62 373.07,175.18 374.77,179.91 376.47,178.37 378.17,180.65 379.87,176.57 381.58,175.24 383.28,179.19 384.98,185.75 386.68,183.49 388.38,185.82 390.08,185.27 391.78,192.92 393.49,182.17 395.19,180.30 396.89,189.14 398.59,183.29 400.29,187.93 401.99,193.83 403.70,191.04 405.40,193.50 407.10,207.06 408.80,205.69 410.50,203.71 412.20,206.80 413.90,205.37 415.61,206.57 417.31,203.00 419.01,207.21 420.71,223.77 422.41,216.46 424.11,223.16 425.81,218.71 427.52,233.13 429.22,235.90 430.92,252.10 432.62,262.58 434.32,274.30 436.02,270.59 437.72,270.15 439.43,272.76 441.13,266.77 442.83,291.82 444.53,274.67 446.23,271.99 447.93,268.07 449.63,278.06 451.34,263.66 453.04,248.81 454.74,242.43 456.44,254.09 458.14,250.52 459.84,259.37 461.54,261.37 463.25,253.39 464.95,240.08 466.65,248.79 468.35,267.12 470.05,261.41 471.75,263.69 473.46,252.23 475.16,253.90 476.86,260.87 478.56,269.04 480.26,288.24 481.96,274.57 483.66,268.84 485.37,268.13 487.07,275.02 488.77,257.39 490.47,264.15 492.17,263.85 493.87,258.08 495.57,281.54 497.28,278.40 498.98,259.17 500.68,250.44 502.38,248.33 504.08,256.09 505.78,310.19 507.48,263.73 509.19,249.03 510.89,269.70 512.59,285.75 514.29,295.62 515.99,295.97 517.69,309.41 519.39,331.21 521.10,315.84 522.80,322.00 524.50,316.32 526.20,298.30 527.90,313.33 529.60,323.43 531.30,333.73 533.01,348.73 534.71,365.13 536.41,365.98 538.11,337.93 539.81,341.08 541.51,341.55 543.22,327.41 544.92,330.19 546.62,330.94 548.32,338.32 550.02,304.59 551.72,318.24 553.42,301.51 555.13,327.80 556.83,334.90 558.53,327.77 560.23,328.37 561.93,332.77 563.63,323.17 565.33,318.25 567.04,305.19 568.74,305.86 570.44,290.54 572.14,279.54 573.84,282.44 575.54,280.85 577.24,284.36 578.95,289.65 580.65,285.77 582.35,283.05 584.05,282.13 585.75,277.31 587.45,276.25 589.15,275.20 590.86,276.69 592.56,285.75 594.26,295.68 595.96,303.91 597.66,290.74 599.36,292.18 601.06,299.21 602.77,293.02 604.47,298.76 606.17,311.92 607.87,306.35 609.57,301.25 611.27,305.98 612.97,304.72 614.68,310.07 616.38,307.69 618.08,306.38 619.78,308.05 621.48,305.56 623.18,306.54 624.89,310.74 626.59,317.10 628.29,316.13 629.99,323.01 631.69,320.28 633.39,323.46 635.09,310.31 636.80,303.85 638.50,305.94 640.20,310.42 641.90,309.52 643.60,301.54 645.30,288.06 647.00,291.83 648.71,294.89 650.41,295.65 652.11,297.74 653.81,300.90 655.51,303.60 657.21,298.94 658.91,294.79 660.62,298.33 662.32,304.34 664.02,300.16 665.72,295.05 667.42,288.10 669.12,286.46 670.82,289.48 672.53,294.58 674.23,293.83 675.93,288.62 677.63,294.21 679.33,286.11 681.03,282.47 682.73,267.62 684.44,267.36 686.14,267.02 687.84,260.93 689.54,266.30 691.24,274.90 692.94,281.78 694.65,286.10 696.35,285.92 698.05,286.94 699.75,304.56 701.45,304.18 703.15,298.95 704.85,303.76 706.56,289.70 708.26,295.45 709.96,296.68 711.66,306.14 713.36,306.65 715.06,302.06 716.76,311.02 718.47,300.77 720.17,296.30 721.87,304.62 723.57,295.39 725.27,289.76 726.97,293.71 728.67,297.30 730.38,290.14 732.08,294.07 733.78,292.45 735.48,285.10 737.18,284.61 738.88,282.49 740.58,280.89 742.29,283.72 743.99,279.87 745.69,278.29 747.39,282.55 749.09,286.18 750.79,279.42 752.49,281.11 754.20,292.45 755.90,290.19 757.60,290.31 759.30,291.70 761.00,297.67 762.70,291.71 764.41,291.37 766.11,280.34 767.81,285.21 769.51,282.99 771.21,281.63 772.91,290.92 774.61,288.58 776.32,298.37 778.02,298.20 779.72,293.25 781.42,300.46 783.12,296.02 784.82,297.09 786.52,295.03 788.23,295.24 789.93,297.99 791.63,305.26 793.33,310.21 795.03,312.79 796.73,319.22 798.43,313.26 800.14,319.25 801.84,313.57 803.54,312.07 805.24,312.89 806.94,313.68 808.64,319.44 810.34,325.85 812.05,320.90 813.75,324.69 815.45,314.63 817.15,313.76 818.85,316.44 820.55,317.33 822.25,310.92 823.96,314.02 825.66,319.67 827.36,318.67 829.06,313.74 830.76,306.45 832.46,306.51 834.16,306.11 835.87,297.38 837.57,284.41 839.27,290.32 840.97,289.33 842.67,288.48 844.37,295.01 846.08,287.37 847.78,287.12 849.48,289.31 851.18,286.38 852.88,287.46 854.58,282.32 856.28,285.77 857.99,289.73 859.69,291.51 861.39,289.43 863.09,293.81 864.79,287.55 866.49,289.59 868.19,286.69 869.90,283.64 871.60,283.79 873.30,287.78 875.00,285.23" fill="none" stroke="#111" stroke-width="2"/><line x1="60" y1="375" x2="875" y2="375" stroke="#222"/><line x1="60" y1="45" x2="60" y2="375" stroke="#222"/><text x="450.0" y="410" text-anchor="middle" font-family="Arial" font-size="12">Bars before checkpoint</text><text transform="translate(14 210.0) rotate(-90)" text-anchor="middle" font-family="Arial" font-size="12">Normalized price (checkpoint close=100)</text></svg>