<svg xmlns="http://www.w3.org/2000/svg" width="900" height="420" viewBox="0 0 900 420"><rect width="100%" height="100%" fill="white"/><text x="450.0" y="24" text-anchor="middle" font-family="Arial" font-size="18">G2-SV-0031 1H</text><line x1="60" y1="45.00" x2="875" y2="45.00" stroke="#ddd" stroke-width="1"/><text x="5" y="49.00" font-size="11">144.15</text><line x1="60" y1="111.00" x2="875" y2="111.00" stroke="#ddd" stroke-width="1"/><text x="5" y="115.00" font-size="11">126.48</text><line x1="60" y1="177.00" x2="875" y2="177.00" stroke="#ddd" stroke-width="1"/><text x="5" y="181.00" font-size="11">108.80</text><line x1="60" y1="243.00" x2="875" y2="243.00" stroke="#ddd" stroke-width="1"/><text x="5" y="247.00" font-size="11">91.13</text><line x1="60" y1="309.00" x2="875" y2="309.00" stroke="#ddd" stroke-width="1"/><text x="5" y="313.00" font-size="11">73.46</text><line x1="60" y1="375.00" x2="875" y2="375.00" stroke="#ddd" stroke-width="1"/><text x="5" y="379.00" font-size="11">55.78</text><line x1="60.00" y1="364.70" x2="60.00" y2="361.75" stroke="#999" stroke-width="1"/><line x1="61.70" y1="375.00" x2="61.70" y2="363.96" stroke="#999" stroke-width="1"/><line x1="63.40" y1="368.13" x2="63.40" y2="365.43" stroke="#999" stroke-width="1"/><line x1="65.10" y1="368.13" x2="65.10" y2="367.15" stroke="#999" stroke-width="1"/><line x1="66.81" y1="367.39" x2="66.81" y2="367.39" stroke="#999" stroke-width="1"/><line x1="68.51" y1="367.39" x2="68.51" y2="367.39" stroke="#999" stroke-width="1"/><line x1="70.21" y1="368.38" x2="70.21" y2="367.64" stroke="#999" stroke-width="1"/><line x1="71.91" y1="366.41" x2="71.91" y2="366.17" stroke="#999" stroke-width="1"/><line x1="73.61" y1="367.39" x2="73.61" y2="366.66" stroke="#999" stroke-width="1"/><line x1="75.31" y1="367.39" x2="75.31" y2="366.66" stroke="#999" stroke-width="1"/><line x1="77.01" y1="367.39" x2="77.01" y2="366.90" stroke="#999" stroke-width="1"/><line x1="78.72" y1="368.62" x2="78.72" y2="366.90" stroke="#999" stroke-width="1"/><line x1="80.42" y1="368.87" x2="80.42" y2="366.90" stroke="#999" stroke-width="1"/><line x1="82.12" y1="369.60" x2="82.12" y2="367.88" stroke="#999" stroke-width="1"/><line x1="83.82" y1="373.53" x2="83.82" y2="367.88" stroke="#999" stroke-width="1"/><line x1="85.52" y1="368.38" x2="85.52" y2="368.13" stroke="#999" stroke-width="1"/><line x1="87.22" y1="368.38" x2="87.22" y2="365.68" stroke="#999" stroke-width="1"/><line x1="88.92" y1="368.13" x2="88.92" y2="366.41" stroke="#999" stroke-width="1"/><line x1="90.63" y1="368.38" x2="90.63" y2="366.17" stroke="#999" stroke-width="1"/><line x1="92.33" y1="366.66" x2="92.33" y2="365.43" stroke="#999" stroke-width="1"/><line x1="94.03" y1="368.38" x2="94.03" y2="366.17" stroke="#999" stroke-width="1"/><line x1="95.73" y1="368.38" x2="95.73" y2="365.68" stroke="#999" stroke-width="1"/><line x1="97.43" y1="367.39" x2="97.43" y2="359.30" stroke="#999" stroke-width="1"/><line x1="99.13" y1="366.17" x2="99.13" y2="364.20" stroke="#999" stroke-width="1"/><line x1="100.84" y1="368.87" x2="100.84" y2="366.17" stroke="#999" stroke-width="1"/><line x1="102.54" y1="367.15" x2="102.54" y2="363.71" stroke="#999" stroke-width="1"/><line x1="104.24" y1="368.87" x2="104.24" y2="363.96" stroke="#999" stroke-width="1"/><line x1="105.94" y1="367.39" x2="105.94" y2="364.94" stroke="#999" stroke-width="1"/><line x1="107.64" y1="367.15" x2="107.64" y2="364.94" stroke="#999" stroke-width="1"/><line x1="109.34" y1="367.15" x2="109.34" y2="274.65" stroke="#999" stroke-width="1"/><line x1="111.04" y1="349.48" x2="111.04" y2="316.36" stroke="#999" stroke-width="1"/><line x1="112.75" y1="349.73" x2="112.75" y2="301.15" stroke="#999" stroke-width="1"/><line x1="114.45" y1="341.39" x2="114.45" y2="325.93" stroke="#999" stroke-width="1"/><line x1="116.15" y1="334.76" x2="116.15" y2="281.52" stroke="#999" stroke-width="1"/><line x1="117.85" y1="307.77" x2="117.85" y2="294.52" stroke="#999" stroke-width="1"/><line x1="119.55" y1="312.43" x2="119.55" y2="284.22" stroke="#999" stroke-width="1"/><line x1="121.25" y1="311.21" x2="121.25" y2="296.98" stroke="#999" stroke-width="1"/><line x1="122.95" y1="310.72" x2="122.95" y2="303.60" stroke="#999" stroke-width="1"/><line x1="124.66" y1="308.26" x2="124.66" y2="292.32" stroke="#999" stroke-width="1"/><line x1="126.36" y1="310.72" x2="126.36" y2="296.24" stroke="#999" stroke-width="1"/><line x1="128.06" y1="303.60" x2="128.06" y2="233.68" stroke="#999" stroke-width="1"/><line x1="129.76" y1="282.75" x2="129.76" y2="180.93" stroke="#999" stroke-width="1"/><line x1="131.46" y1="321.51" x2="131.46" y2="268.03" stroke="#999" stroke-width="1"/><line x1="133.16" y1="339.42" x2="133.16" y2="300.17" stroke="#999" stroke-width="1"/><line x1="134.86" y1="352.18" x2="134.86" y2="290.11" stroke="#999" stroke-width="1"/><line x1="136.57" y1="341.39" x2="136.57" y2="306.30" stroke="#999" stroke-width="1"/><line x1="138.27" y1="342.61" x2="138.27" y2="290.11" stroke="#999" stroke-width="1"/><line x1="139.97" y1="335.50" x2="139.97" y2="325.93" stroke="#999" stroke-width="1"/><line x1="141.67" y1="337.95" x2="141.67" y2="330.10" stroke="#999" stroke-width="1"/><line x1="143.37" y1="338.93" x2="143.37" y2="333.78" stroke="#999" stroke-width="1"/><line x1="145.07" y1="334.52" x2="145.07" y2="328.14" stroke="#999" stroke-width="1"/><line x1="146.77" y1="336.72" x2="146.77" y2="324.46" stroke="#999" stroke-width="1"/><line x1="148.48" y1="336.72" x2="148.48" y2="323.23" stroke="#999" stroke-width="1"/><line x1="150.18" y1="335.74" x2="150.18" y2="327.65" stroke="#999" stroke-width="1"/><line x1="151.88" y1="336.23" x2="151.88" y2="328.63" stroke="#999" stroke-width="1"/><line x1="153.58" y1="350.71" x2="153.58" y2="335.99" stroke="#999" stroke-width="1"/><line x1="155.28" y1="348.75" x2="155.28" y2="322.00" stroke="#999" stroke-width="1"/><line x1="156.98" y1="337.95" x2="156.98" y2="333.04" stroke="#999" stroke-width="1"/><line x1="158.68" y1="336.72" x2="158.68" y2="331.82" stroke="#999" stroke-width="1"/><line x1="160.39" y1="350.22" x2="160.39" y2="332.80" stroke="#999" stroke-width="1"/><line x1="162.09" y1="353.41" x2="162.09" y2="346.05" stroke="#999" stroke-width="1"/><line x1="163.79" y1="351.69" x2="163.79" y2="345.31" stroke="#999" stroke-width="1"/><line x1="165.49" y1="354.14" x2="165.49" y2="345.56" stroke="#999" stroke-width="1"/><line x1="167.19" y1="354.88" x2="167.19" y2="345.80" stroke="#999" stroke-width="1"/><line x1="168.89" y1="357.58" x2="168.89" y2="346.29" stroke="#999" stroke-width="1"/><line x1="170.59" y1="362.73" x2="170.59" y2="351.20" stroke="#999" stroke-width="1"/><line x1="172.30" y1="356.84" x2="172.30" y2="349.73" stroke="#999" stroke-width="1"/><line x1="174.00" y1="355.13" x2="174.00" y2="350.22" stroke="#999" stroke-width="1"/><line x1="175.70" y1="355.13" x2="175.70" y2="351.45" stroke="#999" stroke-width="1"/><line x1="177.40" y1="357.33" x2="177.40" y2="350.22" stroke="#999" stroke-width="1"/><line x1="179.10" y1="358.32" x2="179.10" y2="352.67" stroke="#999" stroke-width="1"/><line x1="180.80" y1="353.65" x2="180.80" y2="347.77" stroke="#999" stroke-width="1"/><line x1="182.51" y1="352.18" x2="182.51" y2="350.22" stroke="#999" stroke-width="1"/><line x1="184.21" y1="349.97" x2="184.21" y2="348.50" stroke="#999" stroke-width="1"/><line x1="185.91" y1="351.20" x2="185.91" y2="347.77" stroke="#999" stroke-width="1"/><line x1="187.61" y1="350.22" x2="187.61" y2="348.26" stroke="#999" stroke-width="1"/><line x1="189.31" y1="350.22" x2="189.31" y2="348.01" stroke="#999" stroke-width="1"/><line x1="191.01" y1="349.48" x2="191.01" y2="349.48" stroke="#999" stroke-width="1"/><line x1="192.71" y1="349.48" x2="192.71" y2="347.28" stroke="#999" stroke-width="1"/><line x1="194.42" y1="347.28" x2="194.42" y2="343.35" stroke="#999" stroke-width="1"/><line x1="196.12" y1="343.35" x2="196.12" y2="341.63" stroke="#999" stroke-width="1"/><line x1="197.82" y1="344.58" x2="197.82" y2="340.41" stroke="#999" stroke-width="1"/><line x1="199.52" y1="344.09" x2="199.52" y2="342.12" stroke="#999" stroke-width="1"/><line x1="201.22" y1="347.77" x2="201.22" y2="343.35" stroke="#999" stroke-width="1"/><line x1="202.92" y1="346.05" x2="202.92" y2="339.18" stroke="#999" stroke-width="1"/><line x1="204.62" y1="340.41" x2="204.62" y2="333.54" stroke="#999" stroke-width="1"/><line x1="206.33" y1="340.16" x2="206.33" y2="330.59" stroke="#999" stroke-width="1"/><line x1="208.03" y1="339.42" x2="208.03" y2="330.59" stroke="#999" stroke-width="1"/><line x1="209.73" y1="336.72" x2="209.73" y2="328.14" stroke="#999" stroke-width="1"/><line x1="211.43" y1="337.22" x2="211.43" y2="334.52" stroke="#999" stroke-width="1"/><line x1="213.13" y1="342.61" x2="213.13" y2="337.22" stroke="#999" stroke-width="1"/><line x1="214.83" y1="339.91" x2="214.83" y2="337.95" stroke="#999" stroke-width="1"/><line x1="216.53" y1="344.33" x2="216.53" y2="338.20" stroke="#999" stroke-width="1"/><line x1="218.24" y1="342.86" x2="218.24" y2="337.71" stroke="#999" stroke-width="1"/><line x1="219.94" y1="340.41" x2="219.94" y2="335.74" stroke="#999" stroke-width="1"/><line x1="221.64" y1="335.74" x2="221.64" y2="335.74" stroke="#999" stroke-width="1"/><line x1="223.34" y1="339.18" x2="223.34" y2="335.74" stroke="#999" stroke-width="1"/><line x1="225.04" y1="335.74" x2="225.04" y2="335.74" stroke="#999" stroke-width="1"/><line x1="226.74" y1="338.69" x2="226.74" y2="335.99" stroke="#999" stroke-width="1"/><line x1="228.44" y1="336.72" x2="228.44" y2="328.14" stroke="#999" stroke-width="1"/><line x1="230.15" y1="334.52" x2="230.15" y2="332.31" stroke="#999" stroke-width="1"/><line x1="231.85" y1="337.46" x2="231.85" y2="335.25" stroke="#999" stroke-width="1"/><line x1="233.55" y1="335.01" x2="233.55" y2="335.01" stroke="#999" stroke-width="1"/><line x1="235.25" y1="335.99" x2="235.25" y2="335.74" stroke="#999" stroke-width="1"/><line x1="236.95" y1="335.99" x2="236.95" y2="333.29" stroke="#999" stroke-width="1"/><line x1="238.65" y1="335.74" x2="238.65" y2="333.04" stroke="#999" stroke-width="1"/><line x1="240.35" y1="334.76" x2="240.35" y2="330.59" stroke="#999" stroke-width="1"/><line x1="242.06" y1="333.04" x2="242.06" y2="316.61" stroke="#999" stroke-width="1"/><line x1="243.76" y1="329.12" x2="243.76" y2="320.29" stroke="#999" stroke-width="1"/><line x1="245.46" y1="328.63" x2="245.46" y2="317.10" stroke="#999" stroke-width="1"/><line x1="247.16" y1="326.67" x2="247.16" y2="319.06" stroke="#999" stroke-width="1"/><line x1="248.86" y1="325.68" x2="248.86" y2="319.30" stroke="#999" stroke-width="1"/><line x1="250.56" y1="327.16" x2="250.56" y2="316.61" stroke="#999" stroke-width="1"/><line x1="252.27" y1="325.44" x2="252.27" y2="316.61" stroke="#999" stroke-width="1"/><line x1="253.97" y1="325.68" x2="253.97" y2="317.10" stroke="#999" stroke-width="1"/><line x1="255.67" y1="324.21" x2="255.67" y2="317.34" stroke="#999" stroke-width="1"/><line x1="257.37" y1="325.19" x2="257.37" y2="317.34" stroke="#999" stroke-width="1"/><line x1="259.07" y1="325.44" x2="259.07" y2="320.04" stroke="#999" stroke-width="1"/><line x1="260.77" y1="334.52" x2="260.77" y2="322.00" stroke="#999" stroke-width="1"/><line x1="262.47" y1="326.17" x2="262.47" y2="321.76" stroke="#999" stroke-width="1"/><line x1="264.18" y1="326.67" x2="264.18" y2="322.74" stroke="#999" stroke-width="1"/><line x1="265.88" y1="326.67" x2="265.88" y2="324.21" stroke="#999" stroke-width="1"/><line x1="267.58" y1="326.42" x2="267.58" y2="323.23" stroke="#999" stroke-width="1"/><line x1="269.28" y1="326.67" x2="269.28" y2="323.23" stroke="#999" stroke-width="1"/><line x1="270.98" y1="325.44" x2="270.98" y2="322.00" stroke="#999" stroke-width="1"/><line x1="272.68" y1="325.44" x2="272.68" y2="325.44" stroke="#999" stroke-width="1"/><line x1="274.38" y1="326.91" x2="274.38" y2="322.49" stroke="#999" stroke-width="1"/><line x1="276.09" y1="324.46" x2="276.09" y2="321.76" stroke="#999" stroke-width="1"/><line x1="277.79" y1="329.12" x2="277.79" y2="321.02" stroke="#999" stroke-width="1"/><line x1="279.49" y1="324.21" x2="279.49" y2="322.74" stroke="#999" stroke-width="1"/><line x1="281.19" y1="322.99" x2="281.19" y2="316.12" stroke="#999" stroke-width="1"/><line x1="282.89" y1="327.65" x2="282.89" y2="316.61" stroke="#999" stroke-width="1"/><line x1="284.59" y1="323.97" x2="284.59" y2="319.06" stroke="#999" stroke-width="1"/><line x1="286.29" y1="322.00" x2="286.29" y2="318.81" stroke="#999" stroke-width="1"/><line x1="288.00" y1="319.80" x2="288.00" y2="316.61" stroke="#999" stroke-width="1"/><line x1="289.70" y1="320.53" x2="289.70" y2="316.12" stroke="#999" stroke-width="1"/><line x1="291.40" y1="319.06" x2="291.40" y2="316.61" stroke="#999" stroke-width="1"/><line x1="293.10" y1="320.53" x2="293.10" y2="318.81" stroke="#999" stroke-width="1"/><line x1="294.80" y1="320.78" x2="294.80" y2="316.12" stroke="#999" stroke-width="1"/><line x1="296.50" y1="319.80" x2="296.50" y2="317.34" stroke="#999" stroke-width="1"/><line x1="298.20" y1="319.06" x2="298.20" y2="316.36" stroke="#999" stroke-width="1"/><line x1="299.91" y1="319.06" x2="299.91" y2="317.10" stroke="#999" stroke-width="1"/><line x1="301.61" y1="320.04" x2="301.61" y2="319.06" stroke="#999" stroke-width="1"/><line x1="303.31" y1="319.06" x2="303.31" y2="319.06" stroke="#999" stroke-width="1"/><line x1="305.01" y1="319.06" x2="305.01" y2="316.12" stroke="#999" stroke-width="1"/><line x1="306.71" y1="316.12" x2="306.71" y2="316.12" stroke="#999" stroke-width="1"/><line x1="308.41" y1="318.81" x2="308.41" y2="316.12" stroke="#999" stroke-width="1"/><line x1="310.11" y1="318.81" x2="310.11" y2="316.12" stroke="#999" stroke-width="1"/><line x1="311.82" y1="316.12" x2="311.82" y2="316.12" stroke="#999" stroke-width="1"/><line x1="313.52" y1="318.81" x2="313.52" y2="318.81" stroke="#999" stroke-width="1"/><line x1="315.22" y1="320.78" x2="315.22" y2="316.12" stroke="#999" stroke-width="1"/><line x1="316.92" y1="316.85" x2="316.92" y2="316.85" stroke="#999" stroke-width="1"/><line x1="318.62" y1="318.57" x2="318.62" y2="318.08" stroke="#999" stroke-width="1"/><line x1="320.32" y1="319.55" x2="320.32" y2="318.08" stroke="#999" stroke-width="1"/><line x1="322.03" y1="322.25" x2="322.03" y2="318.32" stroke="#999" stroke-width="1"/><line x1="323.73" y1="322.99" x2="323.73" y2="319.06" stroke="#999" stroke-width="1"/><line x1="325.43" y1="322.00" x2="325.43" y2="320.29" stroke="#999" stroke-width="1"/><line x1="327.13" y1="323.23" x2="327.13" y2="320.29" stroke="#999" stroke-width="1"/><line x1="328.83" y1="323.48" x2="328.83" y2="321.51" stroke="#999" stroke-width="1"/><line x1="330.53" y1="325.93" x2="330.53" y2="322.25" stroke="#999" stroke-width="1"/><line x1="332.23" y1="326.67" x2="332.23" y2="323.48" stroke="#999" stroke-width="1"/><line x1="333.94" y1="334.27" x2="333.94" y2="326.67" stroke="#999" stroke-width="1"/><line x1="335.64" y1="337.46" x2="335.64" y2="331.08" stroke="#999" stroke-width="1"/><line x1="337.34" y1="335.25" x2="337.34" y2="328.14" stroke="#999" stroke-width="1"/><line x1="339.04" y1="334.52" x2="339.04" y2="331.33" stroke="#999" stroke-width="1"/><line x1="340.74" y1="332.55" x2="340.74" y2="331.33" stroke="#999" stroke-width="1"/><line x1="342.44" y1="333.04" x2="342.44" y2="330.84" stroke="#999" stroke-width="1"/><line x1="344.14" y1="332.06" x2="344.14" y2="329.61" stroke="#999" stroke-width="1"/><line x1="345.85" y1="330.59" x2="345.85" y2="329.36" stroke="#999" stroke-width="1"/><line x1="347.55" y1="331.08" x2="347.55" y2="329.61" stroke="#999" stroke-width="1"/><line x1="349.25" y1="331.08" x2="349.25" y2="330.35" stroke="#999" stroke-width="1"/><line x1="350.95" y1="332.80" x2="350.95" y2="330.35" stroke="#999" stroke-width="1"/><line x1="352.65" y1="333.04" x2="352.65" y2="330.59" stroke="#999" stroke-width="1"/><line x1="354.35" y1="333.54" x2="354.35" y2="333.04" stroke="#999" stroke-width="1"/><line x1="356.05" y1="332.80" x2="356.05" y2="332.55" stroke="#999" stroke-width="1"/><line x1="357.76" y1="333.54" x2="357.76" y2="333.04" stroke="#999" stroke-width="1"/><line x1="359.46" y1="333.04" x2="359.46" y2="330.59" stroke="#999" stroke-width="1"/><line x1="361.16" y1="330.59" x2="361.16" y2="330.10" stroke="#999" stroke-width="1"/><line x1="362.86" y1="331.82" x2="362.86" y2="330.10" stroke="#999" stroke-width="1"/><line x1="364.56" y1="332.31" x2="364.56" y2="329.86" stroke="#999" stroke-width="1"/><line x1="366.26" y1="332.31" x2="366.26" y2="329.86" stroke="#999" stroke-width="1"/><line x1="367.96" y1="335.25" x2="367.96" y2="330.35" stroke="#999" stroke-width="1"/><line x1="369.67" y1="333.29" x2="369.67" y2="332.06" stroke="#999" stroke-width="1"/><line x1="371.37" y1="334.52" x2="371.37" y2="331.33" stroke="#999" stroke-width="1"/><line x1="373.07" y1="334.52" x2="373.07" y2="331.57" stroke="#999" stroke-width="1"/><line x1="374.77" y1="335.50" x2="374.77" y2="322.99" stroke="#999" stroke-width="1"/><line x1="376.47" y1="330.35" x2="376.47" y2="326.67" stroke="#999" stroke-width="1"/><line x1="378.17" y1="327.40" x2="378.17" y2="323.72" stroke="#999" stroke-width="1"/><line x1="379.87" y1="325.44" x2="379.87" y2="323.97" stroke="#999" stroke-width="1"/><line x1="381.58" y1="323.97" x2="381.58" y2="313.42" stroke="#999" stroke-width="1"/><line x1="383.28" y1="315.62" x2="383.28" y2="308.75" stroke="#999" stroke-width="1"/><line x1="384.98" y1="309.00" x2="384.98" y2="269.25" stroke="#999" stroke-width="1"/><line x1="386.68" y1="291.58" x2="386.68" y2="276.37" stroke="#999" stroke-width="1"/><line x1="388.38" y1="288.64" x2="388.38" y2="266.31" stroke="#999" stroke-width="1"/><line x1="390.08" y1="288.39" x2="390.08" y2="279.07" stroke="#999" stroke-width="1"/><line x1="391.78" y1="288.64" x2="391.78" y2="278.58" stroke="#999" stroke-width="1"/><line x1="393.49" y1="290.60" x2="393.49" y2="282.99" stroke="#999" stroke-width="1"/><line x1="395.19" y1="291.09" x2="395.19" y2="282.01" stroke="#999" stroke-width="1"/><line x1="396.89" y1="288.88" x2="396.89" y2="286.43" stroke="#999" stroke-width="1"/><line x1="398.59" y1="288.39" x2="398.59" y2="285.20" stroke="#999" stroke-width="1"/><line x1="400.29" y1="286.67" x2="400.29" y2="280.78" stroke="#999" stroke-width="1"/><line x1="401.99" y1="286.92" x2="401.99" y2="280.78" stroke="#999" stroke-width="1"/><line x1="403.70" y1="285.20" x2="403.70" y2="280.78" stroke="#999" stroke-width="1"/><line x1="405.40" y1="284.96" x2="405.40" y2="280.78" stroke="#999" stroke-width="1"/><line x1="407.10" y1="285.69" x2="407.10" y2="280.78" stroke="#999" stroke-width="1"/><line x1="408.80" y1="285.20" x2="408.80" y2="280.78" stroke="#999" stroke-width="1"/><line x1="410.50" y1="284.71" x2="410.50" y2="280.78" stroke="#999" stroke-width="1"/><line x1="412.20" y1="290.60" x2="412.20" y2="283.97" stroke="#999" stroke-width="1"/><line x1="413.90" y1="288.64" x2="413.90" y2="283.73" stroke="#999" stroke-width="1"/><line x1="415.61" y1="288.39" x2="415.61" y2="281.28" stroke="#999" stroke-width="1"/><line x1="417.31" y1="288.64" x2="417.31" y2="272.44" stroke="#999" stroke-width="1"/><line x1="419.01" y1="287.41" x2="419.01" y2="284.22" stroke="#999" stroke-width="1"/><line x1="420.71" y1="287.65" x2="420.71" y2="282.99" stroke="#999" stroke-width="1"/><line x1="422.41" y1="290.84" x2="422.41" y2="285.94" stroke="#999" stroke-width="1"/><line x1="424.11" y1="294.28" x2="424.11" y2="285.69" stroke="#999" stroke-width="1"/><line x1="425.81" y1="287.90" x2="425.81" y2="287.90" stroke="#999" stroke-width="1"/><line x1="427.52" y1="287.65" x2="427.52" y2="286.67" stroke="#999" stroke-width="1"/><line x1="429.22" y1="287.90" x2="429.22" y2="284.71" stroke="#999" stroke-width="1"/><line x1="430.92" y1="288.88" x2="430.92" y2="284.22" stroke="#999" stroke-width="1"/><line x1="432.62" y1="316.85" x2="432.62" y2="285.94" stroke="#999" stroke-width="1"/><line x1="434.32" y1="296.00" x2="434.32" y2="288.88" stroke="#999" stroke-width="1"/><line x1="436.02" y1="301.39" x2="436.02" y2="288.88" stroke="#999" stroke-width="1"/><line x1="437.72" y1="300.17" x2="437.72" y2="296.73" stroke="#999" stroke-width="1"/><line x1="439.43" y1="300.41" x2="439.43" y2="296.49" stroke="#999" stroke-width="1"/><line x1="441.13" y1="299.43" x2="441.13" y2="292.81" stroke="#999" stroke-width="1"/><line x1="442.83" y1="294.28" x2="442.83" y2="289.86" stroke="#999" stroke-width="1"/><line x1="444.53" y1="290.35" x2="444.53" y2="288.64" stroke="#999" stroke-width="1"/><line x1="446.23" y1="289.13" x2="446.23" y2="288.39" stroke="#999" stroke-width="1"/><line x1="447.93" y1="288.64" x2="447.93" y2="286.43" stroke="#999" stroke-width="1"/><line x1="449.63" y1="289.86" x2="449.63" y2="288.64" stroke="#999" stroke-width="1"/><line x1="451.34" y1="288.88" x2="451.34" y2="288.64" stroke="#999" stroke-width="1"/><line x1="453.04" y1="289.37" x2="453.04" y2="287.41" stroke="#999" stroke-width="1"/><line x1="454.74" y1="289.37" x2="454.74" y2="286.67" stroke="#999" stroke-width="1"/><line x1="456.44" y1="288.88" x2="456.44" y2="287.41" stroke="#999" stroke-width="1"/><line x1="458.14" y1="288.88" x2="458.14" y2="284.22" stroke="#999" stroke-width="1"/><line x1="459.84" y1="290.11" x2="459.84" y2="285.69" stroke="#999" stroke-width="1"/><line x1="461.54" y1="288.14" x2="461.54" y2="285.69" stroke="#999" stroke-width="1"/><line x1="463.25" y1="288.64" x2="463.25" y2="284.96" stroke="#999" stroke-width="1"/><line x1="464.95" y1="288.88" x2="464.95" y2="279.07" stroke="#999" stroke-width="1"/><line x1="466.65" y1="280.54" x2="466.65" y2="271.71" stroke="#999" stroke-width="1"/><line x1="468.35" y1="274.90" x2="468.35" y2="268.27" stroke="#999" stroke-width="1"/><line x1="470.05" y1="273.42" x2="470.05" y2="268.03" stroke="#999" stroke-width="1"/><line x1="471.75" y1="269.74" x2="471.75" y2="269.25" stroke="#999" stroke-width="1"/><line x1="473.46" y1="272.93" x2="473.46" y2="266.55" stroke="#999" stroke-width="1"/><line x1="475.16" y1="269.50" x2="475.16" y2="264.84" stroke="#999" stroke-width="1"/><line x1="476.86" y1="266.55" x2="476.86" y2="258.46" stroke="#999" stroke-width="1"/><line x1="478.56" y1="267.29" x2="478.56" y2="259.44" stroke="#999" stroke-width="1"/><line x1="480.26" y1="271.71" x2="480.26" y2="265.33" stroke="#999" stroke-width="1"/><line x1="481.96" y1="270.48" x2="481.96" y2="259.44" stroke="#999" stroke-width="1"/><line x1="483.66" y1="264.10" x2="483.66" y2="252.08" stroke="#999" stroke-width="1"/><line x1="485.37" y1="259.19" x2="485.37" y2="252.08" stroke="#999" stroke-width="1"/><line x1="487.07" y1="257.23" x2="487.07" y2="252.08" stroke="#999" stroke-width="1"/><line x1="488.77" y1="258.21" x2="488.77" y2="253.80" stroke="#999" stroke-width="1"/><line x1="490.47" y1="257.97" x2="490.47" y2="252.08" stroke="#999" stroke-width="1"/><line x1="492.17" y1="254.53" x2="492.17" y2="252.08" stroke="#999" stroke-width="1"/><line x1="493.87" y1="254.53" x2="493.87" y2="239.81" stroke="#999" stroke-width="1"/><line x1="495.57" y1="250.61" x2="495.57" y2="232.70" stroke="#999" stroke-width="1"/><line x1="497.28" y1="254.53" x2="497.28" y2="248.15" stroke="#999" stroke-width="1"/><line x1="498.98" y1="253.80" x2="498.98" y2="232.70" stroke="#999" stroke-width="1"/><line x1="500.68" y1="248.15" x2="500.68" y2="237.11" stroke="#999" stroke-width="1"/><line x1="502.38" y1="244.72" x2="502.38" y2="236.38" stroke="#999" stroke-width="1"/><line x1="504.08" y1="242.51" x2="504.08" y2="232.94" stroke="#999" stroke-width="1"/><line x1="505.78" y1="245.70" x2="505.78" y2="235.64" stroke="#999" stroke-width="1"/><line x1="507.48" y1="243.25" x2="507.48" y2="234.17" stroke="#999" stroke-width="1"/><line x1="509.19" y1="236.38" x2="509.19" y2="232.45" stroke="#999" stroke-width="1"/><line x1="510.89" y1="234.17" x2="510.89" y2="227.79" stroke="#999" stroke-width="1"/><line x1="512.59" y1="230.24" x2="512.59" y2="227.54" stroke="#999" stroke-width="1"/><line x1="514.29" y1="234.17" x2="514.29" y2="230.73" stroke="#999" stroke-width="1"/><line x1="515.99" y1="233.68" x2="515.99" y2="230.00" stroke="#999" stroke-width="1"/><line x1="517.69" y1="232.45" x2="517.69" y2="227.54" stroke="#999" stroke-width="1"/><line x1="519.39" y1="230.49" x2="519.39" y2="223.13" stroke="#999" stroke-width="1"/><line x1="521.10" y1="226.56" x2="521.10" y2="219.94" stroke="#999" stroke-width="1"/><line x1="522.80" y1="225.58" x2="522.80" y2="218.46" stroke="#999" stroke-width="1"/><line x1="524.50" y1="227.54" x2="524.50" y2="221.65" stroke="#999" stroke-width="1"/><line x1="526.20" y1="225.58" x2="526.20" y2="215.52" stroke="#999" stroke-width="1"/><line x1="527.90" y1="223.86" x2="527.90" y2="215.28" stroke="#999" stroke-width="1"/><line x1="529.60" y1="223.62" x2="529.60" y2="215.28" stroke="#999" stroke-width="1"/><line x1="531.30" y1="221.41" x2="531.30" y2="215.28" stroke="#999" stroke-width="1"/><line x1="533.01" y1="219.94" x2="533.01" y2="216.26" stroke="#999" stroke-width="1"/><line x1="534.71" y1="217.97" x2="534.71" y2="214.78" stroke="#999" stroke-width="1"/><line x1="536.41" y1="217.97" x2="536.41" y2="209.88" stroke="#999" stroke-width="1"/><line x1="538.11" y1="215.28" x2="538.11" y2="211.59" stroke="#999" stroke-width="1"/><line x1="539.81" y1="216.01" x2="539.81" y2="212.58" stroke="#999" stroke-width="1"/><line x1="541.51" y1="214.54" x2="541.51" y2="197.86" stroke="#999" stroke-width="1"/><line x1="543.22" y1="215.03" x2="543.22" y2="210.12" stroke="#999" stroke-width="1"/><line x1="544.92" y1="213.80" x2="544.92" y2="209.39" stroke="#999" stroke-width="1"/><line x1="546.62" y1="213.31" x2="546.62" y2="211.10" stroke="#999" stroke-width="1"/><line x1="548.32" y1="216.50" x2="548.32" y2="214.05" stroke="#999" stroke-width="1"/><line x1="550.02" y1="215.28" x2="550.02" y2="213.31" stroke="#999" stroke-width="1"/><line x1="551.72" y1="214.29" x2="551.72" y2="214.05" stroke="#999" stroke-width="1"/><line x1="553.42" y1="215.03" x2="553.42" y2="212.33" stroke="#999" stroke-width="1"/><line x1="555.13" y1="211.84" x2="555.13" y2="198.59" stroke="#999" stroke-width="1"/><line x1="556.83" y1="211.59" x2="556.83" y2="211.59" stroke="#999" stroke-width="1"/><line x1="558.53" y1="206.69" x2="558.53" y2="206.69" stroke="#999" stroke-width="1"/><line x1="560.23" y1="215.03" x2="560.23" y2="211.35" stroke="#999" stroke-width="1"/><line x1="561.93" y1="215.03" x2="561.93" y2="214.78" stroke="#999" stroke-width="1"/><line x1="563.63" y1="214.78" x2="563.63" y2="214.78" stroke="#999" stroke-width="1"/><line x1="565.33" y1="215.28" x2="565.33" y2="214.78" stroke="#999" stroke-width="1"/><line x1="567.04" y1="218.46" x2="567.04" y2="212.33" stroke="#999" stroke-width="1"/><line x1="568.74" y1="227.79" x2="568.74" y2="214.29" stroke="#999" stroke-width="1"/><line x1="570.44" y1="230.24" x2="570.44" y2="220.43" stroke="#999" stroke-width="1"/><line x1="572.14" y1="232.20" x2="572.14" y2="227.79" stroke="#999" stroke-width="1"/><line x1="573.84" y1="234.90" x2="573.84" y2="224.84" stroke="#999" stroke-width="1"/><line x1="575.54" y1="230.49" x2="575.54" y2="221.90" stroke="#999" stroke-width="1"/><line x1="577.24" y1="227.30" x2="577.24" y2="215.28" stroke="#999" stroke-width="1"/><line x1="578.95" y1="232.20" x2="578.95" y2="220.43" stroke="#999" stroke-width="1"/><line x1="580.65" y1="232.70" x2="580.65" y2="220.18" stroke="#999" stroke-width="1"/><line x1="582.35" y1="224.84" x2="582.35" y2="221.90" stroke="#999" stroke-width="1"/><line x1="584.05" y1="227.30" x2="584.05" y2="222.64" stroke="#999" stroke-width="1"/><line x1="585.75" y1="225.33" x2="585.75" y2="216.50" stroke="#999" stroke-width="1"/><line x1="587.45" y1="220.92" x2="587.45" y2="212.82" stroke="#999" stroke-width="1"/><line x1="589.15" y1="218.22" x2="589.15" y2="213.80" stroke="#999" stroke-width="1"/><line x1="590.86" y1="220.67" x2="590.86" y2="215.28" stroke="#999" stroke-width="1"/><line x1="592.56" y1="223.13" x2="592.56" y2="212.82" stroke="#999" stroke-width="1"/><line x1="594.26" y1="221.65" x2="594.26" y2="212.82" stroke="#999" stroke-width="1"/><line x1="595.96" y1="227.54" x2="595.96" y2="212.82" stroke="#999" stroke-width="1"/><line x1="597.66" y1="225.33" x2="597.66" y2="215.28" stroke="#999" stroke-width="1"/><line x1="599.36" y1="219.69" x2="599.36" y2="214.78" stroke="#999" stroke-width="1"/><line x1="601.06" y1="235.39" x2="601.06" y2="216.99" stroke="#999" stroke-width="1"/><line x1="602.77" y1="261.16" x2="602.77" y2="225.09" stroke="#999" stroke-width="1"/><line x1="604.47" y1="255.27" x2="604.47" y2="245.94" stroke="#999" stroke-width="1"/><line x1="606.17" y1="249.62" x2="606.17" y2="246.68" stroke="#999" stroke-width="1"/><line x1="607.87" y1="249.13" x2="607.87" y2="245.70" stroke="#999" stroke-width="1"/><line x1="609.57" y1="250.85" x2="609.57" y2="248.64" stroke="#999" stroke-width="1"/><line x1="611.27" y1="249.87" x2="611.27" y2="248.40" stroke="#999" stroke-width="1"/><line x1="612.97" y1="251.83" x2="612.97" y2="247.91" stroke="#999" stroke-width="1"/><line x1="614.68" y1="251.34" x2="614.68" y2="247.66" stroke="#999" stroke-width="1"/><line x1="616.38" y1="249.62" x2="616.38" y2="247.17" stroke="#999" stroke-width="1"/><line x1="618.08" y1="258.21" x2="618.08" y2="249.38" stroke="#999" stroke-width="1"/><line x1="619.78" y1="254.78" x2="619.78" y2="252.57" stroke="#999" stroke-width="1"/><line x1="621.48" y1="252.57" x2="621.48" y2="252.57" stroke="#999" stroke-width="1"/><line x1="623.18" y1="252.57" x2="623.18" y2="252.57" stroke="#999" stroke-width="1"/><line x1="624.89" y1="252.81" x2="624.89" y2="252.81" stroke="#999" stroke-width="1"/><line x1="626.59" y1="257.72" x2="626.59" y2="252.57" stroke="#999" stroke-width="1"/><line x1="628.29" y1="257.97" x2="628.29" y2="245.21" stroke="#999" stroke-width="1"/><line x1="629.99" y1="254.04" x2="629.99" y2="243.25" stroke="#999" stroke-width="1"/><line x1="631.69" y1="251.59" x2="631.69" y2="241.04" stroke="#999" stroke-width="1"/><line x1="633.39" y1="258.46" x2="633.39" y2="252.08" stroke="#999" stroke-width="1"/><line x1="635.09" y1="257.72" x2="635.09" y2="257.48" stroke="#999" stroke-width="1"/><line x1="636.80" y1="256.00" x2="636.80" y2="243.25" stroke="#999" stroke-width="1"/><line x1="638.50" y1="244.47" x2="638.50" y2="238.34" stroke="#999" stroke-width="1"/><line x1="640.20" y1="239.32" x2="640.20" y2="223.13" stroke="#999" stroke-width="1"/><line x1="641.90" y1="230.00" x2="641.90" y2="216.50" stroke="#999" stroke-width="1"/><line x1="643.60" y1="229.26" x2="643.60" y2="225.83" stroke="#999" stroke-width="1"/><line x1="645.30" y1="229.26" x2="645.30" y2="215.28" stroke="#999" stroke-width="1"/><line x1="647.00" y1="222.39" x2="647.00" y2="215.03" stroke="#999" stroke-width="1"/><line x1="648.71" y1="220.92" x2="648.71" y2="212.82" stroke="#999" stroke-width="1"/><line x1="650.41" y1="215.28" x2="650.41" y2="213.31" stroke="#999" stroke-width="1"/><line x1="652.11" y1="215.28" x2="652.11" y2="213.31" stroke="#999" stroke-width="1"/><line x1="653.81" y1="215.03" x2="653.81" y2="215.03" stroke="#999" stroke-width="1"/><line x1="655.51" y1="216.50" x2="655.51" y2="213.56" stroke="#999" stroke-width="1"/><line x1="657.21" y1="217.73" x2="657.21" y2="215.03" stroke="#999" stroke-width="1"/><line x1="658.91" y1="215.52" x2="658.91" y2="214.05" stroke="#999" stroke-width="1"/><line x1="660.62" y1="217.24" x2="660.62" y2="214.29" stroke="#999" stroke-width="1"/><line x1="662.32" y1="218.96" x2="662.32" y2="214.54" stroke="#999" stroke-width="1"/><line x1="664.02" y1="216.26" x2="664.02" y2="213.80" stroke="#999" stroke-width="1"/><line x1="665.72" y1="216.01" x2="665.72" y2="213.56" stroke="#999" stroke-width="1"/><line x1="667.42" y1="215.28" x2="667.42" y2="209.39" stroke="#999" stroke-width="1"/><line x1="669.12" y1="214.05" x2="669.12" y2="207.91" stroke="#999" stroke-width="1"/><line x1="670.82" y1="212.09" x2="670.82" y2="204.23" stroke="#999" stroke-width="1"/><line x1="672.53" y1="207.18" x2="672.53" y2="203.25" stroke="#999" stroke-width="1"/><line x1="674.23" y1="205.71" x2="674.23" y2="203.01" stroke="#999" stroke-width="1"/><line x1="675.93" y1="206.93" x2="675.93" y2="200.55" stroke="#999" stroke-width="1"/><line x1="677.63" y1="204.72" x2="677.63" y2="198.10" stroke="#999" stroke-width="1"/><line x1="679.33" y1="203.50" x2="679.33" y2="198.10" stroke="#999" stroke-width="1"/><line x1="681.03" y1="198.35" x2="681.03" y2="190.74" stroke="#999" stroke-width="1"/><line x1="682.73" y1="192.95" x2="682.73" y2="190.74" stroke="#999" stroke-width="1"/><line x1="684.44" y1="200.06" x2="684.44" y2="188.53" stroke="#999" stroke-width="1"/><line x1="686.14" y1="200.80" x2="686.14" y2="195.89" stroke="#999" stroke-width="1"/><line x1="687.84" y1="201.54" x2="687.84" y2="194.17" stroke="#999" stroke-width="1"/><line x1="689.54" y1="197.61" x2="689.54" y2="185.59" stroke="#999" stroke-width="1"/><line x1="691.24" y1="196.87" x2="691.24" y2="185.59" stroke="#999" stroke-width="1"/><line x1="692.94" y1="199.57" x2="692.94" y2="193.93" stroke="#999" stroke-width="1"/><line x1="694.65" y1="198.59" x2="694.65" y2="192.95" stroke="#999" stroke-width="1"/><line x1="696.35" y1="195.65" x2="696.35" y2="189.76" stroke="#999" stroke-width="1"/><line x1="698.05" y1="192.21" x2="698.05" y2="188.04" stroke="#999" stroke-width="1"/><line x1="699.75" y1="194.42" x2="699.75" y2="188.04" stroke="#999" stroke-width="1"/><line x1="701.45" y1="195.40" x2="701.45" y2="188.04" stroke="#999" stroke-width="1"/><line x1="703.15" y1="193.19" x2="703.15" y2="188.04" stroke="#999" stroke-width="1"/><line x1="704.85" y1="194.42" x2="704.85" y2="185.59" stroke="#999" stroke-width="1"/><line x1="706.56" y1="190.49" x2="706.56" y2="185.59" stroke="#999" stroke-width="1"/><line x1="708.26" y1="191.97" x2="708.26" y2="185.10" stroke="#999" stroke-width="1"/><line x1="709.96" y1="190.99" x2="709.96" y2="185.59" stroke="#999" stroke-width="1"/><line x1="711.66" y1="191.48" x2="711.66" y2="183.62" stroke="#999" stroke-width="1"/><line x1="713.36" y1="194.67" x2="713.36" y2="178.47" stroke="#999" stroke-width="1"/><line x1="715.06" y1="191.72" x2="715.06" y2="166.45" stroke="#999" stroke-width="1"/><line x1="716.76" y1="188.29" x2="716.76" y2="174.79" stroke="#999" stroke-width="1"/><line x1="718.47" y1="185.34" x2="718.47" y2="175.77" stroke="#999" stroke-width="1"/><line x1="720.17" y1="182.89" x2="720.17" y2="176.26" stroke="#999" stroke-width="1"/><line x1="721.87" y1="178.72" x2="721.87" y2="166.20" stroke="#999" stroke-width="1"/><line x1="723.57" y1="183.87" x2="723.57" y2="160.32" stroke="#999" stroke-width="1"/><line x1="725.27" y1="164.49" x2="725.27" y2="152.71" stroke="#999" stroke-width="1"/><line x1="726.97" y1="152.46" x2="726.97" y2="45.00" stroke="#999" stroke-width="1"/><line x1="728.67" y1="160.81" x2="728.67" y2="135.54" stroke="#999" stroke-width="1"/><line x1="730.38" y1="164.00" x2="730.38" y2="153.94" stroke="#999" stroke-width="1"/><line x1="732.08" y1="173.07" x2="732.08" y2="124.74" stroke="#999" stroke-width="1"/><line x1="733.78" y1="167.92" x2="733.78" y2="150.75" stroke="#999" stroke-width="1"/><line x1="735.48" y1="165.96" x2="735.48" y2="159.33" stroke="#999" stroke-width="1"/><line x1="737.18" y1="177.98" x2="737.18" y2="160.32" stroke="#999" stroke-width="1"/><line x1="738.88" y1="190.49" x2="738.88" y2="172.34" stroke="#999" stroke-width="1"/><line x1="740.58" y1="178.47" x2="740.58" y2="174.79" stroke="#999" stroke-width="1"/><line x1="742.29" y1="180.93" x2="742.29" y2="175.53" stroke="#999" stroke-width="1"/><line x1="743.99" y1="177.49" x2="743.99" y2="172.58" stroke="#999" stroke-width="1"/><line x1="745.69" y1="174.79" x2="745.69" y2="171.85" stroke="#999" stroke-width="1"/><line x1="747.39" y1="190.74" x2="747.39" y2="171.85" stroke="#999" stroke-width="1"/><line x1="749.09" y1="193.19" x2="749.09" y2="184.12" stroke="#999" stroke-width="1"/><line x1="750.79" y1="200.31" x2="750.79" y2="180.93" stroke="#999" stroke-width="1"/><line x1="752.49" y1="190.25" x2="752.49" y2="186.08" stroke="#999" stroke-width="1"/><line x1="754.20" y1="214.78" x2="754.20" y2="186.81" stroke="#999" stroke-width="1"/><line x1="755.90" y1="198.10" x2="755.90" y2="194.91" stroke="#999" stroke-width="1"/><line x1="757.60" y1="197.12" x2="757.60" y2="192.46" stroke="#999" stroke-width="1"/><line x1="759.30" y1="192.46" x2="759.30" y2="192.46" stroke="#999" stroke-width="1"/><line x1="761.00" y1="192.46" x2="761.00" y2="190.74" stroke="#999" stroke-width="1"/><line x1="762.70" y1="192.21" x2="762.70" y2="189.02" stroke="#999" stroke-width="1"/><line x1="764.41" y1="191.48" x2="764.41" y2="188.29" stroke="#999" stroke-width="1"/><line x1="766.11" y1="191.23" x2="766.11" y2="188.78" stroke="#999" stroke-width="1"/><line x1="767.81" y1="191.23" x2="767.81" y2="188.78" stroke="#999" stroke-width="1"/><line x1="769.51" y1="197.36" x2="769.51" y2="189.27" stroke="#999" stroke-width="1"/><line x1="771.21" y1="215.03" x2="771.21" y2="191.23" stroke="#999" stroke-width="1"/><line x1="772.91" y1="210.37" x2="772.91" y2="201.04" stroke="#999" stroke-width="1"/><line x1="774.61" y1="211.10" x2="774.61" y2="207.18" stroke="#999" stroke-width="1"/><line x1="776.32" y1="211.84" x2="776.32" y2="207.42" stroke="#999" stroke-width="1"/><line x1="778.02" y1="209.63" x2="778.02" y2="208.65" stroke="#999" stroke-width="1"/><line x1="779.72" y1="210.37" x2="779.72" y2="208.16" stroke="#999" stroke-width="1"/><line x1="781.42" y1="210.37" x2="781.42" y2="208.41" stroke="#999" stroke-width="1"/><line x1="783.12" y1="211.35" x2="783.12" y2="208.41" stroke="#999" stroke-width="1"/><line x1="784.82" y1="214.29" x2="784.82" y2="207.18" stroke="#999" stroke-width="1"/><line x1="786.52" y1="223.62" x2="786.52" y2="212.09" stroke="#999" stroke-width="1"/><line x1="788.23" y1="220.92" x2="788.23" y2="215.03" stroke="#999" stroke-width="1"/><line x1="789.93" y1="223.37" x2="789.93" y2="217.97" stroke="#999" stroke-width="1"/><line x1="791.63" y1="217.97" x2="791.63" y2="217.97" stroke="#999" stroke-width="1"/><line x1="793.33" y1="220.67" x2="793.33" y2="216.99" stroke="#999" stroke-width="1"/><line x1="795.03" y1="221.16" x2="795.03" y2="220.18" stroke="#999" stroke-width="1"/><line x1="796.73" y1="221.65" x2="796.73" y2="221.65" stroke="#999" stroke-width="1"/><line x1="798.43" y1="227.30" x2="798.43" y2="221.65" stroke="#999" stroke-width="1"/><line x1="800.14" y1="228.77" x2="800.14" y2="226.32" stroke="#999" stroke-width="1"/><line x1="801.84" y1="226.81" x2="801.84" y2="226.32" stroke="#999" stroke-width="1"/><line x1="803.54" y1="239.57" x2="803.54" y2="226.56" stroke="#999" stroke-width="1"/><line x1="805.24" y1="233.19" x2="805.24" y2="226.81" stroke="#999" stroke-width="1"/><line x1="806.94" y1="234.90" x2="806.94" y2="230.24" stroke="#999" stroke-width="1"/><line x1="808.64" y1="234.41" x2="808.64" y2="231.47" stroke="#999" stroke-width="1"/><line x1="810.34" y1="234.90" x2="810.34" y2="232.45" stroke="#999" stroke-width="1"/><line x1="812.05" y1="234.66" x2="812.05" y2="231.71" stroke="#999" stroke-width="1"/><line x1="813.75" y1="233.19" x2="813.75" y2="230.49" stroke="#999" stroke-width="1"/><line x1="815.45" y1="232.70" x2="815.45" y2="230.00" stroke="#999" stroke-width="1"/><line x1="817.15" y1="239.81" x2="817.15" y2="230.98" stroke="#999" stroke-width="1"/><line x1="818.85" y1="235.15" x2="818.85" y2="229.26" stroke="#999" stroke-width="1"/><line x1="820.55" y1="242.02" x2="820.55" y2="230.98" stroke="#999" stroke-width="1"/><line x1="822.25" y1="234.90" x2="822.25" y2="234.41" stroke="#999" stroke-width="1"/><line x1="823.96" y1="234.41" x2="823.96" y2="232.20" stroke="#999" stroke-width="1"/><line x1="825.66" y1="235.39" x2="825.66" y2="233.19" stroke="#999" stroke-width="1"/><line x1="827.36" y1="233.68" x2="827.36" y2="232.20" stroke="#999" stroke-width="1"/><line x1="829.06" y1="234.17" x2="829.06" y2="232.45" stroke="#999" stroke-width="1"/><line x1="830.76" y1="234.17" x2="830.76" y2="232.20" stroke="#999" stroke-width="1"/><line x1="832.46" y1="233.68" x2="832.46" y2="226.56" stroke="#999" stroke-width="1"/><line x1="834.16" y1="234.90" x2="834.16" y2="226.07" stroke="#999" stroke-width="1"/><line x1="835.87" y1="234.41" x2="835.87" y2="231.96" stroke="#999" stroke-width="1"/><line x1="837.57" y1="243.25" x2="837.57" y2="233.68" stroke="#999" stroke-width="1"/><line x1="839.27" y1="235.15" x2="839.27" y2="235.15" stroke="#999" stroke-width="1"/><line x1="840.97" y1="239.07" x2="840.97" y2="235.15" stroke="#999" stroke-width="1"/><line x1="842.67" y1="234.66" x2="842.67" y2="230.73" stroke="#999" stroke-width="1"/><line x1="844.37" y1="234.66" x2="844.37" y2="230.73" stroke="#999" stroke-width="1"/><line x1="846.08" y1="236.62" x2="846.08" y2="232.45" stroke="#999" stroke-width="1"/><line x1="847.78" y1="245.21" x2="847.78" y2="236.87" stroke="#999" stroke-width="1"/><line x1="849.48" y1="240.30" x2="849.48" y2="237.60" stroke="#999" stroke-width="1"/><line x1="851.18" y1="240.79" x2="851.18" y2="237.11" stroke="#999" stroke-width="1"/><line x1="852.88" y1="239.32" x2="852.88" y2="237.11" stroke="#999" stroke-width="1"/><line x1="854.58" y1="243.98" x2="854.58" y2="237.11" stroke="#999" stroke-width="1"/><line x1="856.28" y1="248.40" x2="856.28" y2="239.81" stroke="#999" stroke-width="1"/><line x1="857.99" y1="241.28" x2="857.99" y2="241.28" stroke="#999" stroke-width="1"/><line x1="859.69" y1="242.26" x2="859.69" y2="242.26" stroke="#999" stroke-width="1"/><line x1="861.39" y1="242.26" x2="861.39" y2="239.07" stroke="#999" stroke-width="1"/><line x1="863.09" y1="239.07" x2="863.09" y2="239.07" stroke="#999" stroke-width="1"/><line x1="864.79" y1="239.07" x2="864.79" y2="239.07" stroke="#999" stroke-width="1"/><line x1="866.49" y1="248.40" x2="866.49" y2="233.68" stroke="#999" stroke-width="1"/><line x1="868.19" y1="237.60" x2="868.19" y2="228.28" stroke="#999" stroke-width="1"/><line x1="869.90" y1="236.13" x2="869.90" y2="225.09" stroke="#999" stroke-width="1"/><line x1="871.60" y1="229.26" x2="871.60" y2="223.13" stroke="#999" stroke-width="1"/><line x1="873.30" y1="223.62" x2="873.30" y2="201.78" stroke="#999" stroke-width="1"/><line x1="875.00" y1="223.86" x2="875.00" y2="206.20" stroke="#999" stroke-width="1"/><polyline points="60.00,364.70 61.70,366.17 63.40,365.43 65.10,368.13 66.81,367.39 68.51,367.39 70.21,368.13 71.91,366.17 73.61,366.66 75.31,366.90 77.01,366.90 78.72,367.15 80.42,368.87 82.12,367.88 83.82,368.13 85.52,368.13 87.22,366.66 88.92,366.90 90.63,366.66 92.33,366.17 94.03,368.38 95.73,366.17 97.43,364.45 99.13,366.17 100.84,368.87 102.54,364.94 104.24,368.87 105.94,364.94 107.64,367.15 109.34,315.87 111.04,347.03 112.75,330.10 114.45,337.71 116.15,307.77 117.85,305.32 119.55,305.07 121.25,309.25 122.95,308.02 124.66,304.58 126.36,302.13 128.06,247.66 129.76,275.88 131.46,307.77 133.16,337.95 134.86,304.09 136.57,340.90 138.27,335.99 139.97,332.06 141.67,335.99 143.37,334.76 145.07,328.14 146.77,329.12 148.48,327.65 150.18,331.08 151.88,335.25 153.58,347.77 155.28,336.23 156.98,333.54 158.68,331.82 160.39,346.05 162.09,348.26 163.79,345.56 165.49,348.26 167.19,349.97 168.89,357.58 170.59,357.33 172.30,355.13 174.00,355.13 175.70,351.45 177.40,353.41 179.10,353.16 180.80,351.94 182.51,350.22 184.21,348.75 185.91,347.77 187.61,348.26 189.31,348.01 191.01,349.48 192.71,347.28 194.42,346.29 196.12,341.63 197.82,342.61 199.52,343.35 201.22,345.07 202.92,339.18 204.62,334.27 206.33,338.44 208.03,334.03 209.73,333.04 211.43,337.22 213.13,339.91 214.83,338.20 216.53,344.33 218.24,340.65 219.94,335.74 221.64,335.74 223.34,335.74 225.04,335.74 226.74,338.69 228.44,336.23 230.15,333.29 231.85,337.46 233.55,335.01 235.25,335.74 236.95,334.27 238.65,333.78 240.35,333.54 242.06,325.44 243.76,326.67 245.46,323.48 247.16,325.93 248.86,320.29 250.56,316.61 252.27,324.21 253.97,322.74 255.67,317.83 257.37,322.74 259.07,325.44 260.77,323.48 262.47,324.70 264.18,323.48 265.88,326.67 267.58,323.23 269.28,325.68 270.98,325.44 272.68,325.44 274.38,325.68 276.09,323.23 277.79,323.97 279.49,322.99 281.19,316.61 282.89,322.25 284.59,321.02 286.29,318.81 288.00,318.57 289.70,317.83 291.40,319.06 293.10,319.55 294.80,318.32 296.50,318.57 298.20,317.83 299.91,319.06 301.61,320.04 303.31,319.06 305.01,316.36 306.71,316.12 308.41,316.12 310.11,318.81 311.82,316.12 313.52,318.81 315.22,316.85 316.92,316.85 318.62,318.08 320.32,318.81 322.03,322.25 323.73,322.25 325.43,322.00 327.13,322.99 328.83,322.99 330.53,323.97 332.23,326.67 333.94,332.31 335.64,331.82 337.34,332.55 339.04,331.57 340.74,331.82 342.44,331.08 344.14,329.61 345.85,329.61 347.55,330.84 349.25,331.08 350.95,332.80 352.65,330.59 354.35,333.54 356.05,332.55 357.76,333.04 359.46,330.84 361.16,330.59 362.86,331.57 364.56,329.86 366.26,330.35 367.96,332.31 369.67,332.31 371.37,333.04 373.07,334.52 374.77,330.35 376.47,327.40 378.17,324.46 379.87,323.97 381.58,313.42 383.28,309.49 384.98,288.64 386.68,284.71 388.38,286.18 390.08,285.94 391.78,288.64 393.49,288.14 395.19,291.09 396.89,288.64 398.59,286.92 400.29,282.75 401.99,282.99 403.70,284.22 405.40,281.28 407.10,282.50 408.80,282.01 410.50,283.73 412.20,283.97 413.90,287.90 415.61,284.46 417.31,285.69 419.01,287.41 420.71,286.92 422.41,287.16 424.11,287.41 425.81,287.90 427.52,287.65 429.22,284.71 430.92,288.88 432.62,292.32 434.32,289.13 436.02,300.66 437.72,300.17 439.43,299.19 441.13,293.54 442.83,289.86 444.53,289.13 446.23,288.39 447.93,286.43 449.63,289.86 451.34,288.64 453.04,288.64 454.74,289.37 456.44,288.64 458.14,285.45 459.84,288.64 461.54,285.69 463.25,286.67 464.95,282.75 466.65,272.93 468.35,270.23 470.05,269.25 471.75,269.74 473.46,269.01 475.16,266.80 476.86,259.44 478.56,265.57 480.26,268.03 481.96,264.84 483.66,257.72 485.37,256.25 487.07,256.49 488.77,257.23 490.47,253.55 492.17,254.04 493.87,239.81 495.57,248.64 497.28,252.08 498.98,246.93 500.68,248.15 502.38,243.25 504.08,236.13 505.78,241.28 507.48,235.64 509.19,234.17 510.89,228.77 512.59,230.24 514.29,234.17 515.99,230.00 517.69,229.51 519.39,225.58 521.10,220.92 522.80,225.58 524.50,227.54 526.20,216.99 527.90,222.14 529.60,215.28 531.30,218.71 533.01,217.24 534.71,215.28 536.41,212.09 538.11,213.80 539.81,214.29 541.51,212.33 543.22,210.37 544.92,213.07 546.62,212.09 548.32,215.28 550.02,215.03 551.72,214.29 553.42,213.80 555.13,208.16 556.83,211.59 558.53,206.69 560.23,215.03 561.93,214.78 563.63,214.78 565.33,215.28 567.04,217.24 568.74,221.41 570.44,228.28 572.14,229.26 573.84,230.00 575.54,225.33 577.24,220.67 578.95,223.62 580.65,223.62 582.35,223.13 584.05,224.35 585.75,218.71 587.45,215.52 589.15,215.28 590.86,215.52 592.56,212.82 594.26,221.65 595.96,215.28 597.66,215.77 599.36,217.24 601.06,226.81 602.77,252.57 604.47,246.93 606.17,248.64 607.87,248.15 609.57,248.64 611.27,249.38 612.97,247.91 614.68,249.38 616.38,247.17 618.08,253.30 619.78,252.57 621.48,252.57 623.18,252.57 624.89,252.81 626.59,257.72 628.29,245.45 629.99,243.49 631.69,251.59 633.39,256.00 635.09,257.48 636.80,243.49 638.50,238.34 640.20,223.13 641.90,229.75 643.60,228.28 645.30,215.28 647.00,216.50 648.71,214.29 650.41,213.31 652.11,213.56 653.81,215.03 655.51,215.28 657.21,215.77 658.91,215.03 660.62,215.28 662.32,214.54 664.02,215.52 665.72,214.05 667.42,209.39 669.12,207.91 670.82,205.95 672.53,204.48 674.23,203.01 675.93,203.01 677.63,198.35 679.33,198.10 681.03,190.74 682.73,190.99 684.44,199.08 686.14,199.82 687.84,194.17 689.54,187.80 691.24,196.38 692.94,196.14 694.65,194.42 696.35,190.00 698.05,188.04 699.75,190.00 701.45,189.27 703.15,188.04 704.85,188.53 706.56,185.59 708.26,185.59 709.96,187.80 711.66,184.36 713.36,178.72 715.06,176.51 716.76,179.94 718.47,181.91 720.17,178.72 721.87,173.81 723.57,164.49 725.27,152.71 726.97,139.22 728.67,158.35 730.38,158.84 732.08,156.39 733.78,167.92 735.48,161.54 737.18,173.57 738.88,178.72 740.58,176.51 742.29,177.49 743.99,172.58 745.69,174.30 747.39,186.32 749.09,189.76 750.79,190.00 752.49,190.00 754.20,196.87 755.90,197.36 757.60,192.46 759.30,192.46 761.00,190.74 762.70,192.21 764.41,190.49 766.11,190.99 767.81,190.00 769.51,192.46 771.21,200.06 772.91,208.41 774.61,208.90 776.32,209.14 778.02,208.65 779.72,209.88 781.42,209.39 783.12,209.39 784.82,214.29 786.52,219.69 788.23,220.67 789.93,217.97 791.63,217.97 793.33,220.67 795.03,221.16 796.73,221.65 798.43,227.30 800.14,226.32 801.84,226.32 803.54,228.52 805.24,226.81 806.94,231.71 808.64,233.19 810.34,233.68 812.05,232.45 813.75,231.22 815.45,231.96 817.15,235.39 818.85,232.20 820.55,234.90 822.25,234.41 823.96,232.20 825.66,233.68 827.36,232.20 829.06,234.17 830.76,232.70 832.46,226.81 834.16,233.19 835.87,233.92 837.57,235.15 839.27,235.15 840.97,237.11 842.67,234.66 844.37,234.66 846.08,236.38 847.78,240.79 849.48,238.34 851.18,238.09 852.88,238.34 854.58,242.51 856.28,241.28 857.99,241.28 859.69,242.26 861.39,239.07 863.09,239.07 864.79,239.07 866.49,235.39 868.19,234.17 869.90,227.30 871.60,223.62 873.30,202.27 875.00,209.88" fill="none" stroke="#111" stroke-width="2"/><line x1="60" y1="375" x2="875" y2="375" stroke="#222"/><line x1="60" y1="45" x2="60" y2="375" stroke="#222"/><text x="450.0" y="410" text-anchor="middle" font-family="Arial" font-size="12">Bars before checkpoint</text><text transform="translate(14 210.0) rotate(-90)" text-anchor="middle" font-family="Arial" font-size="12">Normalized price (checkpoint close=100)</text></svg>