<svg xmlns="http://www.w3.org/2000/svg" width="900" height="420" viewBox="0 0 900 420"><rect width="100%" height="100%" fill="white"/><text x="450.0" y="24" text-anchor="middle" font-family="Arial" font-size="18">G2-SV-0012 1H</text><line x1="60" y1="45.00" x2="875" y2="45.00" stroke="#ddd" stroke-width="1"/><text x="5" y="49.00" font-size="11">222.04</text><line x1="60" y1="111.00" x2="875" y2="111.00" stroke="#ddd" stroke-width="1"/><text x="5" y="115.00" font-size="11">192.60</text><line x1="60" y1="177.00" x2="875" y2="177.00" stroke="#ddd" stroke-width="1"/><text x="5" y="181.00" font-size="11">163.16</text><line x1="60" y1="243.00" x2="875" y2="243.00" stroke="#ddd" stroke-width="1"/><text x="5" y="247.00" font-size="11">133.72</text><line x1="60" y1="309.00" x2="875" y2="309.00" stroke="#ddd" stroke-width="1"/><text x="5" y="313.00" font-size="11">104.28</text><line x1="60" y1="375.00" x2="875" y2="375.00" stroke="#ddd" stroke-width="1"/><text x="5" y="379.00" font-size="11">74.84</text><line x1="60.00" y1="111.57" x2="60.00" y2="99.50" stroke="#999" stroke-width="1"/><line x1="61.70" y1="112.28" x2="61.70" y2="104.97" stroke="#999" stroke-width="1"/><line x1="63.40" y1="112.23" x2="63.40" y2="106.98" stroke="#999" stroke-width="1"/><line x1="65.10" y1="122.01" x2="65.10" y2="110.43" stroke="#999" stroke-width="1"/><line x1="66.81" y1="121.77" x2="66.81" y2="114.96" stroke="#999" stroke-width="1"/><line x1="68.51" y1="122.16" x2="68.51" y2="114.65" stroke="#999" stroke-width="1"/><line x1="70.21" y1="119.23" x2="70.21" y2="114.80" stroke="#999" stroke-width="1"/><line x1="71.91" y1="127.85" x2="71.91" y2="117.87" stroke="#999" stroke-width="1"/><line x1="73.61" y1="135.73" x2="73.61" y2="127.11" stroke="#999" stroke-width="1"/><line x1="75.31" y1="148.63" x2="75.31" y2="129.68" stroke="#999" stroke-width="1"/><line x1="77.01" y1="139.60" x2="77.01" y2="124.97" stroke="#999" stroke-width="1"/><line x1="78.72" y1="138.38" x2="78.72" y2="121.43" stroke="#999" stroke-width="1"/><line x1="80.42" y1="129.01" x2="80.42" y2="121.15" stroke="#999" stroke-width="1"/><line x1="82.12" y1="129.40" x2="82.12" y2="122.16" stroke="#999" stroke-width="1"/><line x1="83.82" y1="128.78" x2="83.82" y2="121.95" stroke="#999" stroke-width="1"/><line x1="85.52" y1="126.21" x2="85.52" y2="113.16" stroke="#999" stroke-width="1"/><line x1="87.22" y1="119.18" x2="87.22" y2="111.88" stroke="#999" stroke-width="1"/><line x1="88.92" y1="123.88" x2="88.92" y2="117.23" stroke="#999" stroke-width="1"/><line x1="90.63" y1="125.36" x2="90.63" y2="115.05" stroke="#999" stroke-width="1"/><line x1="92.33" y1="122.16" x2="92.33" y2="114.41" stroke="#999" stroke-width="1"/><line x1="94.03" y1="120.84" x2="94.03" y2="114.91" stroke="#999" stroke-width="1"/><line x1="95.73" y1="123.88" x2="95.73" y2="117.03" stroke="#999" stroke-width="1"/><line x1="97.43" y1="126.46" x2="97.43" y2="120.01" stroke="#999" stroke-width="1"/><line x1="99.13" y1="124.59" x2="99.13" y2="119.82" stroke="#999" stroke-width="1"/><line x1="100.84" y1="130.20" x2="100.84" y2="122.14" stroke="#999" stroke-width="1"/><line x1="102.54" y1="127.83" x2="102.54" y2="109.22" stroke="#999" stroke-width="1"/><line x1="104.24" y1="110.72" x2="104.24" y2="104.56" stroke="#999" stroke-width="1"/><line x1="105.94" y1="114.71" x2="105.94" y2="105.75" stroke="#999" stroke-width="1"/><line x1="107.64" y1="127.53" x2="107.64" y2="114.22" stroke="#999" stroke-width="1"/><line x1="109.34" y1="135.18" x2="109.34" y2="126.48" stroke="#999" stroke-width="1"/><line x1="111.04" y1="131.55" x2="111.04" y2="118.42" stroke="#999" stroke-width="1"/><line x1="112.75" y1="126.81" x2="112.75" y2="116.70" stroke="#999" stroke-width="1"/><line x1="114.45" y1="128.04" x2="114.45" y2="119.43" stroke="#999" stroke-width="1"/><line x1="116.15" y1="127.64" x2="116.15" y2="118.19" stroke="#999" stroke-width="1"/><line x1="117.85" y1="122.47" x2="117.85" y2="110.15" stroke="#999" stroke-width="1"/><line x1="119.55" y1="119.78" x2="119.55" y2="111.14" stroke="#999" stroke-width="1"/><line x1="121.25" y1="123.49" x2="121.25" y2="117.81" stroke="#999" stroke-width="1"/><line x1="122.95" y1="122.04" x2="122.95" y2="116.56" stroke="#999" stroke-width="1"/><line x1="124.66" y1="122.29" x2="124.66" y2="112.91" stroke="#999" stroke-width="1"/><line x1="126.36" y1="117.21" x2="126.36" y2="112.14" stroke="#999" stroke-width="1"/><line x1="128.06" y1="116.25" x2="128.06" y2="108.36" stroke="#999" stroke-width="1"/><line x1="129.76" y1="117.75" x2="129.76" y2="112.07" stroke="#999" stroke-width="1"/><line x1="131.46" y1="121.28" x2="131.46" y2="114.73" stroke="#999" stroke-width="1"/><line x1="133.16" y1="127.72" x2="133.16" y2="115.84" stroke="#999" stroke-width="1"/><line x1="134.86" y1="131.65" x2="134.86" y2="125.70" stroke="#999" stroke-width="1"/><line x1="136.57" y1="136.19" x2="136.57" y2="128.80" stroke="#999" stroke-width="1"/><line x1="138.27" y1="136.05" x2="138.27" y2="128.05" stroke="#999" stroke-width="1"/><line x1="139.97" y1="135.95" x2="139.97" y2="124.55" stroke="#999" stroke-width="1"/><line x1="141.67" y1="130.64" x2="141.67" y2="109.45" stroke="#999" stroke-width="1"/><line x1="143.37" y1="118.76" x2="143.37" y2="100.97" stroke="#999" stroke-width="1"/><line x1="145.07" y1="107.76" x2="145.07" y2="95.17" stroke="#999" stroke-width="1"/><line x1="146.77" y1="115.20" x2="146.77" y2="101.03" stroke="#999" stroke-width="1"/><line x1="148.48" y1="115.92" x2="148.48" y2="105.66" stroke="#999" stroke-width="1"/><line x1="150.18" y1="116.87" x2="150.18" y2="109.46" stroke="#999" stroke-width="1"/><line x1="151.88" y1="119.43" x2="151.88" y2="114.25" stroke="#999" stroke-width="1"/><line x1="153.58" y1="119.08" x2="153.58" y2="105.07" stroke="#999" stroke-width="1"/><line x1="155.28" y1="111.29" x2="155.28" y2="103.70" stroke="#999" stroke-width="1"/><line x1="156.98" y1="111.22" x2="156.98" y2="106.08" stroke="#999" stroke-width="1"/><line x1="158.68" y1="113.50" x2="158.68" y2="108.38" stroke="#999" stroke-width="1"/><line x1="160.39" y1="113.39" x2="160.39" y2="106.05" stroke="#999" stroke-width="1"/><line x1="162.09" y1="109.19" x2="162.09" y2="102.09" stroke="#999" stroke-width="1"/><line x1="163.79" y1="105.85" x2="163.79" y2="99.51" stroke="#999" stroke-width="1"/><line x1="165.49" y1="101.53" x2="165.49" y2="94.57" stroke="#999" stroke-width="1"/><line x1="167.19" y1="104.31" x2="167.19" y2="98.77" stroke="#999" stroke-width="1"/><line x1="168.89" y1="104.29" x2="168.89" y2="99.30" stroke="#999" stroke-width="1"/><line x1="170.59" y1="106.81" x2="170.59" y2="98.34" stroke="#999" stroke-width="1"/><line x1="172.30" y1="104.35" x2="172.30" y2="99.56" stroke="#999" stroke-width="1"/><line x1="174.00" y1="106.99" x2="174.00" y2="101.53" stroke="#999" stroke-width="1"/><line x1="175.70" y1="110.33" x2="175.70" y2="105.76" stroke="#999" stroke-width="1"/><line x1="177.40" y1="109.78" x2="177.40" y2="101.66" stroke="#999" stroke-width="1"/><line x1="179.10" y1="107.30" x2="179.10" y2="101.32" stroke="#999" stroke-width="1"/><line x1="180.80" y1="111.22" x2="180.80" y2="105.55" stroke="#999" stroke-width="1"/><line x1="182.51" y1="110.20" x2="182.51" y2="104.77" stroke="#999" stroke-width="1"/><line x1="184.21" y1="110.19" x2="184.21" y2="105.83" stroke="#999" stroke-width="1"/><line x1="185.91" y1="116.36" x2="185.91" y2="107.93" stroke="#999" stroke-width="1"/><line x1="187.61" y1="115.87" x2="187.61" y2="109.07" stroke="#999" stroke-width="1"/><line x1="189.31" y1="122.72" x2="189.31" y2="112.96" stroke="#999" stroke-width="1"/><line x1="191.01" y1="126.19" x2="191.01" y2="119.39" stroke="#999" stroke-width="1"/><line x1="192.71" y1="126.01" x2="192.71" y2="121.30" stroke="#999" stroke-width="1"/><line x1="194.42" y1="124.04" x2="194.42" y2="116.66" stroke="#999" stroke-width="1"/><line x1="196.12" y1="118.57" x2="196.12" y2="112.40" stroke="#999" stroke-width="1"/><line x1="197.82" y1="118.67" x2="197.82" y2="114.73" stroke="#999" stroke-width="1"/><line x1="199.52" y1="117.83" x2="199.52" y2="110.83" stroke="#999" stroke-width="1"/><line x1="201.22" y1="112.67" x2="201.22" y2="109.49" stroke="#999" stroke-width="1"/><line x1="202.92" y1="112.68" x2="202.92" y2="107.55" stroke="#999" stroke-width="1"/><line x1="204.62" y1="112.98" x2="204.62" y2="110.06" stroke="#999" stroke-width="1"/><line x1="206.33" y1="114.81" x2="206.33" y2="109.69" stroke="#999" stroke-width="1"/><line x1="208.03" y1="117.74" x2="208.03" y2="113.73" stroke="#999" stroke-width="1"/><line x1="209.73" y1="114.70" x2="209.73" y2="107.64" stroke="#999" stroke-width="1"/><line x1="211.43" y1="110.76" x2="211.43" y2="104.55" stroke="#999" stroke-width="1"/><line x1="213.13" y1="106.74" x2="213.13" y2="99.74" stroke="#999" stroke-width="1"/><line x1="214.83" y1="106.46" x2="214.83" y2="102.93" stroke="#999" stroke-width="1"/><line x1="216.53" y1="106.17" x2="216.53" y2="97.36" stroke="#999" stroke-width="1"/><line x1="218.24" y1="102.92" x2="218.24" y2="99.10" stroke="#999" stroke-width="1"/><line x1="219.94" y1="106.19" x2="219.94" y2="98.69" stroke="#999" stroke-width="1"/><line x1="221.64" y1="108.28" x2="221.64" y2="101.39" stroke="#999" stroke-width="1"/><line x1="223.34" y1="108.39" x2="223.34" y2="100.57" stroke="#999" stroke-width="1"/><line x1="225.04" y1="111.31" x2="225.04" y2="106.61" stroke="#999" stroke-width="1"/><line x1="226.74" y1="108.70" x2="226.74" y2="99.89" stroke="#999" stroke-width="1"/><line x1="228.44" y1="106.14" x2="228.44" y2="99.73" stroke="#999" stroke-width="1"/><line x1="230.15" y1="103.12" x2="230.15" y2="75.84" stroke="#999" stroke-width="1"/><line x1="231.85" y1="77.71" x2="231.85" y2="58.20" stroke="#999" stroke-width="1"/><line x1="233.55" y1="69.17" x2="233.55" y2="60.27" stroke="#999" stroke-width="1"/><line x1="235.25" y1="68.31" x2="235.25" y2="62.64" stroke="#999" stroke-width="1"/><line x1="236.95" y1="67.01" x2="236.95" y2="63.28" stroke="#999" stroke-width="1"/><line x1="238.65" y1="67.82" x2="238.65" y2="59.48" stroke="#999" stroke-width="1"/><line x1="240.35" y1="63.91" x2="240.35" y2="56.44" stroke="#999" stroke-width="1"/><line x1="242.06" y1="63.76" x2="242.06" y2="57.71" stroke="#999" stroke-width="1"/><line x1="243.76" y1="63.79" x2="243.76" y2="55.47" stroke="#999" stroke-width="1"/><line x1="245.46" y1="56.46" x2="245.46" y2="45.00" stroke="#999" stroke-width="1"/><line x1="247.16" y1="54.79" x2="247.16" y2="49.89" stroke="#999" stroke-width="1"/><line x1="248.86" y1="61.51" x2="248.86" y2="51.56" stroke="#999" stroke-width="1"/><line x1="250.56" y1="63.26" x2="250.56" y2="57.28" stroke="#999" stroke-width="1"/><line x1="252.27" y1="64.47" x2="252.27" y2="60.22" stroke="#999" stroke-width="1"/><line x1="253.97" y1="68.81" x2="253.97" y2="60.38" stroke="#999" stroke-width="1"/><line x1="255.67" y1="74.22" x2="255.67" y2="64.59" stroke="#999" stroke-width="1"/><line x1="257.37" y1="72.37" x2="257.37" y2="66.31" stroke="#999" stroke-width="1"/><line x1="259.07" y1="73.12" x2="259.07" y2="68.07" stroke="#999" stroke-width="1"/><line x1="260.77" y1="73.63" x2="260.77" y2="67.29" stroke="#999" stroke-width="1"/><line x1="262.47" y1="84.73" x2="262.47" y2="68.96" stroke="#999" stroke-width="1"/><line x1="264.18" y1="103.95" x2="264.18" y2="81.65" stroke="#999" stroke-width="1"/><line x1="265.88" y1="129.22" x2="265.88" y2="101.38" stroke="#999" stroke-width="1"/><line x1="267.58" y1="127.55" x2="267.58" y2="118.19" stroke="#999" stroke-width="1"/><line x1="269.28" y1="126.79" x2="269.28" y2="118.24" stroke="#999" stroke-width="1"/><line x1="270.98" y1="138.59" x2="270.98" y2="123.91" stroke="#999" stroke-width="1"/><line x1="272.68" y1="134.14" x2="272.68" y2="122.81" stroke="#999" stroke-width="1"/><line x1="274.38" y1="127.28" x2="274.38" y2="115.82" stroke="#999" stroke-width="1"/><line x1="276.09" y1="119.05" x2="276.09" y2="113.72" stroke="#999" stroke-width="1"/><line x1="277.79" y1="123.00" x2="277.79" y2="117.18" stroke="#999" stroke-width="1"/><line x1="279.49" y1="122.81" x2="279.49" y2="117.24" stroke="#999" stroke-width="1"/><line x1="281.19" y1="128.50" x2="281.19" y2="117.16" stroke="#999" stroke-width="1"/><line x1="282.89" y1="127.95" x2="282.89" y2="122.17" stroke="#999" stroke-width="1"/><line x1="284.59" y1="126.86" x2="284.59" y2="121.38" stroke="#999" stroke-width="1"/><line x1="286.29" y1="127.33" x2="286.29" y2="122.86" stroke="#999" stroke-width="1"/><line x1="288.00" y1="129.50" x2="288.00" y2="123.72" stroke="#999" stroke-width="1"/><line x1="289.70" y1="128.16" x2="289.70" y2="120.07" stroke="#999" stroke-width="1"/><line x1="291.40" y1="122.39" x2="291.40" y2="118.91" stroke="#999" stroke-width="1"/><line x1="293.10" y1="135.25" x2="293.10" y2="119.21" stroke="#999" stroke-width="1"/><line x1="294.80" y1="133.71" x2="294.80" y2="126.24" stroke="#999" stroke-width="1"/><line x1="296.50" y1="132.86" x2="296.50" y2="125.53" stroke="#999" stroke-width="1"/><line x1="298.20" y1="136.37" x2="298.20" y2="126.27" stroke="#999" stroke-width="1"/><line x1="299.91" y1="141.21" x2="299.91" y2="130.27" stroke="#999" stroke-width="1"/><line x1="301.61" y1="138.12" x2="301.61" y2="126.20" stroke="#999" stroke-width="1"/><line x1="303.31" y1="147.74" x2="303.31" y2="133.52" stroke="#999" stroke-width="1"/><line x1="305.01" y1="146.24" x2="305.01" y2="133.10" stroke="#999" stroke-width="1"/><line x1="306.71" y1="137.11" x2="306.71" y2="127.10" stroke="#999" stroke-width="1"/><line x1="308.41" y1="139.64" x2="308.41" y2="131.12" stroke="#999" stroke-width="1"/><line x1="310.11" y1="136.88" x2="310.11" y2="130.76" stroke="#999" stroke-width="1"/><line x1="311.82" y1="139.59" x2="311.82" y2="134.41" stroke="#999" stroke-width="1"/><line x1="313.52" y1="138.02" x2="313.52" y2="129.77" stroke="#999" stroke-width="1"/><line x1="315.22" y1="135.13" x2="315.22" y2="129.78" stroke="#999" stroke-width="1"/><line x1="316.92" y1="135.88" x2="316.92" y2="130.08" stroke="#999" stroke-width="1"/><line x1="318.62" y1="138.22" x2="318.62" y2="132.38" stroke="#999" stroke-width="1"/><line x1="320.32" y1="135.57" x2="320.32" y2="131.99" stroke="#999" stroke-width="1"/><line x1="322.03" y1="136.90" x2="322.03" y2="132.03" stroke="#999" stroke-width="1"/><line x1="323.73" y1="139.23" x2="323.73" y2="133.70" stroke="#999" stroke-width="1"/><line x1="325.43" y1="140.88" x2="325.43" y2="135.31" stroke="#999" stroke-width="1"/><line x1="327.13" y1="142.48" x2="327.13" y2="138.04" stroke="#999" stroke-width="1"/><line x1="328.83" y1="147.55" x2="328.83" y2="140.66" stroke="#999" stroke-width="1"/><line x1="330.53" y1="147.68" x2="330.53" y2="140.45" stroke="#999" stroke-width="1"/><line x1="332.23" y1="143.61" x2="332.23" y2="140.45" stroke="#999" stroke-width="1"/><line x1="333.94" y1="143.87" x2="333.94" y2="139.61" stroke="#999" stroke-width="1"/><line x1="335.64" y1="141.02" x2="335.64" y2="134.58" stroke="#999" stroke-width="1"/><line x1="337.34" y1="138.20" x2="337.34" y2="133.69" stroke="#999" stroke-width="1"/><line x1="339.04" y1="138.82" x2="339.04" y2="134.30" stroke="#999" stroke-width="1"/><line x1="340.74" y1="137.86" x2="340.74" y2="134.10" stroke="#999" stroke-width="1"/><line x1="342.44" y1="138.08" x2="342.44" y2="131.74" stroke="#999" stroke-width="1"/><line x1="344.14" y1="139.49" x2="344.14" y2="131.80" stroke="#999" stroke-width="1"/><line x1="345.85" y1="137.69" x2="345.85" y2="132.17" stroke="#999" stroke-width="1"/><line x1="347.55" y1="135.45" x2="347.55" y2="132.02" stroke="#999" stroke-width="1"/><line x1="349.25" y1="134.56" x2="349.25" y2="130.91" stroke="#999" stroke-width="1"/><line x1="350.95" y1="134.66" x2="350.95" y2="131.89" stroke="#999" stroke-width="1"/><line x1="352.65" y1="134.42" x2="352.65" y2="130.66" stroke="#999" stroke-width="1"/><line x1="354.35" y1="135.24" x2="354.35" y2="132.66" stroke="#999" stroke-width="1"/><line x1="356.05" y1="139.17" x2="356.05" y2="134.66" stroke="#999" stroke-width="1"/><line x1="357.76" y1="150.79" x2="357.76" y2="136.86" stroke="#999" stroke-width="1"/><line x1="359.46" y1="161.89" x2="359.46" y2="146.03" stroke="#999" stroke-width="1"/><line x1="361.16" y1="157.46" x2="361.16" y2="141.62" stroke="#999" stroke-width="1"/><line x1="362.86" y1="154.37" x2="362.86" y2="145.23" stroke="#999" stroke-width="1"/><line x1="364.56" y1="161.93" x2="364.56" y2="150.27" stroke="#999" stroke-width="1"/><line x1="366.26" y1="167.58" x2="366.26" y2="158.78" stroke="#999" stroke-width="1"/><line x1="367.96" y1="164.96" x2="367.96" y2="158.22" stroke="#999" stroke-width="1"/><line x1="369.67" y1="160.32" x2="369.67" y2="155.37" stroke="#999" stroke-width="1"/><line x1="371.37" y1="160.98" x2="371.37" y2="155.91" stroke="#999" stroke-width="1"/><line x1="373.07" y1="157.42" x2="373.07" y2="150.32" stroke="#999" stroke-width="1"/><line x1="374.77" y1="158.49" x2="374.77" y2="150.11" stroke="#999" stroke-width="1"/><line x1="376.47" y1="157.88" x2="376.47" y2="151.98" stroke="#999" stroke-width="1"/><line x1="378.17" y1="162.75" x2="378.17" y2="152.74" stroke="#999" stroke-width="1"/><line x1="379.87" y1="160.26" x2="379.87" y2="152.33" stroke="#999" stroke-width="1"/><line x1="381.58" y1="157.41" x2="381.58" y2="150.76" stroke="#999" stroke-width="1"/><line x1="383.28" y1="161.80" x2="383.28" y2="154.18" stroke="#999" stroke-width="1"/><line x1="384.98" y1="173.31" x2="384.98" y2="161.01" stroke="#999" stroke-width="1"/><line x1="386.68" y1="174.21" x2="386.68" y2="167.24" stroke="#999" stroke-width="1"/><line x1="388.38" y1="170.23" x2="388.38" y2="163.76" stroke="#999" stroke-width="1"/><line x1="390.08" y1="170.39" x2="390.08" y2="164.22" stroke="#999" stroke-width="1"/><line x1="391.78" y1="180.08" x2="391.78" y2="169.48" stroke="#999" stroke-width="1"/><line x1="393.49" y1="177.07" x2="393.49" y2="162.58" stroke="#999" stroke-width="1"/><line x1="395.19" y1="166.25" x2="395.19" y2="161.39" stroke="#999" stroke-width="1"/><line x1="396.89" y1="169.73" x2="396.89" y2="163.66" stroke="#999" stroke-width="1"/><line x1="398.59" y1="167.88" x2="398.59" y2="164.02" stroke="#999" stroke-width="1"/><line x1="400.29" y1="172.63" x2="400.29" y2="164.67" stroke="#999" stroke-width="1"/><line x1="401.99" y1="176.55" x2="401.99" y2="170.69" stroke="#999" stroke-width="1"/><line x1="403.70" y1="172.67" x2="403.70" y2="162.63" stroke="#999" stroke-width="1"/><line x1="405.40" y1="173.44" x2="405.40" y2="166.20" stroke="#999" stroke-width="1"/><line x1="407.10" y1="184.46" x2="407.10" y2="172.93" stroke="#999" stroke-width="1"/><line x1="408.80" y1="180.55" x2="408.80" y2="172.96" stroke="#999" stroke-width="1"/><line x1="410.50" y1="178.58" x2="410.50" y2="170.73" stroke="#999" stroke-width="1"/><line x1="412.20" y1="182.56" x2="412.20" y2="172.78" stroke="#999" stroke-width="1"/><line x1="413.90" y1="185.21" x2="413.90" y2="178.76" stroke="#999" stroke-width="1"/><line x1="415.61" y1="184.14" x2="415.61" y2="177.95" stroke="#999" stroke-width="1"/><line x1="417.31" y1="184.89" x2="417.31" y2="177.52" stroke="#999" stroke-width="1"/><line x1="419.01" y1="183.08" x2="419.01" y2="176.56" stroke="#999" stroke-width="1"/><line x1="420.71" y1="202.79" x2="420.71" y2="180.34" stroke="#999" stroke-width="1"/><line x1="422.41" y1="198.92" x2="422.41" y2="187.46" stroke="#999" stroke-width="1"/><line x1="424.11" y1="193.02" x2="424.11" y2="186.47" stroke="#999" stroke-width="1"/><line x1="425.81" y1="196.10" x2="425.81" y2="181.45" stroke="#999" stroke-width="1"/><line x1="427.52" y1="199.01" x2="427.52" y2="187.83" stroke="#999" stroke-width="1"/><line x1="429.22" y1="207.85" x2="429.22" y2="193.81" stroke="#999" stroke-width="1"/><line x1="430.92" y1="221.46" x2="430.92" y2="199.00" stroke="#999" stroke-width="1"/><line x1="432.62" y1="227.27" x2="432.62" y2="215.42" stroke="#999" stroke-width="1"/><line x1="434.32" y1="240.36" x2="434.32" y2="220.96" stroke="#999" stroke-width="1"/><line x1="436.02" y1="236.72" x2="436.02" y2="222.83" stroke="#999" stroke-width="1"/><line x1="437.72" y1="227.80" x2="437.72" y2="209.25" stroke="#999" stroke-width="1"/><line x1="439.43" y1="225.29" x2="439.43" y2="213.83" stroke="#999" stroke-width="1"/><line x1="441.13" y1="228.14" x2="441.13" y2="219.65" stroke="#999" stroke-width="1"/><line x1="442.83" y1="248.16" x2="442.83" y2="223.14" stroke="#999" stroke-width="1"/><line x1="444.53" y1="256.47" x2="444.53" y2="234.06" stroke="#999" stroke-width="1"/><line x1="446.23" y1="241.87" x2="446.23" y2="228.38" stroke="#999" stroke-width="1"/><line x1="447.93" y1="242.71" x2="447.93" y2="230.73" stroke="#999" stroke-width="1"/><line x1="449.63" y1="241.72" x2="449.63" y2="229.95" stroke="#999" stroke-width="1"/><line x1="451.34" y1="242.99" x2="451.34" y2="220.59" stroke="#999" stroke-width="1"/><line x1="453.04" y1="223.48" x2="453.04" y2="206.21" stroke="#999" stroke-width="1"/><line x1="454.74" y1="211.02" x2="454.74" y2="191.43" stroke="#999" stroke-width="1"/><line x1="456.44" y1="211.61" x2="456.44" y2="198.97" stroke="#999" stroke-width="1"/><line x1="458.14" y1="211.97" x2="458.14" y2="196.73" stroke="#999" stroke-width="1"/><line x1="459.84" y1="210.34" x2="459.84" y2="200.41" stroke="#999" stroke-width="1"/><line x1="461.54" y1="210.75" x2="461.54" y2="200.94" stroke="#999" stroke-width="1"/><line x1="463.25" y1="208.22" x2="463.25" y2="196.73" stroke="#999" stroke-width="1"/><line x1="464.95" y1="202.31" x2="464.95" y2="186.34" stroke="#999" stroke-width="1"/><line x1="466.65" y1="197.10" x2="466.65" y2="184.46" stroke="#999" stroke-width="1"/><line x1="468.35" y1="209.18" x2="468.35" y2="181.93" stroke="#999" stroke-width="1"/><line x1="470.05" y1="216.50" x2="470.05" y2="196.95" stroke="#999" stroke-width="1"/><line x1="471.75" y1="213.55" x2="471.75" y2="200.31" stroke="#999" stroke-width="1"/><line x1="473.46" y1="207.96" x2="473.46" y2="194.15" stroke="#999" stroke-width="1"/><line x1="475.16" y1="205.74" x2="475.16" y2="195.15" stroke="#999" stroke-width="1"/><line x1="476.86" y1="216.25" x2="476.86" y2="203.38" stroke="#999" stroke-width="1"/><line x1="478.56" y1="227.71" x2="478.56" y2="213.27" stroke="#999" stroke-width="1"/><line x1="480.26" y1="240.05" x2="480.26" y2="223.39" stroke="#999" stroke-width="1"/><line x1="481.96" y1="239.36" x2="481.96" y2="223.39" stroke="#999" stroke-width="1"/><line x1="483.66" y1="230.61" x2="483.66" y2="218.82" stroke="#999" stroke-width="1"/><line x1="485.37" y1="226.31" x2="485.37" y2="211.30" stroke="#999" stroke-width="1"/><line x1="487.07" y1="230.87" x2="487.07" y2="218.09" stroke="#999" stroke-width="1"/><line x1="488.77" y1="232.53" x2="488.77" y2="216.08" stroke="#999" stroke-width="1"/><line x1="490.47" y1="231.10" x2="490.47" y2="218.82" stroke="#999" stroke-width="1"/><line x1="492.17" y1="249.61" x2="492.17" y2="226.50" stroke="#999" stroke-width="1"/><line x1="493.87" y1="251.61" x2="493.87" y2="232.19" stroke="#999" stroke-width="1"/><line x1="495.57" y1="277.26" x2="495.57" y2="244.52" stroke="#999" stroke-width="1"/><line x1="497.28" y1="309.93" x2="497.28" y2="263.32" stroke="#999" stroke-width="1"/><line x1="498.98" y1="285.56" x2="498.98" y2="266.08" stroke="#999" stroke-width="1"/><line x1="500.68" y1="277.10" x2="500.68" y2="246.88" stroke="#999" stroke-width="1"/><line x1="502.38" y1="262.21" x2="502.38" y2="245.44" stroke="#999" stroke-width="1"/><line x1="504.08" y1="274.79" x2="504.08" y2="258.49" stroke="#999" stroke-width="1"/><line x1="505.78" y1="356.93" x2="505.78" y2="255.93" stroke="#999" stroke-width="1"/><line x1="507.48" y1="344.12" x2="507.48" y2="273.91" stroke="#999" stroke-width="1"/><line x1="509.19" y1="300.35" x2="509.19" y2="277.71" stroke="#999" stroke-width="1"/><line x1="510.89" y1="304.56" x2="510.89" y2="288.01" stroke="#999" stroke-width="1"/><line x1="512.59" y1="318.27" x2="512.59" y2="292.46" stroke="#999" stroke-width="1"/><line x1="514.29" y1="328.04" x2="514.29" y2="308.30" stroke="#999" stroke-width="1"/><line x1="515.99" y1="318.59" x2="515.99" y2="308.43" stroke="#999" stroke-width="1"/><line x1="517.69" y1="327.21" x2="517.69" y2="314.65" stroke="#999" stroke-width="1"/><line x1="519.39" y1="343.02" x2="519.39" y2="317.45" stroke="#999" stroke-width="1"/><line x1="521.10" y1="345.34" x2="521.10" y2="317.65" stroke="#999" stroke-width="1"/><line x1="522.80" y1="332.59" x2="522.80" y2="320.04" stroke="#999" stroke-width="1"/><line x1="524.50" y1="327.84" x2="524.50" y2="312.19" stroke="#999" stroke-width="1"/><line x1="526.20" y1="321.56" x2="526.20" y2="302.04" stroke="#999" stroke-width="1"/><line x1="527.90" y1="316.00" x2="527.90" y2="302.43" stroke="#999" stroke-width="1"/><line x1="529.60" y1="327.78" x2="529.60" y2="311.99" stroke="#999" stroke-width="1"/><line x1="531.30" y1="337.54" x2="531.30" y2="323.65" stroke="#999" stroke-width="1"/><line x1="533.01" y1="347.23" x2="533.01" y2="330.37" stroke="#999" stroke-width="1"/><line x1="534.71" y1="363.47" x2="534.71" y2="341.76" stroke="#999" stroke-width="1"/><line x1="536.41" y1="360.37" x2="536.41" y2="342.12" stroke="#999" stroke-width="1"/><line x1="538.11" y1="375.00" x2="538.11" y2="328.48" stroke="#999" stroke-width="1"/><line x1="539.81" y1="347.85" x2="539.81" y2="335.88" stroke="#999" stroke-width="1"/><line x1="541.51" y1="347.10" x2="541.51" y2="335.24" stroke="#999" stroke-width="1"/><line x1="543.22" y1="345.00" x2="543.22" y2="328.03" stroke="#999" stroke-width="1"/><line x1="544.92" y1="342.11" x2="544.92" y2="329.39" stroke="#999" stroke-width="1"/><line x1="546.62" y1="344.64" x2="546.62" y2="328.47" stroke="#999" stroke-width="1"/><line x1="548.32" y1="341.25" x2="548.32" y2="325.35" stroke="#999" stroke-width="1"/><line x1="550.02" y1="339.44" x2="550.02" y2="312.43" stroke="#999" stroke-width="1"/><line x1="551.72" y1="323.45" x2="551.72" y2="292.10" stroke="#999" stroke-width="1"/><line x1="553.42" y1="324.38" x2="553.42" y2="304.89" stroke="#999" stroke-width="1"/><line x1="555.13" y1="322.94" x2="555.13" y2="304.29" stroke="#999" stroke-width="1"/><line x1="556.83" y1="328.97" x2="556.83" y2="319.51" stroke="#999" stroke-width="1"/><line x1="558.53" y1="331.69" x2="558.53" y2="320.64" stroke="#999" stroke-width="1"/><line x1="560.23" y1="333.20" x2="560.23" y2="324.11" stroke="#999" stroke-width="1"/><line x1="561.93" y1="337.09" x2="561.93" y2="328.23" stroke="#999" stroke-width="1"/><line x1="563.63" y1="340.44" x2="563.63" y2="331.84" stroke="#999" stroke-width="1"/><line x1="565.33" y1="331.99" x2="565.33" y2="320.69" stroke="#999" stroke-width="1"/><line x1="567.04" y1="331.18" x2="567.04" y2="321.79" stroke="#999" stroke-width="1"/><line x1="568.74" y1="324.76" x2="568.74" y2="313.51" stroke="#999" stroke-width="1"/><line x1="570.44" y1="323.29" x2="570.44" y2="309.82" stroke="#999" stroke-width="1"/><line x1="572.14" y1="313.22" x2="572.14" y2="294.88" stroke="#999" stroke-width="1"/><line x1="573.84" y1="306.51" x2="573.84" y2="292.94" stroke="#999" stroke-width="1"/><line x1="575.54" y1="300.59" x2="575.54" y2="284.23" stroke="#999" stroke-width="1"/><line x1="577.24" y1="296.44" x2="577.24" y2="288.74" stroke="#999" stroke-width="1"/><line x1="578.95" y1="302.91" x2="578.95" y2="292.22" stroke="#999" stroke-width="1"/><line x1="580.65" y1="302.57" x2="580.65" y2="290.75" stroke="#999" stroke-width="1"/><line x1="582.35" y1="298.59" x2="582.35" y2="287.48" stroke="#999" stroke-width="1"/><line x1="584.05" y1="301.34" x2="584.05" y2="290.52" stroke="#999" stroke-width="1"/><line x1="585.75" y1="297.02" x2="585.75" y2="282.56" stroke="#999" stroke-width="1"/><line x1="587.45" y1="292.32" x2="587.45" y2="282.33" stroke="#999" stroke-width="1"/><line x1="589.15" y1="294.53" x2="589.15" y2="277.86" stroke="#999" stroke-width="1"/><line x1="590.86" y1="279.11" x2="590.86" y2="270.45" stroke="#999" stroke-width="1"/><line x1="592.56" y1="290.77" x2="592.56" y2="273.03" stroke="#999" stroke-width="1"/><line x1="594.26" y1="299.20" x2="594.26" y2="283.96" stroke="#999" stroke-width="1"/><line x1="595.96" y1="304.73" x2="595.96" y2="292.26" stroke="#999" stroke-width="1"/><line x1="597.66" y1="307.21" x2="597.66" y2="297.94" stroke="#999" stroke-width="1"/><line x1="599.36" y1="306.50" x2="599.36" y2="299.53" stroke="#999" stroke-width="1"/><line x1="601.06" y1="309.47" x2="601.06" y2="302.39" stroke="#999" stroke-width="1"/><line x1="602.77" y1="309.95" x2="602.77" y2="300.50" stroke="#999" stroke-width="1"/><line x1="604.47" y1="306.56" x2="604.47" y2="293.87" stroke="#999" stroke-width="1"/><line x1="606.17" y1="315.97" x2="606.17" y2="303.90" stroke="#999" stroke-width="1"/><line x1="607.87" y1="313.46" x2="607.87" y2="307.37" stroke="#999" stroke-width="1"/><line x1="609.57" y1="313.44" x2="609.57" y2="304.01" stroke="#999" stroke-width="1"/><line x1="611.27" y1="310.69" x2="611.27" y2="302.70" stroke="#999" stroke-width="1"/><line x1="612.97" y1="310.60" x2="612.97" y2="304.26" stroke="#999" stroke-width="1"/><line x1="614.68" y1="319.19" x2="614.68" y2="307.75" stroke="#999" stroke-width="1"/><line x1="616.38" y1="318.52" x2="616.38" y2="311.35" stroke="#999" stroke-width="1"/><line x1="618.08" y1="315.01" x2="618.08" y2="309.80" stroke="#999" stroke-width="1"/><line x1="619.78" y1="316.14" x2="619.78" y2="310.02" stroke="#999" stroke-width="1"/><line x1="621.48" y1="316.13" x2="621.48" y2="310.59" stroke="#999" stroke-width="1"/><line x1="623.18" y1="313.71" x2="623.18" y2="304.43" stroke="#999" stroke-width="1"/><line x1="624.89" y1="319.76" x2="624.89" y2="312.15" stroke="#999" stroke-width="1"/><line x1="626.59" y1="326.60" x2="626.59" y2="318.39" stroke="#999" stroke-width="1"/><line x1="628.29" y1="327.55" x2="628.29" y2="320.59" stroke="#999" stroke-width="1"/><line x1="629.99" y1="330.04" x2="629.99" y2="323.73" stroke="#999" stroke-width="1"/><line x1="631.69" y1="333.03" x2="631.69" y2="326.94" stroke="#999" stroke-width="1"/><line x1="633.39" y1="330.81" x2="633.39" y2="324.04" stroke="#999" stroke-width="1"/><line x1="635.09" y1="332.08" x2="635.09" y2="316.65" stroke="#999" stroke-width="1"/><line x1="636.80" y1="322.77" x2="636.80" y2="314.32" stroke="#999" stroke-width="1"/><line x1="638.50" y1="316.16" x2="638.50" y2="307.15" stroke="#999" stroke-width="1"/><line x1="640.20" y1="319.76" x2="640.20" y2="314.51" stroke="#999" stroke-width="1"/><line x1="641.90" y1="319.21" x2="641.90" y2="309.33" stroke="#999" stroke-width="1"/><line x1="643.60" y1="315.76" x2="643.60" y2="304.38" stroke="#999" stroke-width="1"/><line x1="645.30" y1="308.99" x2="645.30" y2="297.78" stroke="#999" stroke-width="1"/><line x1="647.00" y1="303.18" x2="647.00" y2="296.79" stroke="#999" stroke-width="1"/><line x1="648.71" y1="304.64" x2="648.71" y2="295.95" stroke="#999" stroke-width="1"/><line x1="650.41" y1="309.72" x2="650.41" y2="303.72" stroke="#999" stroke-width="1"/><line x1="652.11" y1="313.61" x2="652.11" y2="305.62" stroke="#999" stroke-width="1"/><line x1="653.81" y1="314.40" x2="653.81" y2="309.58" stroke="#999" stroke-width="1"/><line x1="655.51" y1="312.10" x2="655.51" y2="307.82" stroke="#999" stroke-width="1"/><line x1="657.21" y1="313.80" x2="657.21" y2="299.98" stroke="#999" stroke-width="1"/><line x1="658.91" y1="304.76" x2="658.91" y2="299.60" stroke="#999" stroke-width="1"/><line x1="660.62" y1="304.23" x2="660.62" y2="297.36" stroke="#999" stroke-width="1"/><line x1="662.32" y1="306.67" x2="662.32" y2="301.92" stroke="#999" stroke-width="1"/><line x1="664.02" y1="307.18" x2="664.02" y2="301.27" stroke="#999" stroke-width="1"/><line x1="665.72" y1="305.30" x2="665.72" y2="295.37" stroke="#999" stroke-width="1"/><line x1="667.42" y1="299.30" x2="667.42" y2="290.33" stroke="#999" stroke-width="1"/><line x1="669.12" y1="296.98" x2="669.12" y2="289.60" stroke="#999" stroke-width="1"/><line x1="670.82" y1="299.15" x2="670.82" y2="294.35" stroke="#999" stroke-width="1"/><line x1="672.53" y1="300.55" x2="672.53" y2="290.41" stroke="#999" stroke-width="1"/><line x1="674.23" y1="298.76" x2="674.23" y2="291.21" stroke="#999" stroke-width="1"/><line x1="675.93" y1="297.38" x2="675.93" y2="288.68" stroke="#999" stroke-width="1"/><line x1="677.63" y1="293.71" x2="677.63" y2="288.13" stroke="#999" stroke-width="1"/><line x1="679.33" y1="295.42" x2="679.33" y2="288.54" stroke="#999" stroke-width="1"/><line x1="681.03" y1="294.33" x2="681.03" y2="290.37" stroke="#999" stroke-width="1"/><line x1="682.73" y1="292.45" x2="682.73" y2="284.53" stroke="#999" stroke-width="1"/><line x1="684.44" y1="289.05" x2="684.44" y2="280.87" stroke="#999" stroke-width="1"/><line x1="686.14" y1="284.79" x2="686.14" y2="276.93" stroke="#999" stroke-width="1"/><line x1="687.84" y1="286.71" x2="687.84" y2="279.60" stroke="#999" stroke-width="1"/><line x1="689.54" y1="292.54" x2="689.54" y2="280.81" stroke="#999" stroke-width="1"/><line x1="691.24" y1="295.21" x2="691.24" y2="289.37" stroke="#999" stroke-width="1"/><line x1="692.94" y1="297.10" x2="692.94" y2="293.09" stroke="#999" stroke-width="1"/><line x1="694.65" y1="299.50" x2="694.65" y2="293.46" stroke="#999" stroke-width="1"/><line x1="696.35" y1="301.88" x2="696.35" y2="297.56" stroke="#999" stroke-width="1"/><line x1="698.05" y1="299.17" x2="698.05" y2="294.89" stroke="#999" stroke-width="1"/><line x1="699.75" y1="309.01" x2="699.75" y2="298.07" stroke="#999" stroke-width="1"/><line x1="701.45" y1="310.42" x2="701.45" y2="302.27" stroke="#999" stroke-width="1"/><line x1="703.15" y1="304.16" x2="703.15" y2="298.26" stroke="#999" stroke-width="1"/><line x1="704.85" y1="316.70" x2="704.85" y2="299.98" stroke="#999" stroke-width="1"/><line x1="706.56" y1="317.67" x2="706.56" y2="302.68" stroke="#999" stroke-width="1"/><line x1="708.26" y1="308.22" x2="708.26" y2="303.42" stroke="#999" stroke-width="1"/><line x1="709.96" y1="310.34" x2="709.96" y2="299.60" stroke="#999" stroke-width="1"/><line x1="711.66" y1="310.06" x2="711.66" y2="302.08" stroke="#999" stroke-width="1"/><line x1="713.36" y1="311.57" x2="713.36" y2="305.52" stroke="#999" stroke-width="1"/><line x1="715.06" y1="312.86" x2="715.06" y2="306.34" stroke="#999" stroke-width="1"/><line x1="716.76" y1="313.57" x2="716.76" y2="307.07" stroke="#999" stroke-width="1"/><line x1="718.47" y1="313.15" x2="718.47" y2="305.25" stroke="#999" stroke-width="1"/><line x1="720.17" y1="307.89" x2="720.17" y2="302.56" stroke="#999" stroke-width="1"/><line x1="721.87" y1="308.65" x2="721.87" y2="302.61" stroke="#999" stroke-width="1"/><line x1="723.57" y1="307.91" x2="723.57" y2="304.26" stroke="#999" stroke-width="1"/><line x1="725.27" y1="305.07" x2="725.27" y2="299.12" stroke="#999" stroke-width="1"/><line x1="726.97" y1="305.06" x2="726.97" y2="298.69" stroke="#999" stroke-width="1"/><line x1="728.67" y1="310.86" x2="728.67" y2="303.52" stroke="#999" stroke-width="1"/><line x1="730.38" y1="309.96" x2="730.38" y2="301.70" stroke="#999" stroke-width="1"/><line x1="732.08" y1="307.00" x2="732.08" y2="300.21" stroke="#999" stroke-width="1"/><line x1="733.78" y1="304.96" x2="733.78" y2="299.96" stroke="#999" stroke-width="1"/><line x1="735.48" y1="303.27" x2="735.48" y2="295.16" stroke="#999" stroke-width="1"/><line x1="737.18" y1="299.43" x2="737.18" y2="293.84" stroke="#999" stroke-width="1"/><line x1="738.88" y1="297.99" x2="738.88" y2="294.43" stroke="#999" stroke-width="1"/><line x1="740.58" y1="298.13" x2="740.58" y2="293.27" stroke="#999" stroke-width="1"/><line x1="742.29" y1="303.67" x2="742.29" y2="293.33" stroke="#999" stroke-width="1"/><line x1="743.99" y1="300.49" x2="743.99" y2="295.26" stroke="#999" stroke-width="1"/><line x1="745.69" y1="297.76" x2="745.69" y2="293.71" stroke="#999" stroke-width="1"/><line x1="747.39" y1="298.11" x2="747.39" y2="294.39" stroke="#999" stroke-width="1"/><line x1="749.09" y1="298.34" x2="749.09" y2="293.99" stroke="#999" stroke-width="1"/><line x1="750.79" y1="298.69" x2="750.79" y2="289.28" stroke="#999" stroke-width="1"/><line x1="752.49" y1="292.15" x2="752.49" y2="286.28" stroke="#999" stroke-width="1"/><line x1="754.20" y1="302.91" x2="754.20" y2="289.96" stroke="#999" stroke-width="1"/><line x1="755.90" y1="304.22" x2="755.90" y2="299.48" stroke="#999" stroke-width="1"/><line x1="757.60" y1="307.44" x2="757.60" y2="300.76" stroke="#999" stroke-width="1"/><line x1="759.30" y1="305.78" x2="759.30" y2="299.53" stroke="#999" stroke-width="1"/><line x1="761.00" y1="312.27" x2="761.00" y2="301.94" stroke="#999" stroke-width="1"/><line x1="762.70" y1="306.79" x2="762.70" y2="298.98" stroke="#999" stroke-width="1"/><line x1="764.41" y1="305.21" x2="764.41" y2="301.40" stroke="#999" stroke-width="1"/><line x1="766.11" y1="305.12" x2="766.11" y2="297.74" stroke="#999" stroke-width="1"/><line x1="767.81" y1="299.17" x2="767.81" y2="294.47" stroke="#999" stroke-width="1"/><line x1="769.51" y1="297.91" x2="769.51" y2="293.99" stroke="#999" stroke-width="1"/><line x1="771.21" y1="296.90" x2="771.21" y2="290.75" stroke="#999" stroke-width="1"/><line x1="772.91" y1="300.80" x2="772.91" y2="293.24" stroke="#999" stroke-width="1"/><line x1="774.61" y1="301.05" x2="774.61" y2="297.64" stroke="#999" stroke-width="1"/><line x1="776.32" y1="305.02" x2="776.32" y2="297.68" stroke="#999" stroke-width="1"/><line x1="778.02" y1="305.22" x2="778.02" y2="300.53" stroke="#999" stroke-width="1"/><line x1="779.72" y1="303.83" x2="779.72" y2="298.98" stroke="#999" stroke-width="1"/><line x1="781.42" y1="305.25" x2="781.42" y2="299.06" stroke="#999" stroke-width="1"/><line x1="783.12" y1="305.49" x2="783.12" y2="302.21" stroke="#999" stroke-width="1"/><line x1="784.82" y1="305.23" x2="784.82" y2="302.03" stroke="#999" stroke-width="1"/><line x1="786.52" y1="307.38" x2="786.52" y2="302.56" stroke="#999" stroke-width="1"/><line x1="788.23" y1="303.94" x2="788.23" y2="301.91" stroke="#999" stroke-width="1"/><line x1="789.93" y1="305.88" x2="789.93" y2="301.81" stroke="#999" stroke-width="1"/><line x1="791.63" y1="311.73" x2="791.63" y2="304.43" stroke="#999" stroke-width="1"/><line x1="793.33" y1="316.86" x2="793.33" y2="310.19" stroke="#999" stroke-width="1"/><line x1="795.03" y1="321.06" x2="795.03" y2="312.38" stroke="#999" stroke-width="1"/><line x1="796.73" y1="326.03" x2="796.73" y2="318.78" stroke="#999" stroke-width="1"/><line x1="798.43" y1="327.60" x2="798.43" y2="321.49" stroke="#999" stroke-width="1"/><line x1="800.14" y1="327.05" x2="800.14" y2="322.41" stroke="#999" stroke-width="1"/><line x1="801.84" y1="326.66" x2="801.84" y2="322.12" stroke="#999" stroke-width="1"/><line x1="803.54" y1="322.78" x2="803.54" y2="318.48" stroke="#999" stroke-width="1"/><line x1="805.24" y1="324.86" x2="805.24" y2="320.27" stroke="#999" stroke-width="1"/><line x1="806.94" y1="324.54" x2="806.94" y2="320.71" stroke="#999" stroke-width="1"/><line x1="808.64" y1="325.08" x2="808.64" y2="320.04" stroke="#999" stroke-width="1"/><line x1="810.34" y1="332.35" x2="810.34" y2="322.29" stroke="#999" stroke-width="1"/><line x1="812.05" y1="331.69" x2="812.05" y2="327.21" stroke="#999" stroke-width="1"/><line x1="813.75" y1="337.13" x2="813.75" y2="327.30" stroke="#999" stroke-width="1"/><line x1="815.45" y1="338.53" x2="815.45" y2="329.67" stroke="#999" stroke-width="1"/><line x1="817.15" y1="331.70" x2="817.15" y2="327.32" stroke="#999" stroke-width="1"/><line x1="818.85" y1="331.98" x2="818.85" y2="327.21" stroke="#999" stroke-width="1"/><line x1="820.55" y1="336.86" x2="820.55" y2="330.92" stroke="#999" stroke-width="1"/><line x1="822.25" y1="336.57" x2="822.25" y2="328.01" stroke="#999" stroke-width="1"/><line x1="823.96" y1="333.92" x2="823.96" y2="328.71" stroke="#999" stroke-width="1"/><line x1="825.66" y1="339.81" x2="825.66" y2="331.70" stroke="#999" stroke-width="1"/><line x1="827.36" y1="343.98" x2="827.36" y2="338.37" stroke="#999" stroke-width="1"/><line x1="829.06" y1="345.70" x2="829.06" y2="340.11" stroke="#999" stroke-width="1"/><line x1="830.76" y1="343.13" x2="830.76" y2="331.97" stroke="#999" stroke-width="1"/><line x1="832.46" y1="337.59" x2="832.46" y2="331.99" stroke="#999" stroke-width="1"/><line x1="834.16" y1="336.98" x2="834.16" y2="324.64" stroke="#999" stroke-width="1"/><line x1="835.87" y1="333.74" x2="835.87" y2="320.85" stroke="#999" stroke-width="1"/><line x1="837.57" y1="326.71" x2="837.57" y2="314.16" stroke="#999" stroke-width="1"/><line x1="839.27" y1="325.63" x2="839.27" y2="318.53" stroke="#999" stroke-width="1"/><line x1="840.97" y1="327.54" x2="840.97" y2="321.88" stroke="#999" stroke-width="1"/><line x1="842.67" y1="327.22" x2="842.67" y2="322.82" stroke="#999" stroke-width="1"/><line x1="844.37" y1="330.81" x2="844.37" y2="324.18" stroke="#999" stroke-width="1"/><line x1="846.08" y1="330.84" x2="846.08" y2="327.85" stroke="#999" stroke-width="1"/><line x1="847.78" y1="330.80" x2="847.78" y2="327.07" stroke="#999" stroke-width="1"/><line x1="849.48" y1="335.56" x2="849.48" y2="330.26" stroke="#999" stroke-width="1"/><line x1="851.18" y1="332.15" x2="851.18" y2="323.41" stroke="#999" stroke-width="1"/><line x1="852.88" y1="327.41" x2="852.88" y2="323.31" stroke="#999" stroke-width="1"/><line x1="854.58" y1="327.79" x2="854.58" y2="316.83" stroke="#999" stroke-width="1"/><line x1="856.28" y1="325.98" x2="856.28" y2="318.88" stroke="#999" stroke-width="1"/><line x1="857.99" y1="330.20" x2="857.99" y2="324.29" stroke="#999" stroke-width="1"/><line x1="859.69" y1="331.21" x2="859.69" y2="325.24" stroke="#999" stroke-width="1"/><line x1="861.39" y1="329.77" x2="861.39" y2="324.29" stroke="#999" stroke-width="1"/><line x1="863.09" y1="332.76" x2="863.09" y2="324.39" stroke="#999" stroke-width="1"/><line x1="864.79" y1="332.33" x2="864.79" y2="325.21" stroke="#999" stroke-width="1"/><line x1="866.49" y1="328.26" x2="866.49" y2="323.08" stroke="#999" stroke-width="1"/><line x1="868.19" y1="327.66" x2="868.19" y2="318.61" stroke="#999" stroke-width="1"/><line x1="869.90" y1="321.43" x2="869.90" y2="315.68" stroke="#999" stroke-width="1"/><line x1="871.60" y1="321.00" x2="871.60" y2="313.92" stroke="#999" stroke-width="1"/><line x1="873.30" y1="325.00" x2="873.30" y2="317.52" stroke="#999" stroke-width="1"/><line x1="875.00" y1="324.57" x2="875.00" y2="315.29" stroke="#999" stroke-width="1"/><polyline points="60.00,110.94 61.70,109.84 63.40,111.96 65.10,120.65 66.81,120.20 68.51,115.36 70.21,118.89 71.91,127.83 73.61,134.71 75.31,134.57 77.01,130.59 78.72,124.06 80.42,128.89 82.12,122.29 83.82,125.65 85.52,116.98 87.22,118.83 88.92,123.72 90.63,115.95 92.33,119.43 94.03,117.61 95.73,123.88 97.43,122.59 99.13,123.81 100.84,127.69 102.54,109.72 104.24,108.99 105.94,114.56 107.64,127.52 109.34,129.95 111.04,118.77 112.75,122.29 114.45,125.62 116.15,121.53 117.85,112.69 119.55,119.78 121.25,117.90 122.95,121.59 124.66,113.11 126.36,112.80 128.06,116.12 129.76,116.76 131.46,118.95 133.16,127.12 134.86,129.40 136.57,134.39 138.27,132.94 139.97,125.58 141.67,116.52 143.37,103.00 145.07,101.48 146.77,110.23 148.48,114.58 150.18,114.86 151.88,115.87 153.58,106.97 155.28,111.10 156.98,110.34 158.68,112.28 160.39,107.63 162.09,104.52 163.79,101.18 165.49,98.95 167.19,101.50 168.89,99.30 170.59,103.98 172.30,103.52 174.00,106.45 175.70,108.21 177.40,102.95 179.10,107.30 180.80,107.54 182.51,108.80 184.21,109.70 185.91,115.46 187.61,113.14 189.31,119.60 191.01,122.76 192.71,121.75 194.42,117.90 196.12,115.36 197.82,115.45 199.52,111.19 201.22,112.45 202.92,111.58 204.62,112.43 206.33,113.81 208.03,114.87 209.73,109.24 211.43,104.86 213.13,104.39 214.83,104.83 216.53,99.94 218.24,100.01 219.94,103.12 221.64,108.26 223.34,107.50 225.04,107.86 226.74,101.96 228.44,101.71 230.15,76.72 231.85,60.77 233.55,66.83 235.25,63.67 236.95,66.06 238.65,60.57 240.35,58.71 242.06,62.59 243.76,56.04 245.46,51.20 247.16,54.79 248.86,58.95 250.56,62.71 252.27,61.51 253.97,68.14 255.67,72.05 257.37,70.28 259.07,72.30 260.77,70.63 262.47,83.40 264.18,101.25 265.88,124.46 267.58,120.32 269.28,126.59 270.98,126.04 272.68,123.13 274.38,115.82 276.09,117.63 277.79,122.42 279.49,119.83 281.19,123.20 282.89,126.38 284.59,123.20 286.29,124.44 288.00,126.40 289.70,120.31 291.40,122.09 293.10,128.87 294.80,130.46 296.50,126.82 298.20,133.54 299.91,137.88 301.61,135.47 303.31,144.90 305.01,134.14 306.71,135.84 308.41,131.12 310.11,136.60 311.82,136.76 313.52,132.61 315.22,130.82 316.92,135.58 318.62,134.02 320.32,134.35 322.03,136.50 323.73,135.49 325.43,140.70 327.13,141.64 328.83,146.90 330.53,140.70 332.23,143.23 333.94,140.67 335.64,136.14 337.34,137.74 339.04,135.97 340.74,136.43 342.44,132.40 344.14,136.89 345.85,132.70 347.55,132.68 349.25,131.87 350.95,134.27 352.65,133.99 354.35,134.60 356.05,137.49 357.76,150.39 359.46,156.88 361.16,148.25 362.86,153.34 364.56,160.63 366.26,161.01 367.96,159.77 369.67,159.62 371.37,156.84 373.07,152.64 374.77,156.64 376.47,153.72 378.17,159.61 379.87,154.21 381.58,155.34 383.28,161.00 384.98,172.94 386.68,167.79 388.38,170.13 390.08,169.65 391.78,173.66 393.49,162.85 395.19,164.47 396.89,167.37 398.59,164.85 400.29,171.16 401.99,172.72 403.70,166.30 405.40,173.30 407.10,179.70 408.80,178.49 410.50,176.96 412.20,181.55 413.90,180.43 415.61,182.62 417.31,177.67 419.01,181.17 420.71,198.24 422.41,188.74 424.11,191.91 425.81,189.08 427.52,197.47 429.22,203.21 430.92,218.28 432.62,224.53 434.32,227.71 436.02,227.53 437.72,219.49 439.43,224.17 441.13,227.17 442.83,247.34 444.53,237.10 446.23,238.66 447.93,235.95 449.63,241.70 451.34,222.60 453.04,207.93 454.74,201.09 456.44,211.52 458.14,203.57 459.84,209.63 461.54,206.62 463.25,198.82 464.95,188.46 466.65,192.25 468.35,208.07 470.05,203.53 471.75,207.86 473.46,195.35 475.16,205.20 476.86,214.87 478.56,226.68 480.26,238.20 481.96,228.35 483.66,223.37 485.37,219.49 487.07,229.80 488.77,221.24 490.47,230.20 492.17,248.64 493.87,246.88 495.57,274.32 497.28,281.01 498.98,268.05 500.68,248.17 502.38,261.85 504.08,273.27 505.78,342.16 507.48,293.53 509.19,288.40 510.89,296.43 512.59,314.30 514.29,317.55 515.99,317.48 517.69,323.60 519.39,339.84 521.10,325.47 522.80,322.43 524.50,319.25 526.20,310.29 527.90,314.43 529.60,327.55 531.30,336.96 533.01,342.81 534.71,353.62 536.41,359.95 538.11,340.17 539.81,344.89 541.51,342.23 543.22,333.51 544.92,340.09 546.62,329.19 548.32,337.84 550.02,312.62 551.72,323.17 553.42,307.05 555.13,322.10 556.83,328.82 558.53,325.27 560.23,328.08 561.93,334.68 563.63,331.88 565.33,325.60 567.04,321.97 568.74,321.65 570.44,313.28 572.14,301.80 573.84,295.15 575.54,293.38 577.24,292.43 578.95,302.74 580.65,293.99 582.35,298.18 584.05,292.10 585.75,282.61 587.45,286.12 589.15,278.04 590.86,275.56 592.56,288.51 594.26,298.86 595.96,304.62 597.66,299.35 599.36,303.58 601.06,308.72 602.77,301.55 604.47,305.07 606.17,311.85 607.87,310.29 609.57,306.66 611.27,308.13 612.97,308.89 614.68,317.05 616.38,313.29 618.08,311.41 619.78,315.41 621.48,312.16 623.18,312.28 624.89,319.09 626.59,323.45 628.29,325.32 629.99,329.48 631.69,327.70 633.39,329.88 635.09,321.23 636.80,315.04 638.50,315.18 640.20,318.62 641.90,314.58 643.60,307.84 645.30,299.51 647.00,299.40 648.71,304.33 650.41,307.34 652.11,310.99 653.81,310.50 655.51,311.39 657.21,302.56 658.91,300.39 660.62,303.75 662.32,305.80 664.02,302.15 665.72,296.07 667.42,293.38 669.12,295.51 670.82,296.84 672.53,294.85 674.23,295.97 675.93,290.16 677.63,293.11 679.33,291.48 681.03,291.26 682.73,285.10 684.44,281.84 686.14,284.79 687.84,280.58 689.54,290.05 691.24,293.21 692.94,294.12 694.65,297.57 696.35,298.71 698.05,298.12 699.75,308.00 701.45,303.97 703.15,299.67 704.85,315.24 706.56,303.73 708.26,307.68 709.96,305.41 711.66,310.04 713.36,309.27 715.06,308.61 716.76,312.27 718.47,306.71 720.17,304.37 721.87,306.71 723.57,304.89 725.27,299.33 726.97,304.06 728.67,309.53 730.38,303.10 732.08,302.13 733.78,302.36 735.48,297.52 737.18,295.29 738.88,295.22 740.58,293.27 742.29,300.16 743.99,297.32 745.69,295.20 747.39,296.33 749.09,298.16 750.79,290.73 752.49,291.73 754.20,302.08 755.90,302.92 757.60,301.98 759.30,305.68 761.00,305.79 762.70,303.69 764.41,305.12 766.11,298.50 767.81,297.91 769.51,296.23 771.21,293.96 772.91,300.32 774.61,298.31 776.32,304.29 778.02,303.02 779.72,301.02 781.42,305.02 783.12,302.44 784.82,302.74 786.52,303.75 788.23,302.13 789.93,305.48 791.63,311.11 793.33,316.34 795.03,318.81 796.73,324.26 798.43,324.21 800.14,325.12 801.84,322.76 803.54,320.39 805.24,322.68 806.94,322.89 808.64,324.16 810.34,330.92 812.05,330.60 813.75,335.74 815.45,330.98 817.15,329.26 818.85,331.78 820.55,336.59 822.25,328.84 823.96,331.72 825.66,339.61 827.36,341.06 829.06,340.95 830.76,332.90 832.46,334.15 834.16,333.81 835.87,324.84 837.57,319.41 839.27,324.52 840.97,323.98 842.67,325.38 844.37,330.72 846.08,328.28 847.78,330.28 849.48,332.13 851.18,325.17 852.88,325.86 854.58,319.12 856.28,324.87 857.99,329.82 859.69,328.16 861.39,324.40 863.09,330.42 864.79,327.54 866.49,325.20 868.19,320.82 869.90,316.00 871.60,318.09 873.30,322.23 875.00,318.59" fill="none" stroke="#111" stroke-width="2"/><line x1="60" y1="375" x2="875" y2="375" stroke="#222"/><line x1="60" y1="45" x2="60" y2="375" stroke="#222"/><text x="450.0" y="410" text-anchor="middle" font-family="Arial" font-size="12">Bars before checkpoint</text><text transform="translate(14 210.0) rotate(-90)" text-anchor="middle" font-family="Arial" font-size="12">Normalized price (checkpoint close=100)</text></svg>