<svg xmlns="http://www.w3.org/2000/svg" width="900" height="420" viewBox="0 0 900 420"><rect width="100%" height="100%" fill="white"/><text x="450.0" y="24" text-anchor="middle" font-family="Arial" font-size="18">G2-SV-0018 1H</text><line x1="60" y1="45.00" x2="875" y2="45.00" stroke="#ddd" stroke-width="1"/><text x="5" y="49.00" font-size="11">112.63</text><line x1="60" y1="111.00" x2="875" y2="111.00" stroke="#ddd" stroke-width="1"/><text x="5" y="115.00" font-size="11">109.98</text><line x1="60" y1="177.00" x2="875" y2="177.00" stroke="#ddd" stroke-width="1"/><text x="5" y="181.00" font-size="11">107.32</text><line x1="60" y1="243.00" x2="875" y2="243.00" stroke="#ddd" stroke-width="1"/><text x="5" y="247.00" font-size="11">104.66</text><line x1="60" y1="309.00" x2="875" y2="309.00" stroke="#ddd" stroke-width="1"/><text x="5" y="313.00" font-size="11">102.01</text><line x1="60" y1="375.00" x2="875" y2="375.00" stroke="#ddd" stroke-width="1"/><text x="5" y="379.00" font-size="11">99.35</text><line x1="60.00" y1="199.36" x2="60.00" y2="158.89" stroke="#999" stroke-width="1"/><line x1="61.70" y1="167.37" x2="61.70" y2="145.25" stroke="#999" stroke-width="1"/><line x1="63.40" y1="157.15" x2="63.40" y2="145.04" stroke="#999" stroke-width="1"/><line x1="65.10" y1="157.64" x2="65.10" y2="136.49" stroke="#999" stroke-width="1"/><line x1="66.81" y1="161.82" x2="66.81" y2="144.02" stroke="#999" stroke-width="1"/><line x1="68.51" y1="162.23" x2="68.51" y2="153.00" stroke="#999" stroke-width="1"/><line x1="70.21" y1="162.40" x2="70.21" y2="154.05" stroke="#999" stroke-width="1"/><line x1="71.91" y1="165.31" x2="71.91" y2="144.08" stroke="#999" stroke-width="1"/><line x1="73.61" y1="170.54" x2="73.61" y2="145.28" stroke="#999" stroke-width="1"/><line x1="75.31" y1="151.51" x2="75.31" y2="126.13" stroke="#999" stroke-width="1"/><line x1="77.01" y1="151.33" x2="77.01" y2="141.08" stroke="#999" stroke-width="1"/><line x1="78.72" y1="146.14" x2="78.72" y2="136.87" stroke="#999" stroke-width="1"/><line x1="80.42" y1="145.62" x2="80.42" y2="138.76" stroke="#999" stroke-width="1"/><line x1="82.12" y1="155.89" x2="82.12" y2="142.83" stroke="#999" stroke-width="1"/><line x1="83.82" y1="174.19" x2="83.82" y2="113.99" stroke="#999" stroke-width="1"/><line x1="85.52" y1="155.16" x2="85.52" y2="117.43" stroke="#999" stroke-width="1"/><line x1="87.22" y1="148.43" x2="87.22" y2="112.30" stroke="#999" stroke-width="1"/><line x1="88.92" y1="131.92" x2="88.92" y2="73.54" stroke="#999" stroke-width="1"/><line x1="90.63" y1="110.58" x2="90.63" y2="91.08" stroke="#999" stroke-width="1"/><line x1="92.33" y1="110.08" x2="92.33" y2="72.58" stroke="#999" stroke-width="1"/><line x1="94.03" y1="83.48" x2="94.03" y2="52.13" stroke="#999" stroke-width="1"/><line x1="95.73" y1="102.69" x2="95.73" y2="67.68" stroke="#999" stroke-width="1"/><line x1="97.43" y1="136.01" x2="97.43" y2="80.69" stroke="#999" stroke-width="1"/><line x1="99.13" y1="99.80" x2="99.13" y2="83.36" stroke="#999" stroke-width="1"/><line x1="100.84" y1="99.95" x2="100.84" y2="82.13" stroke="#999" stroke-width="1"/><line x1="102.54" y1="99.36" x2="102.54" y2="81.16" stroke="#999" stroke-width="1"/><line x1="104.24" y1="95.86" x2="104.24" y2="81.64" stroke="#999" stroke-width="1"/><line x1="105.94" y1="96.28" x2="105.94" y2="87.67" stroke="#999" stroke-width="1"/><line x1="107.64" y1="88.65" x2="107.64" y2="81.04" stroke="#999" stroke-width="1"/><line x1="109.34" y1="93.90" x2="109.34" y2="86.88" stroke="#999" stroke-width="1"/><line x1="111.04" y1="95.44" x2="111.04" y2="88.18" stroke="#999" stroke-width="1"/><line x1="112.75" y1="111.80" x2="112.75" y2="93.35" stroke="#999" stroke-width="1"/><line x1="114.45" y1="107.31" x2="114.45" y2="96.11" stroke="#999" stroke-width="1"/><line x1="116.15" y1="99.84" x2="116.15" y2="94.78" stroke="#999" stroke-width="1"/><line x1="117.85" y1="110.11" x2="117.85" y2="97.42" stroke="#999" stroke-width="1"/><line x1="119.55" y1="109.42" x2="119.55" y2="97.79" stroke="#999" stroke-width="1"/><line x1="121.25" y1="109.14" x2="121.25" y2="88.53" stroke="#999" stroke-width="1"/><line x1="122.95" y1="98.57" x2="122.95" y2="88.91" stroke="#999" stroke-width="1"/><line x1="124.66" y1="102.72" x2="124.66" y2="89.28" stroke="#999" stroke-width="1"/><line x1="126.36" y1="99.58" x2="126.36" y2="89.26" stroke="#999" stroke-width="1"/><line x1="128.06" y1="100.94" x2="128.06" y2="93.75" stroke="#999" stroke-width="1"/><line x1="129.76" y1="105.51" x2="129.76" y2="94.55" stroke="#999" stroke-width="1"/><line x1="131.46" y1="107.57" x2="131.46" y2="66.73" stroke="#999" stroke-width="1"/><line x1="133.16" y1="115.22" x2="133.16" y2="95.60" stroke="#999" stroke-width="1"/><line x1="134.86" y1="120.52" x2="134.86" y2="106.92" stroke="#999" stroke-width="1"/><line x1="136.57" y1="117.01" x2="136.57" y2="107.44" stroke="#999" stroke-width="1"/><line x1="138.27" y1="109.66" x2="138.27" y2="100.61" stroke="#999" stroke-width="1"/><line x1="139.97" y1="106.87" x2="139.97" y2="97.87" stroke="#999" stroke-width="1"/><line x1="141.67" y1="103.22" x2="141.67" y2="86.69" stroke="#999" stroke-width="1"/><line x1="143.37" y1="104.57" x2="143.37" y2="87.45" stroke="#999" stroke-width="1"/><line x1="145.07" y1="98.41" x2="145.07" y2="90.98" stroke="#999" stroke-width="1"/><line x1="146.77" y1="98.12" x2="146.77" y2="89.83" stroke="#999" stroke-width="1"/><line x1="148.48" y1="97.74" x2="148.48" y2="88.62" stroke="#999" stroke-width="1"/><line x1="150.18" y1="93.93" x2="150.18" y2="71.27" stroke="#999" stroke-width="1"/><line x1="151.88" y1="97.27" x2="151.88" y2="84.12" stroke="#999" stroke-width="1"/><line x1="153.58" y1="99.80" x2="153.58" y2="91.06" stroke="#999" stroke-width="1"/><line x1="155.28" y1="100.42" x2="155.28" y2="93.77" stroke="#999" stroke-width="1"/><line x1="156.98" y1="100.13" x2="156.98" y2="95.34" stroke="#999" stroke-width="1"/><line x1="158.68" y1="102.67" x2="158.68" y2="89.10" stroke="#999" stroke-width="1"/><line x1="160.39" y1="95.15" x2="160.39" y2="86.10" stroke="#999" stroke-width="1"/><line x1="162.09" y1="96.25" x2="162.09" y2="90.54" stroke="#999" stroke-width="1"/><line x1="163.79" y1="96.06" x2="163.79" y2="90.72" stroke="#999" stroke-width="1"/><line x1="165.49" y1="94.89" x2="165.49" y2="75.81" stroke="#999" stroke-width="1"/><line x1="167.19" y1="91.27" x2="167.19" y2="48.57" stroke="#999" stroke-width="1"/><line x1="168.89" y1="103.69" x2="168.89" y2="45.00" stroke="#999" stroke-width="1"/><line x1="170.59" y1="125.71" x2="170.59" y2="83.43" stroke="#999" stroke-width="1"/><line x1="172.30" y1="121.92" x2="172.30" y2="106.48" stroke="#999" stroke-width="1"/><line x1="174.00" y1="114.48" x2="174.00" y2="103.69" stroke="#999" stroke-width="1"/><line x1="175.70" y1="141.94" x2="175.70" y2="106.94" stroke="#999" stroke-width="1"/><line x1="177.40" y1="115.89" x2="177.40" y2="108.40" stroke="#999" stroke-width="1"/><line x1="179.10" y1="117.14" x2="179.10" y2="105.20" stroke="#999" stroke-width="1"/><line x1="180.80" y1="125.11" x2="180.80" y2="107.41" stroke="#999" stroke-width="1"/><line x1="182.51" y1="130.27" x2="182.51" y2="109.53" stroke="#999" stroke-width="1"/><line x1="184.21" y1="166.93" x2="184.21" y2="122.68" stroke="#999" stroke-width="1"/><line x1="185.91" y1="141.28" x2="185.91" y2="117.74" stroke="#999" stroke-width="1"/><line x1="187.61" y1="125.18" x2="187.61" y2="108.44" stroke="#999" stroke-width="1"/><line x1="189.31" y1="113.71" x2="189.31" y2="97.45" stroke="#999" stroke-width="1"/><line x1="191.01" y1="110.83" x2="191.01" y2="102.67" stroke="#999" stroke-width="1"/><line x1="192.71" y1="107.31" x2="192.71" y2="94.39" stroke="#999" stroke-width="1"/><line x1="194.42" y1="100.60" x2="194.42" y2="90.72" stroke="#999" stroke-width="1"/><line x1="196.12" y1="105.23" x2="196.12" y2="88.70" stroke="#999" stroke-width="1"/><line x1="197.82" y1="106.52" x2="197.82" y2="58.78" stroke="#999" stroke-width="1"/><line x1="199.52" y1="76.52" x2="199.52" y2="58.26" stroke="#999" stroke-width="1"/><line x1="201.22" y1="75.35" x2="201.22" y2="55.41" stroke="#999" stroke-width="1"/><line x1="202.92" y1="86.98" x2="202.92" y2="61.46" stroke="#999" stroke-width="1"/><line x1="204.62" y1="81.89" x2="204.62" y2="68.67" stroke="#999" stroke-width="1"/><line x1="206.33" y1="92.34" x2="206.33" y2="63.21" stroke="#999" stroke-width="1"/><line x1="208.03" y1="80.27" x2="208.03" y2="61.75" stroke="#999" stroke-width="1"/><line x1="209.73" y1="111.98" x2="209.73" y2="74.51" stroke="#999" stroke-width="1"/><line x1="211.43" y1="96.22" x2="211.43" y2="83.23" stroke="#999" stroke-width="1"/><line x1="213.13" y1="102.01" x2="213.13" y2="88.00" stroke="#999" stroke-width="1"/><line x1="214.83" y1="92.41" x2="214.83" y2="69.63" stroke="#999" stroke-width="1"/><line x1="216.53" y1="84.95" x2="216.53" y2="68.09" stroke="#999" stroke-width="1"/><line x1="218.24" y1="86.33" x2="218.24" y2="75.69" stroke="#999" stroke-width="1"/><line x1="219.94" y1="99.62" x2="219.94" y2="82.10" stroke="#999" stroke-width="1"/><line x1="221.64" y1="100.00" x2="221.64" y2="81.17" stroke="#999" stroke-width="1"/><line x1="223.34" y1="90.46" x2="223.34" y2="70.03" stroke="#999" stroke-width="1"/><line x1="225.04" y1="88.03" x2="225.04" y2="73.65" stroke="#999" stroke-width="1"/><line x1="226.74" y1="80.20" x2="226.74" y2="60.73" stroke="#999" stroke-width="1"/><line x1="228.44" y1="88.08" x2="228.44" y2="72.09" stroke="#999" stroke-width="1"/><line x1="230.15" y1="94.94" x2="230.15" y2="82.18" stroke="#999" stroke-width="1"/><line x1="231.85" y1="95.38" x2="231.85" y2="87.84" stroke="#999" stroke-width="1"/><line x1="233.55" y1="92.75" x2="233.55" y2="72.01" stroke="#999" stroke-width="1"/><line x1="235.25" y1="86.30" x2="235.25" y2="74.82" stroke="#999" stroke-width="1"/><line x1="236.95" y1="132.88" x2="236.95" y2="63.16" stroke="#999" stroke-width="1"/><line x1="238.65" y1="134.50" x2="238.65" y2="108.30" stroke="#999" stroke-width="1"/><line x1="240.35" y1="124.77" x2="240.35" y2="111.43" stroke="#999" stroke-width="1"/><line x1="242.06" y1="141.97" x2="242.06" y2="114.18" stroke="#999" stroke-width="1"/><line x1="243.76" y1="143.63" x2="243.76" y2="120.35" stroke="#999" stroke-width="1"/><line x1="245.46" y1="145.85" x2="245.46" y2="122.16" stroke="#999" stroke-width="1"/><line x1="247.16" y1="138.12" x2="247.16" y2="110.00" stroke="#999" stroke-width="1"/><line x1="248.86" y1="153.63" x2="248.86" y2="123.86" stroke="#999" stroke-width="1"/><line x1="250.56" y1="158.97" x2="250.56" y2="129.21" stroke="#999" stroke-width="1"/><line x1="252.27" y1="149.64" x2="252.27" y2="124.24" stroke="#999" stroke-width="1"/><line x1="253.97" y1="131.61" x2="253.97" y2="109.69" stroke="#999" stroke-width="1"/><line x1="255.67" y1="142.10" x2="255.67" y2="120.13" stroke="#999" stroke-width="1"/><line x1="257.37" y1="146.56" x2="257.37" y2="129.30" stroke="#999" stroke-width="1"/><line x1="259.07" y1="191.09" x2="259.07" y2="131.26" stroke="#999" stroke-width="1"/><line x1="260.77" y1="187.50" x2="260.77" y2="160.86" stroke="#999" stroke-width="1"/><line x1="262.47" y1="170.37" x2="262.47" y2="152.50" stroke="#999" stroke-width="1"/><line x1="264.18" y1="165.06" x2="264.18" y2="140.63" stroke="#999" stroke-width="1"/><line x1="265.88" y1="194.64" x2="265.88" y2="149.74" stroke="#999" stroke-width="1"/><line x1="267.58" y1="213.95" x2="267.58" y2="176.04" stroke="#999" stroke-width="1"/><line x1="269.28" y1="180.73" x2="269.28" y2="165.53" stroke="#999" stroke-width="1"/><line x1="270.98" y1="188.01" x2="270.98" y2="168.57" stroke="#999" stroke-width="1"/><line x1="272.68" y1="190.11" x2="272.68" y2="177.43" stroke="#999" stroke-width="1"/><line x1="274.38" y1="197.73" x2="274.38" y2="178.00" stroke="#999" stroke-width="1"/><line x1="276.09" y1="197.36" x2="276.09" y2="176.66" stroke="#999" stroke-width="1"/><line x1="277.79" y1="208.74" x2="277.79" y2="177.00" stroke="#999" stroke-width="1"/><line x1="279.49" y1="200.96" x2="279.49" y2="181.07" stroke="#999" stroke-width="1"/><line x1="281.19" y1="186.82" x2="281.19" y2="175.49" stroke="#999" stroke-width="1"/><line x1="282.89" y1="190.16" x2="282.89" y2="175.18" stroke="#999" stroke-width="1"/><line x1="284.59" y1="181.54" x2="284.59" y2="167.90" stroke="#999" stroke-width="1"/><line x1="286.29" y1="185.09" x2="286.29" y2="170.67" stroke="#999" stroke-width="1"/><line x1="288.00" y1="206.49" x2="288.00" y2="172.47" stroke="#999" stroke-width="1"/><line x1="289.70" y1="241.19" x2="289.70" y2="201.22" stroke="#999" stroke-width="1"/><line x1="291.40" y1="256.10" x2="291.40" y2="221.60" stroke="#999" stroke-width="1"/><line x1="293.10" y1="243.33" x2="293.10" y2="227.89" stroke="#999" stroke-width="1"/><line x1="294.80" y1="234.91" x2="294.80" y2="221.93" stroke="#999" stroke-width="1"/><line x1="296.50" y1="238.90" x2="296.50" y2="200.49" stroke="#999" stroke-width="1"/><line x1="298.20" y1="231.88" x2="298.20" y2="214.45" stroke="#999" stroke-width="1"/><line x1="299.91" y1="228.04" x2="299.91" y2="216.23" stroke="#999" stroke-width="1"/><line x1="301.61" y1="220.35" x2="301.61" y2="193.31" stroke="#999" stroke-width="1"/><line x1="303.31" y1="196.62" x2="303.31" y2="176.51" stroke="#999" stroke-width="1"/><line x1="305.01" y1="188.65" x2="305.01" y2="173.54" stroke="#999" stroke-width="1"/><line x1="306.71" y1="188.65" x2="306.71" y2="176.02" stroke="#999" stroke-width="1"/><line x1="308.41" y1="181.31" x2="308.41" y2="128.31" stroke="#999" stroke-width="1"/><line x1="310.11" y1="142.45" x2="310.11" y2="121.69" stroke="#999" stroke-width="1"/><line x1="311.82" y1="141.93" x2="311.82" y2="133.97" stroke="#999" stroke-width="1"/><line x1="313.52" y1="149.08" x2="313.52" y2="133.97" stroke="#999" stroke-width="1"/><line x1="315.22" y1="153.42" x2="315.22" y2="141.46" stroke="#999" stroke-width="1"/><line x1="316.92" y1="146.24" x2="316.92" y2="136.72" stroke="#999" stroke-width="1"/><line x1="318.62" y1="144.54" x2="318.62" y2="131.31" stroke="#999" stroke-width="1"/><line x1="320.32" y1="146.34" x2="320.32" y2="132.91" stroke="#999" stroke-width="1"/><line x1="322.03" y1="150.94" x2="322.03" y2="141.60" stroke="#999" stroke-width="1"/><line x1="323.73" y1="200.98" x2="323.73" y2="139.96" stroke="#999" stroke-width="1"/><line x1="325.43" y1="203.33" x2="325.43" y2="166.67" stroke="#999" stroke-width="1"/><line x1="327.13" y1="178.93" x2="327.13" y2="133.95" stroke="#999" stroke-width="1"/><line x1="328.83" y1="164.84" x2="328.83" y2="135.72" stroke="#999" stroke-width="1"/><line x1="330.53" y1="174.55" x2="330.53" y2="149.25" stroke="#999" stroke-width="1"/><line x1="332.23" y1="173.49" x2="332.23" y2="153.11" stroke="#999" stroke-width="1"/><line x1="333.94" y1="191.09" x2="333.94" y2="149.77" stroke="#999" stroke-width="1"/><line x1="335.64" y1="189.47" x2="335.64" y2="169.25" stroke="#999" stroke-width="1"/><line x1="337.34" y1="179.66" x2="337.34" y2="156.91" stroke="#999" stroke-width="1"/><line x1="339.04" y1="168.78" x2="339.04" y2="155.06" stroke="#999" stroke-width="1"/><line x1="340.74" y1="177.68" x2="340.74" y2="158.32" stroke="#999" stroke-width="1"/><line x1="342.44" y1="186.37" x2="342.44" y2="172.23" stroke="#999" stroke-width="1"/><line x1="344.14" y1="176.40" x2="344.14" y2="166.41" stroke="#999" stroke-width="1"/><line x1="345.85" y1="174.66" x2="345.85" y2="156.02" stroke="#999" stroke-width="1"/><line x1="347.55" y1="166.05" x2="347.55" y2="144.31" stroke="#999" stroke-width="1"/><line x1="349.25" y1="174.37" x2="349.25" y2="159.68" stroke="#999" stroke-width="1"/><line x1="350.95" y1="174.71" x2="350.95" y2="165.55" stroke="#999" stroke-width="1"/><line x1="352.65" y1="173.43" x2="352.65" y2="166.25" stroke="#999" stroke-width="1"/><line x1="354.35" y1="180.86" x2="354.35" y2="172.29" stroke="#999" stroke-width="1"/><line x1="356.05" y1="182.66" x2="356.05" y2="164.50" stroke="#999" stroke-width="1"/><line x1="357.76" y1="176.48" x2="357.76" y2="157.77" stroke="#999" stroke-width="1"/><line x1="359.46" y1="174.87" x2="359.46" y2="156.18" stroke="#999" stroke-width="1"/><line x1="361.16" y1="173.88" x2="361.16" y2="159.08" stroke="#999" stroke-width="1"/><line x1="362.86" y1="180.22" x2="362.86" y2="168.24" stroke="#999" stroke-width="1"/><line x1="364.56" y1="177.50" x2="364.56" y2="166.60" stroke="#999" stroke-width="1"/><line x1="366.26" y1="177.55" x2="366.26" y2="161.92" stroke="#999" stroke-width="1"/><line x1="367.96" y1="198.33" x2="367.96" y2="171.86" stroke="#999" stroke-width="1"/><line x1="369.67" y1="201.59" x2="369.67" y2="183.13" stroke="#999" stroke-width="1"/><line x1="371.37" y1="249.62" x2="371.37" y2="186.66" stroke="#999" stroke-width="1"/><line x1="373.07" y1="289.16" x2="373.07" y2="244.93" stroke="#999" stroke-width="1"/><line x1="374.77" y1="267.60" x2="374.77" y2="253.48" stroke="#999" stroke-width="1"/><line x1="376.47" y1="267.60" x2="376.47" y2="250.77" stroke="#999" stroke-width="1"/><line x1="378.17" y1="273.81" x2="378.17" y2="230.94" stroke="#999" stroke-width="1"/><line x1="379.87" y1="238.11" x2="379.87" y2="212.16" stroke="#999" stroke-width="1"/><line x1="381.58" y1="247.83" x2="381.58" y2="230.32" stroke="#999" stroke-width="1"/><line x1="383.28" y1="258.86" x2="383.28" y2="234.44" stroke="#999" stroke-width="1"/><line x1="384.98" y1="250.74" x2="384.98" y2="231.20" stroke="#999" stroke-width="1"/><line x1="386.68" y1="245.31" x2="386.68" y2="234.90" stroke="#999" stroke-width="1"/><line x1="388.38" y1="244.61" x2="388.38" y2="235.92" stroke="#999" stroke-width="1"/><line x1="390.08" y1="257.08" x2="390.08" y2="236.78" stroke="#999" stroke-width="1"/><line x1="391.78" y1="252.97" x2="391.78" y2="245.57" stroke="#999" stroke-width="1"/><line x1="393.49" y1="254.30" x2="393.49" y2="246.15" stroke="#999" stroke-width="1"/><line x1="395.19" y1="258.58" x2="395.19" y2="247.02" stroke="#999" stroke-width="1"/><line x1="396.89" y1="256.12" x2="396.89" y2="248.00" stroke="#999" stroke-width="1"/><line x1="398.59" y1="249.89" x2="398.59" y2="243.02" stroke="#999" stroke-width="1"/><line x1="400.29" y1="244.75" x2="400.29" y2="237.62" stroke="#999" stroke-width="1"/><line x1="401.99" y1="250.25" x2="401.99" y2="241.51" stroke="#999" stroke-width="1"/><line x1="403.70" y1="256.10" x2="403.70" y2="245.69" stroke="#999" stroke-width="1"/><line x1="405.40" y1="255.97" x2="405.40" y2="246.18" stroke="#999" stroke-width="1"/><line x1="407.10" y1="262.57" x2="407.10" y2="244.84" stroke="#999" stroke-width="1"/><line x1="408.80" y1="251.27" x2="408.80" y2="243.47" stroke="#999" stroke-width="1"/><line x1="410.50" y1="255.49" x2="410.50" y2="247.61" stroke="#999" stroke-width="1"/><line x1="412.20" y1="259.07" x2="412.20" y2="250.10" stroke="#999" stroke-width="1"/><line x1="413.90" y1="257.40" x2="413.90" y2="248.42" stroke="#999" stroke-width="1"/><line x1="415.61" y1="256.64" x2="415.61" y2="251.65" stroke="#999" stroke-width="1"/><line x1="417.31" y1="275.74" x2="417.31" y2="252.21" stroke="#999" stroke-width="1"/><line x1="419.01" y1="288.53" x2="419.01" y2="264.81" stroke="#999" stroke-width="1"/><line x1="420.71" y1="318.71" x2="420.71" y2="271.12" stroke="#999" stroke-width="1"/><line x1="422.41" y1="307.47" x2="422.41" y2="289.36" stroke="#999" stroke-width="1"/><line x1="424.11" y1="295.02" x2="424.11" y2="260.97" stroke="#999" stroke-width="1"/><line x1="425.81" y1="266.68" x2="425.81" y2="254.34" stroke="#999" stroke-width="1"/><line x1="427.52" y1="265.44" x2="427.52" y2="258.42" stroke="#999" stroke-width="1"/><line x1="429.22" y1="265.56" x2="429.22" y2="258.94" stroke="#999" stroke-width="1"/><line x1="430.92" y1="269.43" x2="430.92" y2="242.11" stroke="#999" stroke-width="1"/><line x1="432.62" y1="248.74" x2="432.62" y2="239.73" stroke="#999" stroke-width="1"/><line x1="434.32" y1="250.92" x2="434.32" y2="244.07" stroke="#999" stroke-width="1"/><line x1="436.02" y1="251.30" x2="436.02" y2="245.95" stroke="#999" stroke-width="1"/><line x1="437.72" y1="255.81" x2="437.72" y2="249.15" stroke="#999" stroke-width="1"/><line x1="439.43" y1="250.72" x2="439.43" y2="243.65" stroke="#999" stroke-width="1"/><line x1="441.13" y1="253.83" x2="441.13" y2="247.69" stroke="#999" stroke-width="1"/><line x1="442.83" y1="249.26" x2="442.83" y2="238.20" stroke="#999" stroke-width="1"/><line x1="444.53" y1="247.43" x2="444.53" y2="241.48" stroke="#999" stroke-width="1"/><line x1="446.23" y1="248.53" x2="446.23" y2="242.32" stroke="#999" stroke-width="1"/><line x1="447.93" y1="255.71" x2="447.93" y2="242.13" stroke="#999" stroke-width="1"/><line x1="449.63" y1="258.03" x2="449.63" y2="246.18" stroke="#999" stroke-width="1"/><line x1="451.34" y1="247.38" x2="451.34" y2="224.31" stroke="#999" stroke-width="1"/><line x1="453.04" y1="246.38" x2="453.04" y2="239.99" stroke="#999" stroke-width="1"/><line x1="454.74" y1="247.82" x2="454.74" y2="238.30" stroke="#999" stroke-width="1"/><line x1="456.44" y1="254.61" x2="456.44" y2="236.49" stroke="#999" stroke-width="1"/><line x1="458.14" y1="238.56" x2="458.14" y2="196.11" stroke="#999" stroke-width="1"/><line x1="459.84" y1="210.75" x2="459.84" y2="191.18" stroke="#999" stroke-width="1"/><line x1="461.54" y1="199.65" x2="461.54" y2="165.29" stroke="#999" stroke-width="1"/><line x1="463.25" y1="187.03" x2="463.25" y2="169.39" stroke="#999" stroke-width="1"/><line x1="464.95" y1="212.49" x2="464.95" y2="179.62" stroke="#999" stroke-width="1"/><line x1="466.65" y1="196.03" x2="466.65" y2="178.85" stroke="#999" stroke-width="1"/><line x1="468.35" y1="192.03" x2="468.35" y2="182.17" stroke="#999" stroke-width="1"/><line x1="470.05" y1="197.72" x2="470.05" y2="178.25" stroke="#999" stroke-width="1"/><line x1="471.75" y1="185.88" x2="471.75" y2="168.55" stroke="#999" stroke-width="1"/><line x1="473.46" y1="186.40" x2="473.46" y2="175.10" stroke="#999" stroke-width="1"/><line x1="475.16" y1="192.85" x2="475.16" y2="183.13" stroke="#999" stroke-width="1"/><line x1="476.86" y1="199.02" x2="476.86" y2="187.08" stroke="#999" stroke-width="1"/><line x1="478.56" y1="197.57" x2="478.56" y2="188.80" stroke="#999" stroke-width="1"/><line x1="480.26" y1="191.90" x2="480.26" y2="185.61" stroke="#999" stroke-width="1"/><line x1="481.96" y1="197.54" x2="481.96" y2="185.27" stroke="#999" stroke-width="1"/><line x1="483.66" y1="196.10" x2="483.66" y2="181.67" stroke="#999" stroke-width="1"/><line x1="485.37" y1="194.95" x2="485.37" y2="185.77" stroke="#999" stroke-width="1"/><line x1="487.07" y1="190.52" x2="487.07" y2="179.33" stroke="#999" stroke-width="1"/><line x1="488.77" y1="188.23" x2="488.77" y2="179.90" stroke="#999" stroke-width="1"/><line x1="490.47" y1="185.23" x2="490.47" y2="144.23" stroke="#999" stroke-width="1"/><line x1="492.17" y1="161.72" x2="492.17" y2="146.42" stroke="#999" stroke-width="1"/><line x1="493.87" y1="189.79" x2="493.87" y2="146.81" stroke="#999" stroke-width="1"/><line x1="495.57" y1="211.40" x2="495.57" y2="174.09" stroke="#999" stroke-width="1"/><line x1="497.28" y1="203.57" x2="497.28" y2="186.69" stroke="#999" stroke-width="1"/><line x1="498.98" y1="224.00" x2="498.98" y2="192.79" stroke="#999" stroke-width="1"/><line x1="500.68" y1="223.51" x2="500.68" y2="206.00" stroke="#999" stroke-width="1"/><line x1="502.38" y1="236.52" x2="502.38" y2="211.39" stroke="#999" stroke-width="1"/><line x1="504.08" y1="213.98" x2="504.08" y2="204.22" stroke="#999" stroke-width="1"/><line x1="505.78" y1="210.15" x2="505.78" y2="191.41" stroke="#999" stroke-width="1"/><line x1="507.48" y1="199.96" x2="507.48" y2="190.79" stroke="#999" stroke-width="1"/><line x1="509.19" y1="205.42" x2="509.19" y2="191.49" stroke="#999" stroke-width="1"/><line x1="510.89" y1="205.84" x2="510.89" y2="195.63" stroke="#999" stroke-width="1"/><line x1="512.59" y1="204.09" x2="512.59" y2="195.40" stroke="#999" stroke-width="1"/><line x1="514.29" y1="201.53" x2="514.29" y2="192.72" stroke="#999" stroke-width="1"/><line x1="515.99" y1="212.33" x2="515.99" y2="196.13" stroke="#999" stroke-width="1"/><line x1="517.69" y1="207.90" x2="517.69" y2="201.43" stroke="#999" stroke-width="1"/><line x1="519.39" y1="207.85" x2="519.39" y2="200.98" stroke="#999" stroke-width="1"/><line x1="521.10" y1="220.40" x2="521.10" y2="202.14" stroke="#999" stroke-width="1"/><line x1="522.80" y1="222.48" x2="522.80" y2="210.38" stroke="#999" stroke-width="1"/><line x1="524.50" y1="220.89" x2="524.50" y2="209.02" stroke="#999" stroke-width="1"/><line x1="526.20" y1="217.19" x2="526.20" y2="205.37" stroke="#999" stroke-width="1"/><line x1="527.90" y1="208.00" x2="527.90" y2="198.27" stroke="#999" stroke-width="1"/><line x1="529.60" y1="201.67" x2="529.60" y2="185.06" stroke="#999" stroke-width="1"/><line x1="531.30" y1="199.19" x2="531.30" y2="180.84" stroke="#999" stroke-width="1"/><line x1="533.01" y1="202.92" x2="533.01" y2="172.62" stroke="#999" stroke-width="1"/><line x1="534.71" y1="197.91" x2="534.71" y2="179.90" stroke="#999" stroke-width="1"/><line x1="536.41" y1="194.69" x2="536.41" y2="174.71" stroke="#999" stroke-width="1"/><line x1="538.11" y1="192.55" x2="538.11" y2="177.71" stroke="#999" stroke-width="1"/><line x1="539.81" y1="187.24" x2="539.81" y2="175.68" stroke="#999" stroke-width="1"/><line x1="541.51" y1="213.10" x2="541.51" y2="179.90" stroke="#999" stroke-width="1"/><line x1="543.22" y1="214.43" x2="543.22" y2="196.27" stroke="#999" stroke-width="1"/><line x1="544.92" y1="254.40" x2="544.92" y2="205.13" stroke="#999" stroke-width="1"/><line x1="546.62" y1="252.18" x2="546.62" y2="227.15" stroke="#999" stroke-width="1"/><line x1="548.32" y1="244.43" x2="548.32" y2="229.45" stroke="#999" stroke-width="1"/><line x1="550.02" y1="258.33" x2="550.02" y2="231.67" stroke="#999" stroke-width="1"/><line x1="551.72" y1="250.90" x2="551.72" y2="224.41" stroke="#999" stroke-width="1"/><line x1="553.42" y1="227.89" x2="553.42" y2="215.00" stroke="#999" stroke-width="1"/><line x1="555.13" y1="217.35" x2="555.13" y2="184.44" stroke="#999" stroke-width="1"/><line x1="556.83" y1="191.80" x2="556.83" y2="151.56" stroke="#999" stroke-width="1"/><line x1="558.53" y1="172.68" x2="558.53" y2="149.92" stroke="#999" stroke-width="1"/><line x1="560.23" y1="170.24" x2="560.23" y2="153.03" stroke="#999" stroke-width="1"/><line x1="561.93" y1="168.39" x2="561.93" y2="159.13" stroke="#999" stroke-width="1"/><line x1="563.63" y1="170.33" x2="563.63" y2="137.34" stroke="#999" stroke-width="1"/><line x1="565.33" y1="166.30" x2="565.33" y2="151.35" stroke="#999" stroke-width="1"/><line x1="567.04" y1="167.03" x2="567.04" y2="157.12" stroke="#999" stroke-width="1"/><line x1="568.74" y1="163.22" x2="568.74" y2="157.64" stroke="#999" stroke-width="1"/><line x1="570.44" y1="166.04" x2="570.44" y2="154.28" stroke="#999" stroke-width="1"/><line x1="572.14" y1="174.16" x2="572.14" y2="163.34" stroke="#999" stroke-width="1"/><line x1="573.84" y1="172.15" x2="573.84" y2="136.58" stroke="#999" stroke-width="1"/><line x1="575.54" y1="171.32" x2="575.54" y2="150.44" stroke="#999" stroke-width="1"/><line x1="577.24" y1="181.36" x2="577.24" y2="153.23" stroke="#999" stroke-width="1"/><line x1="578.95" y1="161.85" x2="578.95" y2="152.22" stroke="#999" stroke-width="1"/><line x1="580.65" y1="166.77" x2="580.65" y2="155.87" stroke="#999" stroke-width="1"/><line x1="582.35" y1="198.98" x2="582.35" y2="160.18" stroke="#999" stroke-width="1"/><line x1="584.05" y1="198.38" x2="584.05" y2="178.21" stroke="#999" stroke-width="1"/><line x1="585.75" y1="186.25" x2="585.75" y2="154.14" stroke="#999" stroke-width="1"/><line x1="587.45" y1="171.94" x2="587.45" y2="155.16" stroke="#999" stroke-width="1"/><line x1="589.15" y1="163.54" x2="589.15" y2="142.61" stroke="#999" stroke-width="1"/><line x1="590.86" y1="155.04" x2="590.86" y2="123.36" stroke="#999" stroke-width="1"/><line x1="592.56" y1="177.00" x2="592.56" y2="150.88" stroke="#999" stroke-width="1"/><line x1="594.26" y1="176.66" x2="594.26" y2="164.87" stroke="#999" stroke-width="1"/><line x1="595.96" y1="177.87" x2="595.96" y2="166.34" stroke="#999" stroke-width="1"/><line x1="597.66" y1="174.73" x2="597.66" y2="166.05" stroke="#999" stroke-width="1"/><line x1="599.36" y1="181.28" x2="599.36" y2="166.28" stroke="#999" stroke-width="1"/><line x1="601.06" y1="186.21" x2="601.06" y2="171.74" stroke="#999" stroke-width="1"/><line x1="602.77" y1="184.20" x2="602.77" y2="174.43" stroke="#999" stroke-width="1"/><line x1="604.47" y1="188.22" x2="604.47" y2="170.74" stroke="#999" stroke-width="1"/><line x1="606.17" y1="182.91" x2="606.17" y2="172.23" stroke="#999" stroke-width="1"/><line x1="607.87" y1="188.28" x2="607.87" y2="179.92" stroke="#999" stroke-width="1"/><line x1="609.57" y1="184.36" x2="609.57" y2="176.22" stroke="#999" stroke-width="1"/><line x1="611.27" y1="197.15" x2="611.27" y2="176.19" stroke="#999" stroke-width="1"/><line x1="612.97" y1="206.59" x2="612.97" y2="188.38" stroke="#999" stroke-width="1"/><line x1="614.68" y1="218.13" x2="614.68" y2="198.53" stroke="#999" stroke-width="1"/><line x1="616.38" y1="211.99" x2="616.38" y2="197.85" stroke="#999" stroke-width="1"/><line x1="618.08" y1="214.74" x2="618.08" y2="199.58" stroke="#999" stroke-width="1"/><line x1="619.78" y1="214.29" x2="619.78" y2="202.76" stroke="#999" stroke-width="1"/><line x1="621.48" y1="212.41" x2="621.48" y2="186.73" stroke="#999" stroke-width="1"/><line x1="623.18" y1="188.01" x2="623.18" y2="164.50" stroke="#999" stroke-width="1"/><line x1="624.89" y1="180.37" x2="624.89" y2="166.39" stroke="#999" stroke-width="1"/><line x1="626.59" y1="184.00" x2="626.59" y2="172.86" stroke="#999" stroke-width="1"/><line x1="628.29" y1="184.11" x2="628.29" y2="155.58" stroke="#999" stroke-width="1"/><line x1="629.99" y1="177.63" x2="629.99" y2="167.33" stroke="#999" stroke-width="1"/><line x1="631.69" y1="181.41" x2="631.69" y2="169.80" stroke="#999" stroke-width="1"/><line x1="633.39" y1="342.04" x2="633.39" y2="178.94" stroke="#999" stroke-width="1"/><line x1="635.09" y1="331.00" x2="635.09" y2="297.47" stroke="#999" stroke-width="1"/><line x1="636.80" y1="313.68" x2="636.80" y2="299.91" stroke="#999" stroke-width="1"/><line x1="638.50" y1="310.70" x2="638.50" y2="293.09" stroke="#999" stroke-width="1"/><line x1="640.20" y1="303.45" x2="640.20" y2="287.56" stroke="#999" stroke-width="1"/><line x1="641.90" y1="307.55" x2="641.90" y2="297.82" stroke="#999" stroke-width="1"/><line x1="643.60" y1="308.94" x2="643.60" y2="295.73" stroke="#999" stroke-width="1"/><line x1="645.30" y1="304.21" x2="645.30" y2="293.41" stroke="#999" stroke-width="1"/><line x1="647.00" y1="304.42" x2="647.00" y2="291.35" stroke="#999" stroke-width="1"/><line x1="648.71" y1="306.56" x2="648.71" y2="298.63" stroke="#999" stroke-width="1"/><line x1="650.41" y1="307.99" x2="650.41" y2="303.32" stroke="#999" stroke-width="1"/><line x1="652.11" y1="312.41" x2="652.11" y2="304.21" stroke="#999" stroke-width="1"/><line x1="653.81" y1="313.27" x2="653.81" y2="291.30" stroke="#999" stroke-width="1"/><line x1="655.51" y1="297.29" x2="655.51" y2="281.02" stroke="#999" stroke-width="1"/><line x1="657.21" y1="307.42" x2="657.21" y2="288.61" stroke="#999" stroke-width="1"/><line x1="658.91" y1="305.60" x2="658.91" y2="299.18" stroke="#999" stroke-width="1"/><line x1="660.62" y1="299.83" x2="660.62" y2="290.80" stroke="#999" stroke-width="1"/><line x1="662.32" y1="329.07" x2="662.32" y2="292.62" stroke="#999" stroke-width="1"/><line x1="664.02" y1="318.90" x2="664.02" y2="300.37" stroke="#999" stroke-width="1"/><line x1="665.72" y1="317.38" x2="665.72" y2="302.90" stroke="#999" stroke-width="1"/><line x1="667.42" y1="334.89" x2="667.42" y2="310.78" stroke="#999" stroke-width="1"/><line x1="669.12" y1="316.40" x2="669.12" y2="300.77" stroke="#999" stroke-width="1"/><line x1="670.82" y1="303.55" x2="670.82" y2="296.40" stroke="#999" stroke-width="1"/><line x1="672.53" y1="301.10" x2="672.53" y2="289.67" stroke="#999" stroke-width="1"/><line x1="674.23" y1="296.69" x2="674.23" y2="286.55" stroke="#999" stroke-width="1"/><line x1="675.93" y1="296.56" x2="675.93" y2="293.54" stroke="#999" stroke-width="1"/><line x1="677.63" y1="299.05" x2="677.63" y2="295.13" stroke="#999" stroke-width="1"/><line x1="679.33" y1="300.81" x2="679.33" y2="293.41" stroke="#999" stroke-width="1"/><line x1="681.03" y1="309.93" x2="681.03" y2="297.51" stroke="#999" stroke-width="1"/><line x1="682.73" y1="306.01" x2="682.73" y2="294.37" stroke="#999" stroke-width="1"/><line x1="684.44" y1="301.10" x2="684.44" y2="296.69" stroke="#999" stroke-width="1"/><line x1="686.14" y1="302.95" x2="686.14" y2="298.80" stroke="#999" stroke-width="1"/><line x1="687.84" y1="301.65" x2="687.84" y2="296.98" stroke="#999" stroke-width="1"/><line x1="689.54" y1="303.40" x2="689.54" y2="295.96" stroke="#999" stroke-width="1"/><line x1="691.24" y1="302.20" x2="691.24" y2="297.63" stroke="#999" stroke-width="1"/><line x1="692.94" y1="302.20" x2="692.94" y2="294.94" stroke="#999" stroke-width="1"/><line x1="694.65" y1="301.19" x2="694.65" y2="296.25" stroke="#999" stroke-width="1"/><line x1="696.35" y1="304.15" x2="696.35" y2="297.85" stroke="#999" stroke-width="1"/><line x1="698.05" y1="311.23" x2="698.05" y2="300.04" stroke="#999" stroke-width="1"/><line x1="699.75" y1="314.60" x2="699.75" y2="305.39" stroke="#999" stroke-width="1"/><line x1="701.45" y1="311.49" x2="701.45" y2="306.04" stroke="#999" stroke-width="1"/><line x1="703.15" y1="319.45" x2="703.15" y2="307.06" stroke="#999" stroke-width="1"/><line x1="704.85" y1="317.59" x2="704.85" y2="307.13" stroke="#999" stroke-width="1"/><line x1="706.56" y1="331.97" x2="706.56" y2="313.39" stroke="#999" stroke-width="1"/><line x1="708.26" y1="331.43" x2="708.26" y2="313.83" stroke="#999" stroke-width="1"/><line x1="709.96" y1="325.00" x2="709.96" y2="300.40" stroke="#999" stroke-width="1"/><line x1="711.66" y1="313.21" x2="711.66" y2="302.62" stroke="#999" stroke-width="1"/><line x1="713.36" y1="307.18" x2="713.36" y2="297.55" stroke="#999" stroke-width="1"/><line x1="715.06" y1="302.10" x2="715.06" y2="267.79" stroke="#999" stroke-width="1"/><line x1="716.76" y1="325.48" x2="716.76" y2="276.92" stroke="#999" stroke-width="1"/><line x1="718.47" y1="304.23" x2="718.47" y2="298.91" stroke="#999" stroke-width="1"/><line x1="720.17" y1="301.89" x2="720.17" y2="292.28" stroke="#999" stroke-width="1"/><line x1="721.87" y1="299.62" x2="721.87" y2="294.90" stroke="#999" stroke-width="1"/><line x1="723.57" y1="299.88" x2="723.57" y2="295.05" stroke="#999" stroke-width="1"/><line x1="725.27" y1="301.29" x2="725.27" y2="296.14" stroke="#999" stroke-width="1"/><line x1="726.97" y1="306.84" x2="726.97" y2="296.80" stroke="#999" stroke-width="1"/><line x1="728.67" y1="307.83" x2="728.67" y2="298.70" stroke="#999" stroke-width="1"/><line x1="730.38" y1="301.21" x2="730.38" y2="292.84" stroke="#999" stroke-width="1"/><line x1="732.08" y1="300.63" x2="732.08" y2="295.50" stroke="#999" stroke-width="1"/><line x1="733.78" y1="301.60" x2="733.78" y2="296.51" stroke="#999" stroke-width="1"/><line x1="735.48" y1="299.56" x2="735.48" y2="291.29" stroke="#999" stroke-width="1"/><line x1="737.18" y1="301.24" x2="737.18" y2="292.68" stroke="#999" stroke-width="1"/><line x1="738.88" y1="301.37" x2="738.88" y2="294.58" stroke="#999" stroke-width="1"/><line x1="740.58" y1="301.89" x2="740.58" y2="295.65" stroke="#999" stroke-width="1"/><line x1="742.29" y1="301.18" x2="742.29" y2="295.03" stroke="#999" stroke-width="1"/><line x1="743.99" y1="302.82" x2="743.99" y2="298.58" stroke="#999" stroke-width="1"/><line x1="745.69" y1="309.12" x2="745.69" y2="299.61" stroke="#999" stroke-width="1"/><line x1="747.39" y1="305.13" x2="747.39" y2="297.19" stroke="#999" stroke-width="1"/><line x1="749.09" y1="316.06" x2="749.09" y2="284.12" stroke="#999" stroke-width="1"/><line x1="750.79" y1="313.27" x2="750.79" y2="294.82" stroke="#999" stroke-width="1"/><line x1="752.49" y1="319.45" x2="752.49" y2="303.63" stroke="#999" stroke-width="1"/><line x1="754.20" y1="316.18" x2="754.20" y2="299.15" stroke="#999" stroke-width="1"/><line x1="755.90" y1="318.01" x2="755.90" y2="293.72" stroke="#999" stroke-width="1"/><line x1="757.60" y1="319.91" x2="757.60" y2="306.55" stroke="#999" stroke-width="1"/><line x1="759.30" y1="312.85" x2="759.30" y2="306.63" stroke="#999" stroke-width="1"/><line x1="761.00" y1="316.26" x2="761.00" y2="307.44" stroke="#999" stroke-width="1"/><line x1="762.70" y1="323.10" x2="762.70" y2="314.07" stroke="#999" stroke-width="1"/><line x1="764.41" y1="314.83" x2="764.41" y2="308.47" stroke="#999" stroke-width="1"/><line x1="766.11" y1="312.28" x2="766.11" y2="306.06" stroke="#999" stroke-width="1"/><line x1="767.81" y1="317.72" x2="767.81" y2="304.42" stroke="#999" stroke-width="1"/><line x1="769.51" y1="312.80" x2="769.51" y2="304.79" stroke="#999" stroke-width="1"/><line x1="771.21" y1="308.60" x2="771.21" y2="301.05" stroke="#999" stroke-width="1"/><line x1="772.91" y1="310.05" x2="772.91" y2="301.11" stroke="#999" stroke-width="1"/><line x1="774.61" y1="312.24" x2="774.61" y2="303.79" stroke="#999" stroke-width="1"/><line x1="776.32" y1="308.02" x2="776.32" y2="295.39" stroke="#999" stroke-width="1"/><line x1="778.02" y1="301.42" x2="778.02" y2="291.14" stroke="#999" stroke-width="1"/><line x1="779.72" y1="298.99" x2="779.72" y2="276.68" stroke="#999" stroke-width="1"/><line x1="781.42" y1="295.00" x2="781.42" y2="280.47" stroke="#999" stroke-width="1"/><line x1="783.12" y1="293.43" x2="783.12" y2="287.35" stroke="#999" stroke-width="1"/><line x1="784.82" y1="294.69" x2="784.82" y2="286.86" stroke="#999" stroke-width="1"/><line x1="786.52" y1="310.05" x2="786.52" y2="290.67" stroke="#999" stroke-width="1"/><line x1="788.23" y1="312.85" x2="788.23" y2="301.97" stroke="#999" stroke-width="1"/><line x1="789.93" y1="315.58" x2="789.93" y2="300.47" stroke="#999" stroke-width="1"/><line x1="791.63" y1="303.85" x2="791.63" y2="296.17" stroke="#999" stroke-width="1"/><line x1="793.33" y1="306.40" x2="793.33" y2="295.96" stroke="#999" stroke-width="1"/><line x1="795.03" y1="311.98" x2="795.03" y2="304.53" stroke="#999" stroke-width="1"/><line x1="796.73" y1="305.57" x2="796.73" y2="290.15" stroke="#999" stroke-width="1"/><line x1="798.43" y1="295.36" x2="798.43" y2="285.45" stroke="#999" stroke-width="1"/><line x1="800.14" y1="290.46" x2="800.14" y2="275.90" stroke="#999" stroke-width="1"/><line x1="801.84" y1="291.17" x2="801.84" y2="286.88" stroke="#999" stroke-width="1"/><line x1="803.54" y1="292.44" x2="803.54" y2="288.60" stroke="#999" stroke-width="1"/><line x1="805.24" y1="296.27" x2="805.24" y2="291.29" stroke="#999" stroke-width="1"/><line x1="806.94" y1="296.77" x2="806.94" y2="292.18" stroke="#999" stroke-width="1"/><line x1="808.64" y1="301.34" x2="808.64" y2="295.97" stroke="#999" stroke-width="1"/><line x1="810.34" y1="308.12" x2="810.34" y2="296.15" stroke="#999" stroke-width="1"/><line x1="812.05" y1="309.56" x2="812.05" y2="299.04" stroke="#999" stroke-width="1"/><line x1="813.75" y1="310.23" x2="813.75" y2="304.36" stroke="#999" stroke-width="1"/><line x1="815.45" y1="310.83" x2="815.45" y2="301.13" stroke="#999" stroke-width="1"/><line x1="817.15" y1="309.19" x2="817.15" y2="300.94" stroke="#999" stroke-width="1"/><line x1="818.85" y1="319.01" x2="818.85" y2="303.32" stroke="#999" stroke-width="1"/><line x1="820.55" y1="353.39" x2="820.55" y2="293.40" stroke="#999" stroke-width="1"/><line x1="822.25" y1="333.98" x2="822.25" y2="307.55" stroke="#999" stroke-width="1"/><line x1="823.96" y1="325.66" x2="823.96" y2="305.75" stroke="#999" stroke-width="1"/><line x1="825.66" y1="326.39" x2="825.66" y2="309.27" stroke="#999" stroke-width="1"/><line x1="827.36" y1="331.97" x2="827.36" y2="317.21" stroke="#999" stroke-width="1"/><line x1="829.06" y1="341.39" x2="829.06" y2="326.05" stroke="#999" stroke-width="1"/><line x1="830.76" y1="339.82" x2="830.76" y2="322.58" stroke="#999" stroke-width="1"/><line x1="832.46" y1="341.28" x2="832.46" y2="322.86" stroke="#999" stroke-width="1"/><line x1="834.16" y1="328.29" x2="834.16" y2="308.64" stroke="#999" stroke-width="1"/><line x1="835.87" y1="311.31" x2="835.87" y2="296.80" stroke="#999" stroke-width="1"/><line x1="837.57" y1="310.24" x2="837.57" y2="300.11" stroke="#999" stroke-width="1"/><line x1="839.27" y1="314.47" x2="839.27" y2="305.07" stroke="#999" stroke-width="1"/><line x1="840.97" y1="318.15" x2="840.97" y2="310.14" stroke="#999" stroke-width="1"/><line x1="842.67" y1="314.78" x2="842.67" y2="308.98" stroke="#999" stroke-width="1"/><line x1="844.37" y1="332.67" x2="844.37" y2="309.67" stroke="#999" stroke-width="1"/><line x1="846.08" y1="333.72" x2="846.08" y2="321.77" stroke="#999" stroke-width="1"/><line x1="847.78" y1="330.10" x2="847.78" y2="322.40" stroke="#999" stroke-width="1"/><line x1="849.48" y1="330.88" x2="849.48" y2="322.14" stroke="#999" stroke-width="1"/><line x1="851.18" y1="327.28" x2="851.18" y2="319.68" stroke="#999" stroke-width="1"/><line x1="852.88" y1="322.43" x2="852.88" y2="313.66" stroke="#999" stroke-width="1"/><line x1="854.58" y1="319.45" x2="854.58" y2="311.91" stroke="#999" stroke-width="1"/><line x1="856.28" y1="327.74" x2="856.28" y2="314.47" stroke="#999" stroke-width="1"/><line x1="857.99" y1="331.29" x2="857.99" y2="320.67" stroke="#999" stroke-width="1"/><line x1="859.69" y1="337.90" x2="859.69" y2="325.52" stroke="#999" stroke-width="1"/><line x1="861.39" y1="345.31" x2="861.39" y2="305.15" stroke="#999" stroke-width="1"/><line x1="863.09" y1="326.03" x2="863.09" y2="306.50" stroke="#999" stroke-width="1"/><line x1="864.79" y1="324.69" x2="864.79" y2="313.08" stroke="#999" stroke-width="1"/><line x1="866.49" y1="332.96" x2="866.49" y2="320.65" stroke="#999" stroke-width="1"/><line x1="868.19" y1="328.95" x2="868.19" y2="320.49" stroke="#999" stroke-width="1"/><line x1="869.90" y1="331.13" x2="869.90" y2="312.79" stroke="#999" stroke-width="1"/><line x1="871.60" y1="333.07" x2="871.60" y2="312.88" stroke="#999" stroke-width="1"/><line x1="873.30" y1="346.58" x2="873.30" y2="324.61" stroke="#999" stroke-width="1"/><line x1="875.00" y1="375.00" x2="875.00" y2="333.62" stroke="#999" stroke-width="1"/><polyline points="60.00,163.23 61.70,147.08 63.40,155.68 65.10,146.34 66.81,153.70 68.51,158.92 70.21,157.30 71.91,162.84 73.61,145.54 75.31,147.03 77.01,144.96 78.72,141.97 80.42,143.76 82.12,151.02 83.82,154.54 85.52,130.58 87.22,131.89 88.92,107.65 90.63,94.95 92.33,77.40 94.03,70.12 95.73,98.98 97.43,89.30 99.13,97.66 100.84,95.70 102.54,83.62 104.24,94.91 105.94,88.63 107.64,87.93 109.34,90.11 111.04,93.37 112.75,102.95 114.45,97.18 116.15,98.47 117.85,108.41 119.55,101.08 121.25,90.24 122.95,96.79 124.66,93.25 126.36,94.27 128.06,98.41 129.76,95.68 131.46,97.78 133.16,107.50 134.86,115.89 136.57,107.44 138.27,103.60 139.97,100.89 141.67,89.69 143.37,98.36 145.07,96.74 146.77,94.91 148.48,91.11 150.18,84.53 151.88,94.34 153.58,98.49 155.28,98.88 156.98,98.55 158.68,94.45 160.39,94.99 162.09,91.92 163.79,94.87 165.49,80.36 167.19,68.51 168.89,89.33 170.59,116.44 172.30,110.86 174.00,111.88 175.70,108.70 177.40,110.11 179.10,111.10 180.80,120.26 182.51,124.66 184.21,135.65 185.91,121.20 187.61,112.60 189.31,105.51 191.01,103.97 192.71,97.19 194.42,93.95 196.12,100.84 197.82,67.93 199.52,69.63 201.22,65.59 202.92,76.65 204.62,78.11 206.33,68.40 208.03,76.36 209.73,87.22 211.43,93.09 213.13,91.84 214.83,71.15 216.53,81.43 218.24,85.39 219.94,98.73 221.64,81.81 223.34,79.37 225.04,78.74 226.74,74.38 228.44,82.84 230.15,93.14 231.85,90.25 233.55,75.29 235.25,80.80 236.95,126.18 238.65,112.69 240.35,119.36 242.06,136.22 243.76,124.32 245.46,135.42 247.16,128.39 248.86,132.52 250.56,149.01 252.27,124.24 253.97,120.59 255.67,132.73 257.37,137.39 259.07,181.60 260.77,163.96 262.47,152.82 264.18,150.99 265.88,176.64 267.58,176.92 269.28,169.41 270.98,177.81 272.68,180.21 274.38,195.98 276.09,177.74 277.79,199.47 279.49,185.38 281.19,179.45 282.89,177.47 284.59,176.79 286.29,173.22 288.00,204.87 289.70,227.47 291.40,240.44 293.10,231.67 294.80,230.65 296.50,223.11 298.20,220.97 299.91,218.39 301.61,193.79 303.31,179.62 305.01,187.47 306.71,181.33 308.41,133.53 310.11,140.68 311.82,133.97 313.52,144.72 315.22,144.12 316.92,141.70 318.62,139.88 320.32,145.22 322.03,143.45 323.73,188.77 325.43,172.07 327.13,159.11 328.83,152.01 330.53,159.15 332.23,173.46 333.94,174.06 335.64,175.62 337.34,163.62 339.04,165.26 340.74,177.48 342.44,173.35 344.14,167.74 345.85,166.26 347.55,162.70 349.25,171.24 350.95,169.65 352.65,173.24 354.35,176.69 356.05,166.17 357.76,165.58 359.46,162.29 361.16,172.65 362.86,170.43 364.56,172.86 366.26,176.14 367.96,192.34 369.67,189.82 371.37,244.95 373.07,260.32 374.77,259.98 376.47,255.71 378.17,232.29 379.87,231.02 381.58,245.42 383.28,241.59 384.98,236.79 386.68,241.66 388.38,240.23 390.08,252.33 391.78,251.79 393.49,247.04 395.19,256.12 396.89,248.47 398.59,243.30 400.29,244.06 401.99,246.36 403.70,255.68 405.40,249.59 407.10,245.65 408.80,251.26 410.50,254.21 412.20,254.64 413.90,254.95 415.61,252.83 417.31,271.94 419.01,274.39 420.71,294.43 422.41,290.64 424.11,263.01 425.81,258.42 427.52,263.82 429.22,262.30 430.92,243.25 432.62,244.95 434.32,247.79 436.02,251.29 437.72,249.16 439.43,249.54 441.13,249.00 442.83,241.67 444.53,245.63 446.23,243.15 447.93,253.57 449.63,246.80 451.34,244.66 453.04,241.33 454.74,246.99 456.44,236.49 458.14,200.72 459.84,195.56 461.54,181.80 463.25,180.37 464.95,195.40 466.65,182.46 468.35,188.90 470.05,179.53 471.75,183.68 473.46,183.86 475.16,192.03 476.86,195.08 478.56,191.88 480.26,191.01 481.96,194.36 483.66,188.70 485.37,190.18 487.07,182.98 488.77,185.23 490.47,152.04 492.17,154.72 493.87,178.15 495.57,188.82 497.28,196.00 498.98,210.24 500.68,213.54 502.38,212.96 504.08,205.40 505.78,199.10 507.48,195.04 509.19,203.52 510.89,197.54 512.59,200.36 514.29,196.21 515.99,205.34 517.69,206.42 519.39,203.31 521.10,218.59 522.80,215.37 524.50,215.97 526.20,207.12 527.90,201.66 529.60,190.41 531.30,196.60 533.01,193.34 534.71,183.09 536.41,192.19 538.11,178.80 539.81,181.54 541.51,204.50 543.22,205.11 544.92,240.96 546.62,229.46 548.32,241.09 550.02,246.91 551.72,226.92 553.42,215.00 555.13,187.80 556.83,154.35 558.53,167.50 560.23,161.16 561.93,167.97 563.63,154.54 565.33,163.77 567.04,157.85 568.74,158.50 570.44,164.17 572.14,166.34 573.84,162.06 575.54,156.32 577.24,160.18 578.95,158.35 580.65,160.59 582.35,192.98 584.05,181.24 585.75,157.39 587.45,158.79 589.15,144.34 590.86,154.41 592.56,168.27 594.26,171.74 595.96,171.95 597.66,166.30 599.36,177.66 601.06,175.80 602.77,177.87 604.47,174.11 606.17,181.34 607.87,183.34 609.57,177.73 611.27,192.59 612.97,203.54 614.68,205.55 616.38,203.81 618.08,209.46 619.78,209.00 621.48,187.78 623.18,171.09 624.89,178.26 626.59,183.98 628.29,170.48 629.99,172.05 631.69,180.01 633.39,326.10 635.09,307.55 636.80,305.48 638.50,296.36 640.20,303.45 641.90,305.69 643.60,301.06 645.30,295.07 647.00,303.03 648.71,305.46 650.41,306.98 652.11,305.54 653.81,293.35 655.51,295.94 657.21,304.18 658.91,299.85 660.62,294.64 662.32,314.44 664.02,305.43 665.72,315.75 667.42,315.28 669.12,302.73 670.82,299.10 672.53,290.79 674.23,296.27 675.93,295.54 677.63,296.70 679.33,297.87 681.03,303.40 682.73,297.77 684.44,300.27 686.14,301.65 687.84,299.18 689.54,301.76 691.24,299.59 692.94,296.25 694.65,301.08 696.35,302.44 698.05,311.10 699.75,307.34 701.45,310.87 703.15,308.67 704.85,315.30 706.56,318.71 708.26,319.34 709.96,312.43 711.66,303.45 713.36,297.84 715.06,278.80 716.76,304.03 718.47,301.66 720.17,295.29 721.87,297.68 723.57,296.07 725.27,300.58 726.97,305.02 728.67,300.55 730.38,296.91 732.08,300.56 733.78,299.57 735.48,293.74 737.18,300.68 738.88,299.69 740.58,297.77 742.29,300.43 743.99,301.19 745.69,304.41 747.39,298.89 749.09,294.82 750.79,305.99 752.49,306.95 754.20,301.91 755.90,311.98 757.60,310.18 759.30,310.32 761.00,315.20 762.70,314.44 764.41,309.64 766.11,312.27 767.81,307.18 769.51,305.73 771.21,302.22 772.91,308.93 774.61,306.93 776.32,297.45 778.02,296.23 779.72,285.31 781.42,288.27 783.12,291.66 784.82,292.08 786.52,304.57 788.23,312.80 789.93,303.66 791.63,298.97 793.33,305.07 795.03,305.31 796.73,292.07 798.43,286.59 800.14,289.96 801.84,288.86 803.54,291.71 805.24,293.74 806.94,296.17 808.64,296.95 810.34,304.71 812.05,308.33 813.75,309.48 815.45,301.58 817.15,307.89 818.85,310.73 820.55,313.06 822.25,324.22 823.96,311.57 825.66,322.14 827.36,328.69 829.06,333.17 830.76,329.84 832.46,325.48 834.16,311.07 835.87,302.54 837.57,309.43 839.27,312.50 840.97,311.02 842.67,310.18 844.37,329.10 846.08,323.83 847.78,328.58 849.48,326.23 851.18,321.17 852.88,316.03 854.58,318.87 856.28,324.02 857.99,328.21 859.69,333.93 861.39,314.12 863.09,314.12 864.79,324.30 866.49,325.29 868.19,326.49 869.90,314.72 871.60,325.82 873.30,337.55 875.00,358.88" fill="none" stroke="#111" stroke-width="2"/><line x1="60" y1="375" x2="875" y2="375" stroke="#222"/><line x1="60" y1="45" x2="60" y2="375" stroke="#222"/><text x="450.0" y="410" text-anchor="middle" font-family="Arial" font-size="12">Bars before checkpoint</text><text transform="translate(14 210.0) rotate(-90)" text-anchor="middle" font-family="Arial" font-size="12">Normalized price (checkpoint close=100)</text></svg>